<?xml version="1.0" encoding="utf-8"?>
<!-- Generator: Adobe Illustrator 26.0.2, SVG Export Plug-In . SVG Version: 6.00 Build 0)  -->
<svg version="1.1" id="Layer_1" xmlns="http://www.w3.org/2000/svg" xmlns:xlink="http://www.w3.org/1999/xlink" x="0px" y="0px"
	 viewBox="0 0 1187 406" style="enable-background:new 0 0 1187 406;" xml:space="preserve">
<style type="text/css">
	.st0{fill-rule:evenodd;clip-rule:evenodd;fill:#E0E0E0;}
</style>
<path class="st0" d="M49.8,18.6c-3.3-5.8-1.4-13.1,4.4-16.4C60-1.1,67.3,0.8,70.7,6.6l25.6,44.3c0.3,0.1,0.7,0.1,1,0.2L156,66.9
	c6.4,1.7,10.2,8.3,8.5,14.7c-1.7,6.4-8.3,10.2-14.7,8.5L96.7,75.9l-14.2,53.1c-1.7,6.4-8.3,10.2-14.7,8.5
	c-6.4-1.7-10.2-8.3-8.5-14.7L75,63.9c0.1-0.4,0.2-0.7,0.3-1.1L49.8,18.6z M818.3,116v177h31.6v-63c0-11.1,2.9-19.8,8.6-26.1
	c5.9-6.2,13.3-9.3,22.2-9.3c9,0,15.6,2.8,19.7,8.4c4.3,5.6,6.4,13.6,6.4,24.1V293h31.3v-68.9c0-18.4-4.2-32.3-12.6-41.8
	c-8.2-9.5-19.9-14.3-35-14.3c-9,0-17.1,2-24.2,5.9c-6.9,3.8-12.4,9-16.5,15.7V116H818.3z M417.5,284.9c12.2,7.4,26.4,11.1,42.7,11.1
	c13,0,23.7-2.2,32.1-6.6c8.4-4.4,15.4-10.7,21-18.9l2.5,22.6h29.1v-94.7h-75.5V222H513c-1.6,13.8-6.5,24.9-14.6,33.4
	c-7.9,8.4-19.7,12.5-35.3,12.5c-16,0-28.6-5.2-38-15.5c-9.2-10.5-13.8-25.2-13.8-44.3s4.7-33.9,14.1-44.8c9.4-11,22.7-16.5,40-16.5
	c10.9,0,19.7,2.3,26.6,6.9c6.9,4.4,11.7,10.7,14.3,18.7h35.3c-3.9-17-12.6-30.4-25.9-40.1c-13.3-9.7-30.1-14.5-50.3-14.5
	c-17.8,0-33.1,3.9-46.1,11.6c-12.8,7.5-22.8,18.1-29.8,31.7c-6.9,13.4-10.4,29-10.4,46.7c0,17.5,3.4,33,10.1,46.2
	C395.9,267.3,405.3,277.6,417.5,284.9z M591,291.1c6.7,3.3,15.4,4.9,25.9,4.9c10.2,0,18.5-2.1,24.9-6.4c6.6-4.3,11.7-9.7,15.3-16.2
	l3,19.7H687v-75c0-15.9-5-28.2-15-36.9c-10-8.7-23.8-13-41.2-13c-10.2,0-19.4,1.8-27.6,5.4c-8.2,3.4-15,8.4-20.2,15
	c-5.1,6.6-8.1,14.3-8.9,23.1h30.8c1.2-5.9,4.1-10.3,8.9-13.3c4.8-3.1,10.4-4.7,16.8-4.7c7.1,0,13,2,17.8,5.9
	c4.8,3.9,7.2,10.1,7.2,18.4v3h-31.1c-17.8,0-31.1,3.5-40,10.6c-8.9,7-13.3,16.2-13.3,27.5c0,6.7,1.6,12.9,4.9,18.4
	C579.3,283.1,584.3,287.6,591,291.1z M645,262.6c-4.9,5.9-11.9,8.9-21,8.9c-5.9,0-10.7-1.3-14.3-3.9c-3.6-2.6-5.4-6.3-5.4-11.1
	c0-4.4,1.8-8.1,5.4-11.1c3.6-3.1,9.6-4.7,18-4.7h26.9C653.3,249.4,650.1,256.7,645,262.6z M768.9,293c-12.8,0-23.1-3.1-30.8-9.3
	c-7.7-6.2-11.6-17.3-11.6-33.2v-53.1h-21v-26.3h21l3.7-32.7h27.9v32.7h33.1v26.3h-33.1v53.4c0,5.9,1.2,10,3.7,12.3
	c2.6,2.1,7.1,3.2,13.3,3.2h15.3V293H768.9z M1024.8,296c-12.3,0-23.3-2.6-32.8-7.9c-9.5-5.2-17-12.6-22.4-22.1
	c-5.4-9.5-8.1-20.5-8.1-33c0-12.6,2.6-23.9,7.9-33.7c5.4-9.8,12.8-17.5,22.2-22.9c9.5-5.6,20.7-8.4,33.6-8.4c12,0,22.6,2.6,31.8,7.9
	s16.4,12.5,21.5,21.6c5.3,9,7.9,19.1,7.9,30.2c0,1.8-0.1,3.7-0.2,5.7c0,2-0.1,4-0.2,6.1h-93c0.7,9.5,3.9,17,9.9,22.4
	c6.1,5.4,13.4,8.1,22,8.1c6.4,0,11.8-1.4,16-4.2c4.4-3,7.7-6.7,9.9-11.3h32.1c-2.3,7.7-6.2,14.8-11.6,21.1
	c-5.3,6.2-11.8,11.1-19.7,14.8C1043.5,294.2,1034.7,296,1024.8,296z M1025,193.7c-7.7,0-14.6,2.2-20.5,6.6
	c-5.9,4.3-9.7,10.8-11.3,19.7h60.9c-0.5-8-3.5-14.4-8.9-19.2C1039.8,196.1,1033.1,193.7,1025,193.7z M1110.8,171.1v122h31.6v-55.6
	c0-9.3,1.5-16.6,4.4-21.9c3.1-5.2,7.4-8.9,12.8-11.1c5.4-2.1,11.6-3.2,18.5-3.2h8.9v-33.2c-10.4,0-19.4,2.4-27.1,7.1
	c-7.6,4.6-13.6,10.8-18,18.7l-3-22.9H1110.8z M174.5,210.7c23.2-13.4,31.1-43.1,17.8-66.3c-13.4-23.2-43.1-31.2-66.3-17.8
	c-23.2,13.4-31.1,43.1-17.8,66.3C121.6,216.2,151.3,224.1,174.5,210.7z M162,189.5c11.5-6.6,15.4-21.3,8.8-32.8
	c-6.6-11.5-21.3-15.4-32.8-8.8c-11.5,6.6-15.4,21.3-8.8,32.8C135.8,192.2,150.5,196.1,162,189.5z M91.4,202.9
	c13.4,23.2,5.4,52.9-17.8,66.3c-23.2,13.4-52.9,5.4-66.3-17.8S2,198.5,25.2,185.1C48.4,171.7,78,179.7,91.4,202.9z M69.7,214.7
	c6.6,11.5,2.7,26.2-8.8,32.8s-26.2,2.7-32.8-8.8c-6.6-11.5-2.7-26.2,8.8-32.8C48.4,199.3,63.1,203.2,69.7,214.7z M182.9,334.3
	c23.2-13.4,31.1-43.1,17.8-66.3c-13.4-23.2-43.1-31.2-66.3-17.8c-23.2,13.4-31.1,43.1-17.8,66.3C130,339.7,159.7,347.7,182.9,334.3z
	 M170,312.5c11.5-6.6,15.4-21.3,8.8-32.8c-6.6-11.5-21.3-15.4-32.8-8.8c-11.5,6.6-15.4,21.3-8.8,32.8
	C143.8,315.2,158.5,319.1,170,312.5z M301.8,332.8c13.4,23.2,5.4,52.9-17.8,66.3c-23.2,13.4-52.9,5.4-66.3-17.8
	c-13.4-23.2-5.4-52.9,17.8-66.3C258.7,301.6,288.4,309.6,301.8,332.8z M280.2,344.8c6.6,11.5,2.7,26.2-8.8,32.8
	c-11.5,6.6-26.2,2.7-32.8-8.8c-6.6-11.5-2.7-26.2,8.8-32.8C258.9,329.4,273.6,333.3,280.2,344.8z M284.1,275.9
	c23.2-13.4,31.1-43.1,17.8-66.3c-13.4-23.2-43.1-31.2-66.3-17.8s-31.1,43.1-17.8,66.3C231.2,281.3,260.9,289.3,284.1,275.9z
	 M272,254.5c11.5-6.6,15.4-21.3,8.8-32.8c-6.6-11.5-21.3-15.4-32.8-8.8c-11.5,6.6-15.4,21.3-8.8,32.8
	C245.8,257.2,260.5,261.1,272,254.5z M293.4,86.1c13.4,23.2,5.4,52.9-17.8,66.3s-52.9,5.4-66.3-17.8c-13.4-23.2-5.4-52.9,17.8-66.3
	S280,62.8,293.4,86.1z M271.7,97.7c6.6,11.5,2.7,26.2-8.8,32.8c-11.5,6.6-26.2,2.7-32.8-8.8s-2.7-26.2,8.8-32.8
	C250.4,82.3,265.1,86.2,271.7,97.7z"/>
</svg>
