# Blender 3.2.2
# www.blender.org
mtllib whiteboard.mtl
o Whiteboard
v -0.398896 -0.890316 1.839024
v 0.486530 1.180863 1.839024
v -0.398896 -0.890316 -1.807523
v 0.486530 1.180863 -1.807523
v -0.457609 -0.732046 1.729456
v 0.339677 1.097612 1.729456
v -0.457609 -0.732046 -1.697955
v 0.339677 1.097612 -1.697955
v -0.501679 -0.852806 -1.807523
v -0.501679 -0.852806 1.839024
v 0.406570 1.072386 -1.695539
v -0.390716 -0.757272 -1.695539
v -0.390716 -0.757272 1.731873
v 0.406570 1.072386 1.731873
v -0.046911 -2.151497 1.827361
v -0.046911 -1.751497 1.827361
v -0.046911 -2.151497 -1.792666
v -0.046911 -1.751497 -1.792666
v 0.048337 -2.151497 1.827361
v 0.048337 -1.751497 1.827361
v 0.048337 -2.151497 -1.792666
v 0.048337 -1.751497 -1.792666
v -0.046911 -2.151497 -1.640713
v -0.046911 -2.151497 1.675409
v -0.046911 -1.751497 1.675409
v -0.046911 -1.751497 -1.640713
v 0.048337 -2.151497 1.675409
v 0.048337 -2.151497 -1.640713
v 0.048337 -1.751497 -1.640713
v 0.048337 -1.751497 1.675409
v -0.046911 0.019911 -1.640713
v 0.048337 0.019911 1.675409
v -0.046911 0.019911 1.675409
v 0.048337 0.019911 -1.640713
v -0.046911 -2.334845 1.675409
v -0.046911 -2.334845 1.827361
v 0.048337 -2.334845 -1.792666
v -0.046911 -2.334845 -1.792666
v 0.048337 -2.334845 -1.640713
v 0.048337 -2.334845 1.827361
v -0.046911 -2.334845 -1.640713
v 0.048337 -2.334845 1.675409
v -0.423360 -0.957352 -1.807523
v -0.423360 -0.957352 1.839024
v -0.526143 -0.919843 -1.807523
v -0.526143 -0.919843 1.839024
v -0.653734 -0.797316 1.839024
v -0.653734 -0.797316 -1.807523
v -0.678199 -0.864353 1.839024
v -0.678199 -0.864353 -1.807523
v -0.680103 -0.787693 1.839024
v -0.680103 -0.787693 -1.807523
v -0.704567 -0.854730 1.839024
v -0.704567 -0.854730 -1.807523
v -0.641252 -0.763112 1.839024
v -0.641252 -0.763112 -1.807523
v -0.667621 -0.753490 1.839024
v -0.667621 -0.753490 -1.807523
v -0.046911 0.019911 -1.699501
v -0.046911 0.078947 -1.792666
v 0.048337 0.078947 -1.792666
v 0.048337 0.019911 -1.699501
v 0.048337 0.019911 1.734195
v 0.048337 0.078947 1.827361
v -0.046911 0.078947 1.827361
v -0.046911 0.019911 1.734195
v -0.403128 -2.151497 1.675409
v -0.403128 -2.151497 1.827361
v 0.404556 -2.151497 -1.640713
v 0.404556 -2.151497 -1.792666
v -0.403128 -2.151497 -1.792666
v -0.403128 -2.151497 -1.640713
v 0.404556 -2.151497 1.827361
v 0.404556 -2.151497 1.675409
v -0.403128 -2.334845 1.675409
v -0.403128 -2.334845 1.827361
v 0.404556 -2.334845 -1.640713
v 0.404556 -2.334845 -1.792666
v -0.403128 -2.334845 -1.792666
v -0.403128 -2.334845 -1.640713
v 0.404556 -2.334845 1.827361
v 0.404556 -2.334845 1.675409
v -0.468873 -0.749601 -1.066621
v -0.507502 -0.851280 -1.066616
v -0.468839 -0.749608 -0.722470
v -0.507468 -0.851288 -0.722465
v -0.570553 -0.710972 -1.066586
v -0.609181 -0.812652 -1.066581
v -0.570519 -0.710979 -0.722435
v -0.609147 -0.812659 -0.722430
v -0.518814 -0.786498 -1.466085
v -0.518814 -0.793239 -1.238556
v -0.499962 -0.793359 -1.466085
v -0.504430 -0.798474 -1.238556
v -0.489931 -0.810733 -1.466085
v -0.496776 -0.811731 -1.238556
v -0.493415 -0.830490 -1.466085
v -0.499434 -0.826805 -1.238556
v -0.508783 -0.843385 -1.466085
v -0.511160 -0.836645 -1.238556
v -0.528844 -0.843385 -1.466085
v -0.526467 -0.836645 -1.238556
v -0.544213 -0.830490 -1.466085
v -0.538193 -0.826805 -1.238556
v -0.547696 -0.810733 -1.466085
v -0.540852 -0.811731 -1.238556
v -0.537665 -0.793359 -1.466085
v -0.533198 -0.798474 -1.238556
v -0.518814 -0.788067 -1.251123
v -0.501002 -0.794550 -1.251123
v -0.491524 -0.810965 -1.251123
v -0.494816 -0.829632 -1.251123
v -0.509336 -0.841816 -1.251123
v -0.528291 -0.841816 -1.251123
v -0.542812 -0.829632 -1.251123
v -0.546103 -0.810965 -1.251123
v -0.536625 -0.794550 -1.251123
v -0.499962 -0.793359 -1.263061
v -0.489931 -0.810733 -1.263061
v -0.493415 -0.830490 -1.263061
v -0.508783 -0.843385 -1.263061
v -0.528844 -0.843385 -1.263061
v -0.544213 -0.830490 -1.263061
v -0.547696 -0.810733 -1.263061
v -0.537665 -0.793359 -1.263061
v -0.518814 -0.786498 -1.263061
v -0.500135 -0.793557 -1.158615
v -0.518814 -0.786759 -1.158615
v -0.490196 -0.810772 -1.158615
v -0.493648 -0.830347 -1.158615
v -0.508875 -0.843124 -1.158615
v -0.528752 -0.843124 -1.158615
v -0.543979 -0.830347 -1.158615
v -0.547431 -0.810772 -1.158615
v -0.537492 -0.793557 -1.158615
v 0.391892 1.215400 -1.807523
v 0.375640 1.196158 -1.787368
v 0.375630 1.199385 -1.807523
v 0.375640 1.196158 1.818868
v 0.391892 1.215400 1.839024
v 0.375630 1.199385 1.839024
vn 0.9195 -0.3931 -0.0000
vn -0.9394 0.3428 -0.0000
vn -0.3529 -0.9357 -0.0000
vn 0.9394 -0.3428 -0.0000
vn -0.0000 -0.0000 -1.0000
vn -0.9182 0.3961 0.0001
vn -0.9182 0.3961 -0.0001
vn -0.0000 -0.0000 1.0000
vn -0.9167 0.3995 -0.0000
vn -0.0310 0.0135 0.9994
vn 0.0310 -0.0135 -0.9994
vn 0.3529 0.9357 -0.0000
vn 1.0000 -0.0000 -0.0000
vn -1.0000 -0.0000 -0.0000
vn -0.0000 -1.0000 -0.0000
vn -0.0000 1.0000 -0.0000
vn -0.3428 -0.9394 -0.0000
vn 0.3428 0.9394 -0.0000
vn -0.0000 -0.8447 -0.5353
vn -0.0000 -0.8447 0.5353
vn 0.9348 -0.3551 -0.0001
vn 0.0003 -0.0001 1.0000
vn -0.9348 0.3551 0.0001
vn -0.0003 0.0001 -1.0000
vn 0.3551 0.9348 -0.0000
vn -0.3551 -0.9348 -0.0000
vn -0.3190 -0.8764 -0.3607
vn -0.8062 -0.4655 -0.3652
vn -0.9141 0.1612 -0.3722
vn -0.5950 0.7092 -0.3782
vn -0.0000 0.9248 -0.3806
vn 0.5950 0.7092 -0.3782
vn 0.9141 0.1612 -0.3721
vn -0.8634 -0.4985 0.0770
vn 0.8062 -0.4655 -0.3652
vn 0.3190 -0.8764 -0.3607
vn 0.3394 -0.9326 -0.1226
vn 0.8593 -0.4961 -0.1243
vn 0.9768 0.1722 -0.1270
vn 0.6374 0.7596 -0.1294
vn -0.0000 0.9915 -0.1303
vn -0.6374 0.7596 -0.1294
vn -0.9768 0.1722 -0.1270
vn -0.8593 -0.4961 -0.1243
vn -0.3394 -0.9326 -0.1226
vn -0.3420 -0.9397 -0.0000
vn -0.8660 -0.5000 -0.0000
vn -0.9848 0.1737 -0.0000
vn -0.6428 0.7660 -0.0000
vn 0.6428 0.7660 -0.0000
vn 0.9848 0.1737 -0.0000
vn 0.8660 -0.5000 -0.0000
vn 0.3420 -0.9397 -0.0000
vn 0.3410 -0.9370 0.0759
vn 0.8634 -0.4985 0.0770
vn 0.9817 0.1731 0.0787
vn 0.6407 0.7636 0.0802
vn -0.0000 0.9967 0.0808
vn -0.6407 0.7636 0.0802
vn -0.3410 -0.9370 0.0759
vn -0.9818 0.1731 0.0787
vn -0.6971 0.7079 0.1137
vn -0.6971 0.7079 -0.1137
vn -0.7640 0.6452 -0.0000
vt 0.375000 0.000000
vt 0.375000 1.000000
vt 0.625000 0.000000
vt 0.625000 1.000000
vt 0.875000 0.750000
vt 0.375000 0.250000
vt 0.625000 0.250000
vt 0.875000 0.500000
vt 0.385434 0.739566
vt 0.614566 0.739566
vt 0.385434 0.510434
vt 0.614566 0.510434
vt 0.375000 0.500000
vt 0.375000 0.750000
vt 0.614566 0.510434
vt 0.385434 0.510434
vt 0.385434 0.739566
vt 0.614566 0.739566
vt 0.375000 0.000000
vt 0.375000 1.000000
vt 0.625000 1.000000
vt 0.625000 0.000000
vt 0.375000 0.250000
vt 0.625000 0.250000
vt 0.375000 0.750000
vt 0.625000 0.750000
vt 0.375000 0.500000
vt 0.625000 0.500000
vt 0.125000 0.583333
vt 0.375000 0.166667
vt 0.375000 0.083333
vt 0.125000 0.666667
vt 0.875000 0.666667
vt 0.625000 0.083333
vt 0.875000 0.583333
vt 0.625000 0.166667
vt 0.375000 0.666667
vt 0.375000 0.583333
vt 0.625000 0.583333
vt 0.625000 0.666667
vt 0.875000 0.583333
vt 0.625000 0.166667
vt 0.625000 0.666667
vt 0.875000 0.666667
vt 0.625000 0.083333
vt 0.625000 0.583333
vt 0.125000 0.666667
vt 0.125000 0.750000
vt 0.375000 1.000000
vt 0.375000 0.500000
vt 0.125000 0.500000
vt 0.375000 0.250000
vt 0.375000 0.583333
vt 0.375000 0.750000
vt 0.125000 0.583333
vt 0.375000 0.666667
vt 0.125000 0.500000
vt 0.375000 0.250000
vt 0.375000 0.000000
vt 0.125000 0.750000
vt 0.375000 1.000000
vt 0.375000 0.500000
vt 0.375000 0.750000
vt 0.375000 0.750000
vt 0.375000 0.500000
vt 0.375000 0.750000
vt 0.375000 0.500000
vt 0.375000 0.750000
vt 0.375000 0.500000
vt 0.375000 0.750000
vt 0.375000 0.500000
vt 0.375000 0.750000
vt 0.375000 0.500000
vt 0.375000 0.750000
vt 0.375000 0.500000
vt 0.875000 0.538787
vt 0.625000 0.250000
vt 0.625000 0.211213
vt 0.625000 0.250000
vt 0.625000 0.500000
vt 0.625000 0.538787
vt 0.625000 0.500000
vt 0.625000 0.711213
vt 0.625000 0.750000
vt 0.625000 0.750000
vt 0.625000 0.000000
vt 0.625000 1.000000
vt 0.875000 0.711213
vt 0.625000 0.038787
vt 0.625000 1.000000
vt 0.375000 0.083333
vt 0.125000 0.666667
vt 0.375000 0.000000
vt 0.375000 1.000000
vt 0.375000 0.583333
vt 0.375000 0.500000
vt 0.375000 0.250000
vt 0.125000 0.583333
vt 0.375000 0.166667
vt 0.375000 0.750000
vt 0.375000 0.666667
vt 0.375000 0.083333
vt 0.125000 0.666667
vt 0.375000 0.000000
vt 0.125000 0.750000
vt 0.375000 1.000000
vt 0.375000 0.583333
vt 0.375000 0.500000
vt 0.125000 0.500000
vt 0.375000 0.250000
vt 0.375000 0.166667
vt 0.125000 0.583333
vt 0.375000 0.750000
vt 0.375000 0.666667
vt 0.375000 0.000000
vt 0.375000 1.000000
vt 0.125000 0.750000
vt 0.625000 0.000000
vt 0.625000 1.000000
vt 0.875000 0.750000
vt 0.375000 0.250000
vt 0.125000 0.500000
vt 0.625000 0.250000
vt 0.875000 0.500000
vt 0.375000 0.750000
vt 0.625000 0.750000
vt 0.375000 0.500000
vt 0.625000 0.500000
vt 0.250000 0.490001
vt 1.000000 0.500000
vt 0.000000 0.500000
vt 0.000000 1.000000
vt 1.000000 1.000000
vt 0.404269 0.433852
vt 0.888889 0.500000
vt 0.888889 1.000000
vt 0.486355 0.291677
vt 0.777778 0.500000
vt 0.777778 1.000000
vt 0.457848 0.130002
vt 0.666667 0.500000
vt 0.666667 1.000000
vt 0.332084 0.024476
vt 0.555556 0.500000
vt 0.555556 1.000000
vt 0.167916 0.024476
vt 0.444444 0.500000
vt 0.444444 1.000000
vt 0.042155 0.130002
vt 0.333333 0.500000
vt 0.333333 1.000000
vt 0.013645 0.291677
vt 0.222222 0.500000
vt 0.222222 1.000000
vt 0.095734 0.433852
vt 0.111111 0.500000
vt 0.111111 1.000000
vt 0.000000 0.955674
vt 1.000000 0.955674
vt 0.888889 0.955674
vt 0.777778 0.955674
vt 0.666667 0.955674
vt 0.555556 0.955674
vt 0.444444 0.955674
vt 0.333333 0.955674
vt 0.222222 0.955674
vt 0.111111 0.955674
vt 0.888889 0.934092
vt 0.777778 0.934092
vt 0.666667 0.934092
vt 0.555556 0.934092
vt 0.444444 0.934092
vt 0.333333 0.934092
vt 0.222222 0.934092
vt 0.111111 0.934092
vt 1.000000 0.934092
vt 0.000000 0.934092
vt 0.904269 0.433852
vt 0.888889 1.000000
vt 0.750000 0.490001
vt 0.000000 1.000000
vt 1.000000 1.000000
vt 0.986355 0.291677
vt 0.777778 1.000000
vt 0.957848 0.130002
vt 0.666667 1.000000
vt 0.832084 0.024476
vt 0.555556 1.000000
vt 0.667916 0.024476
vt 0.444444 1.000000
vt 0.542155 0.130002
vt 0.333333 1.000000
vt 0.513645 0.291677
vt 0.222222 1.000000
vt 0.595734 0.433852
vt 0.111111 1.000000
vt 0.625000 0.480190
vt 0.644810 0.500000
vt 0.622372 0.497076
vt 0.623081 0.501919
vt 0.622708 0.500000
vt 0.622372 0.752924
vt 0.623081 0.748081
vt 0.625000 0.769810
vt 0.644810 0.750000
vt 0.622708 0.750000
s 0
usemtl Material.002
f 1/1/1 3/6/1 4/7/1 2/3/1
f 6/10/2 139/203/2 137/200/2 8/12/2
f 8/12/3 11/15/3 14/18/3 6/10/3
f 1/1/4 44/59/4 43/58/4 3/6/4
f 3/6/5 9/13/5 138/201/5 136/197/5 4/7/5
f 5/9/6 10/14/6 141/206/6 139/203/6 6/10/6
f 7/11/2 9/13/2 10/14/2 5/9/2
f 8/12/7 137/200/7 138/201/7 9/13/7 7/11/7
f 10/14/8 1/2/8 2/4/8 140/204/8 141/206/8
f 7/11/10 12/16/10 11/15/10 8/12/10
f 6/10/11 14/18/11 13/17/11 5/9/11
f 5/9/12 13/17/12 12/16/12 7/11/12
f 23/30/13 17/23/13 18/24/13 26/36/13
f 17/23/8 21/27/8 22/28/8 18/24/8
f 27/37/14 19/25/14 20/26/14 30/40/14
f 19/25/5 15/20/5 16/21/5 20/26/5
f 19/25/5 73/100/5 81/113/5 40/54/5
f 20/26/14 64/85/14 63/83/14 32/43/14 30/40/14
f 26/35/5 31/41/5 34/46/5 29/39/5
f 29/39/15 30/40/15 25/33/15 26/35/15
f 21/27/15 70/96/15 69/95/15 28/38/15
f 23/29/16 24/32/16 27/37/16 28/38/16
f 21/27/14 28/38/14 29/39/14 22/28/14
f 28/38/14 27/37/14 30/40/14 29/39/14
f 15/19/13 24/31/13 25/34/13 16/22/13
f 24/31/13 23/30/13 26/36/13 25/34/13
f 16/21/5 65/87/5 64/85/5 20/26/5
f 22/28/8 61/80/8 60/79/8 18/24/8
f 29/39/14 34/46/14 62/81/14 61/80/14 22/28/14
f 30/40/8 32/43/8 33/44/8 25/33/8
f 32/43/15 63/83/15 66/88/15 33/44/15
f 62/81/15 34/46/15 31/41/15 59/76/15
f 25/34/13 33/45/13 66/89/13 65/86/13 16/22/13
f 35/47/16 36/48/16 40/54/16 42/56/16
f 38/51/16 41/55/16 39/53/16 37/50/16
f 24/32/8 35/47/8 42/56/8 27/37/8
f 39/53/16 77/107/16 78/108/16 37/50/16
f 19/25/5 40/54/5 36/49/5 15/20/5
f 17/23/8 38/52/8 37/50/8 21/27/8
f 28/38/5 39/53/5 41/55/5 23/29/5
f 37/50/8 78/108/8 70/96/8 21/27/8
f 43/57/17 44/60/17 46/63/17 45/62/17
f 46/63/17 49/66/17 50/67/17 45/62/17
f 10/14/8 46/63/8 44/61/8 1/2/8
f 3/6/5 43/58/5 45/62/5 9/13/5
f 50/67/5 54/71/5 52/69/5 48/65/5
f 9/13/18 48/65/18 47/64/18 10/14/18
f 45/62/5 50/67/5 48/65/5 9/13/5
f 10/14/8 47/64/8 49/66/8 46/63/8
f 52/69/2 54/71/2 53/70/2 51/68/2
f 49/66/17 53/70/17 54/71/17 50/67/17
f 47/64/8 51/68/8 53/70/8 49/66/8
f 52/69/5 58/75/5 56/73/5 48/65/5
f 56/73/18 58/75/18 57/74/18 55/72/18
f 51/68/2 57/74/2 58/75/2 52/69/2
f 47/64/8 55/72/8 57/74/8 51/68/8
f 48/65/4 56/73/4 55/72/4 47/64/4
f 59/77/19 60/79/19 61/80/19 62/82/19
f 63/84/20 64/85/20 65/87/20 66/90/20
f 18/24/13 60/79/13 59/78/13 31/42/13 26/36/13
f 74/101/14 82/114/14 81/113/14 73/100/14
f 70/96/14 78/108/14 77/107/14 69/95/14
f 72/99/13 80/111/13 79/110/13 71/97/13
f 68/93/13 76/104/13 75/102/13 67/91/13
f 15/19/15 68/93/15 67/91/15 24/31/15
f 42/56/8 82/114/8 74/101/8 27/37/8
f 38/51/16 79/109/16 80/112/16 41/55/16
f 27/37/15 74/101/15 73/100/15 19/25/15
f 24/32/8 67/92/8 75/103/8 35/47/8
f 40/54/16 81/113/16 82/114/16 42/56/16
f 17/23/8 71/97/8 79/110/8 38/52/8
f 41/55/5 80/112/5 72/98/5 23/29/5
f 35/47/16 75/103/16 76/105/16 36/48/16
f 36/49/5 76/106/5 68/94/5 15/20/5
f 23/30/15 72/99/15 71/97/15 17/23/15
f 28/38/5 69/95/5 77/107/5 39/53/5
f 136/197/62 138/201/62 137/199/62
f 139/202/63 141/206/63 140/204/63
f 136/198/64 137/200/64 139/203/64 140/205/64
f 136/198/18 140/205/18 2/5/18 4/8/18
usemtl Material.012
f 12/16/9 13/17/9 14/18/9 11/15/9
f 109/159/27 110/160/27 94/136/27 92/133/27
f 110/160/28 111/161/28 96/139/28 94/136/28
f 111/161/29 112/162/29 98/142/29 96/139/29
f 112/162/30 113/163/30 100/145/30 98/142/30
f 113/163/31 114/164/31 102/148/31 100/145/31
f 114/164/32 115/165/32 104/151/32 102/148/32
f 115/165/33 116/166/33 106/154/33 104/151/33
f 116/166/35 117/167/35 108/157/35 106/154/35
f 117/167/36 109/158/36 92/132/36 108/157/36
f 91/129/8 107/155/8 105/152/8 103/149/8 101/146/8 99/143/8 97/140/8 95/137/8 93/134/8
f 125/175/37 126/177/37 109/158/37 117/167/37
f 124/174/38 125/175/38 117/167/38 116/166/38
f 123/173/39 124/174/39 116/166/39 115/165/39
f 122/172/40 123/173/40 115/165/40 114/164/40
f 121/171/41 122/172/41 114/164/41 113/163/41
f 120/170/42 121/171/42 113/163/42 112/162/42
f 119/169/43 120/170/43 112/162/43 111/161/43
f 118/168/44 119/169/44 111/161/44 110/160/44
f 126/176/45 118/168/45 110/160/45 109/159/45
f 91/130/46 93/135/46 118/168/46 126/176/46
f 93/135/47 95/138/47 119/169/47 118/168/47
f 95/138/48 97/141/48 120/170/48 119/169/48
f 97/141/49 99/144/49 121/171/49 120/170/49
f 99/144/16 101/147/16 122/172/16 121/171/16
f 101/147/50 103/150/50 123/173/50 122/172/50
f 103/150/51 105/153/51 124/174/51 123/173/51
f 105/153/52 107/156/52 125/175/52 124/174/52
f 107/156/53 91/131/53 126/177/53 125/175/53
usemtl Material.005
f 83/115/21 85/121/21 86/123/21 84/118/21
f 85/121/22 89/127/22 90/128/22 86/123/22
f 89/127/23 87/125/23 88/126/23 90/128/23
f 87/125/24 83/116/24 84/119/24 88/126/24
f 85/122/25 83/117/25 87/125/25 89/127/25
f 90/128/26 88/126/26 84/120/26 86/124/26
f 96/139/34 129/184/34 127/179/34 94/136/34
f 127/178/5 129/183/5 130/185/5 131/187/5 132/189/5 133/191/5 134/193/5 135/195/5 128/180/5
f 92/132/54 128/181/54 135/196/54 108/157/54
f 108/157/55 135/196/55 134/194/55 106/154/55
f 106/154/56 134/194/56 133/192/56 104/151/56
f 104/151/57 133/192/57 132/190/57 102/148/57
f 102/148/58 132/190/58 131/188/58 100/145/58
f 100/145/59 131/188/59 130/186/59 98/142/59
f 94/136/60 127/179/60 128/182/60 92/133/60
f 98/142/61 130/186/61 129/184/61 96/139/61
