<?xml version="1.0" encoding="utf-8"?>
<!-- Generator: Adobe Illustrator 26.0.2, SVG Export Plug-In . SVG Version: 6.00 Build 0)  -->
<svg version="1.1" id="Layer_1" xmlns="http://www.w3.org/2000/svg" xmlns:xlink="http://www.w3.org/1999/xlink" x="0px" y="0px"
	 viewBox="0 0 500 500" style="enable-background:new 0 0 500 500;" xml:space="preserve">
<style type="text/css">
	.st0{fill:#222034;}
</style>
<g id="Logo">
	<path class="st0" d="M245.3,261.7c-2.1,1.2-2.8,3.9-1.6,6.1c1.2,2.1,3.9,2.8,6.1,1.6s2.8-3.9,1.6-6.1
		C250.1,261.2,247.4,260.4,245.3,261.7z"/>
	<path class="st0" d="M248.2,246.6c2.1-1.2,2.8-3.9,1.6-6.1c-1.2-2.1-3.9-2.8-6.1-1.6c-2.1,1.2-2.8,3.9-1.6,6.1
		S246.1,247.9,248.2,246.6z"/>
	<path class="st0" d="M266.9,235.7c2.1-1.2,2.8-3.9,1.6-6.1c-1.2-2.1-3.9-2.8-6.1-1.6c-2.1,1.2-2.8,3.9-1.6,6.1
		C262.1,236.2,264.8,237,266.9,235.7z"/>
	<path class="st0" d="M225.1,249.7c-2.1,1.2-2.8,3.9-1.6,6.1s3.9,2.8,6.1,1.6c2.1-1.2,2.8-3.9,1.6-6.1
		C230,249.2,227.2,248.4,225.1,249.7z"/>
	<path class="st0" d="M264.1,251c-2.1,1.2-2.8,3.9-1.6,6.1c1.2,2.1,3.9,2.8,6.1,1.6s2.8-3.9,1.6-6.1
		C269,250.5,266.2,249.7,264.1,251z"/>
	<path class="st0" d="M264,273.7c-2.1,1.2-2.8,3.9-1.6,6.1c1.2,2.1,3.9,2.8,6.1,1.6s2.8-3.9,1.6-6.1
		C268.9,273.2,266.1,272.5,264,273.7z"/>
	<path class="st0" d="M250,196c-29.8,0-54,24.2-54,54s24.2,54,54,54s54-24.2,54-54S279.8,196,250,196z M228.3,212.1
		c1.1-0.6,2.4-0.2,3,0.8l4.7,8.2c0.1,0,0.1,0,0.2,0l10.9,2.9c1.2,0.3,1.9,1.5,1.6,2.7c-0.3,1.2-1.5,1.9-2.7,1.6l-9.8-2.6l-2.6,9.8
		c-0.3,1.2-1.5,1.9-2.7,1.6c-1.2-0.3-1.9-1.5-1.6-2.7l2.9-10.9c0-0.1,0-0.1,0.1-0.2l-4.7-8.2C226.9,214,227.3,212.7,228.3,212.1z
		 M231.9,261.3c-4.3,2.5-9.8,1-12.2-3.3c-2.5-4.3-1-9.8,3.3-12.2c4.3-2.5,9.8-1,12.2,3.3C237.7,253.4,236.2,258.9,231.9,261.3z
		 M241.6,235c4.3-2.5,9.8-1,12.2,3.3c2.5,4.3,1,9.8-3.3,12.2c-4.3,2.5-9.8,1-12.2-3.3S237.3,237.5,241.6,235z M252.1,273.4
		c-4.3,2.5-9.8,1-12.2-3.3s-1-9.8,3.3-12.2c4.3-2.5,9.8-1,12.2,3.3C257.8,265.4,256.4,270.9,252.1,273.4z M260.3,224.3
		c4.3-2.5,9.8-1,12.2,3.3c2.5,4.3,1,9.8-3.3,12.2c-4.3,2.5-9.8,1-12.2-3.3C254.5,232.2,256,226.7,260.3,224.3z M270.8,285.3
		c-4.3,2.5-9.8,1-12.2-3.3c-2.5-4.3-1-9.8,3.3-12.2c4.3-2.5,9.8-1,12.2,3.3C276.5,277.4,275.1,282.8,270.8,285.3z M270.8,262.6
		c-4.3,2.5-9.8,1-12.2-3.3s-1-9.8,3.3-12.2c4.3-2.5,9.8-1,12.2,3.3C276.5,254.6,275.1,260.1,270.8,262.6z"/>
</g>
</svg>
