<svg width="500" height="500" viewBox="0 0 500 500" fill="none" xmlns="http://www.w3.org/2000/svg">
<rect width="500" height="500" fill="white"/>
<path fill-rule="evenodd" clip-rule="evenodd" d="M132.881 65.6588C129.627 60.0287 131.558 52.8295 137.196 49.579C142.834 46.3285 150.042 48.2575 153.297 53.8876L178.328 97.1841C178.654 97.2426 178.98 97.3152 179.305 97.4023L236.905 112.819C243.193 114.502 246.925 120.958 245.24 127.238C243.556 133.518 237.092 137.244 230.804 135.561L178.798 121.641L164.877 173.54C163.192 179.82 156.729 183.546 150.441 181.863C144.152 180.18 140.42 173.725 142.105 167.445L157.535 109.921C157.631 109.565 157.742 109.217 157.867 108.877L132.881 65.6588ZM254.97 253.514C277.686 240.416 285.468 211.406 272.351 188.717C259.234 166.028 230.185 158.253 207.469 171.351C184.752 184.448 176.97 213.459 190.087 236.148C203.204 258.837 232.253 266.612 254.97 253.514ZM242.686 232.722C253.925 226.242 257.775 211.889 251.285 200.664C244.796 189.439 230.424 185.592 219.185 192.072C207.946 198.552 204.096 212.905 210.586 224.13C217.075 235.356 231.447 239.202 242.686 232.722ZM173.636 245.842C186.753 268.531 178.971 297.541 156.255 310.639C133.538 323.737 104.49 315.962 91.3725 293.273C78.2555 270.584 86.0374 241.573 108.754 228.476C131.47 215.378 160.519 223.153 173.636 245.842ZM152.386 257.381C158.875 268.607 155.025 282.959 143.786 289.44C132.547 295.92 118.176 292.073 111.686 280.848C105.197 269.623 109.047 255.27 120.286 248.79C131.524 242.31 145.896 246.156 152.386 257.381ZM263.169 374.33C285.886 361.233 293.668 332.222 280.551 309.533C267.434 286.844 238.385 279.069 215.668 292.167C192.952 305.265 185.17 334.275 198.287 356.964C211.404 379.653 240.453 387.428 263.169 374.33ZM250.519 353.002C261.758 346.522 265.608 332.169 259.119 320.944C252.629 309.719 238.257 305.872 227.019 312.352C215.78 318.832 211.93 333.185 218.419 344.41C224.909 355.635 239.28 359.482 250.519 353.002ZM379.599 372.841C392.716 395.53 384.934 424.54 362.218 437.638C339.501 450.736 310.452 442.961 297.335 420.272C284.218 397.583 292 368.573 314.717 355.475C337.433 342.377 366.482 350.152 379.599 372.841ZM358.508 384.638C364.997 395.863 361.147 410.216 349.908 416.696C338.669 423.176 324.298 419.329 317.808 408.104C311.319 396.879 315.169 382.526 326.408 376.046C337.646 369.566 352.018 373.412 358.508 384.638ZM362.246 317.205C384.963 304.107 392.744 275.097 379.627 252.408C366.51 229.719 337.462 221.944 314.745 235.042C292.029 248.14 284.247 277.15 297.364 299.839C310.481 322.528 339.53 330.303 362.246 317.205ZM350.398 296.285C361.637 289.805 365.487 275.452 358.997 264.227C352.508 253.001 338.136 249.155 326.897 255.635C315.658 262.115 311.808 276.468 318.298 287.693C324.787 298.918 339.159 302.765 350.398 296.285ZM371.428 131.592C384.545 154.28 376.763 183.291 354.047 196.389C331.33 209.487 302.281 201.712 289.164 179.023C276.047 156.334 283.829 127.323 306.546 114.226C329.262 101.128 358.311 108.903 371.428 131.592ZM350.185 142.969C356.674 154.194 352.824 168.547 341.585 175.027C330.346 181.507 315.974 177.66 309.485 166.435C302.995 155.21 306.845 140.857 318.084 134.377C329.323 127.897 343.695 131.744 350.185 142.969Z" fill="#4358D8"/>
</svg>
