<?xml version="1.0" encoding="utf-8"?>
<!-- Generator: Adobe Illustrator 26.0.2, SVG Export Plug-In . SVG Version: 6.00 Build 0)  -->
<svg version="1.1" id="Layer_1" shape-rendering="crispEdges"
	 xmlns="http://www.w3.org/2000/svg" xmlns:xlink="http://www.w3.org/1999/xlink" x="0px" y="0px" viewBox="0 0 32 64"
	 style="enable-background:new 0 0 32 64;" xml:space="preserve">
<style type="text/css">
	.st0{fill:#222032;}
	.st1{fill:#F0B829;}
	.st2{fill:#DF7126;}
	.st3{fill:#AC3232;}
	.st4{fill:#6ABE30;}
	.st5{fill:#5F9234;}
	.st6{fill:#4B692F;}
	.st7{fill:#323C39;}
	.st8{fill:#D9A066;}
	.st9{fill:#C4824E;}
	.st10{fill:#45283C;}
	.st11{fill:#663931;}
	.st12{fill:#EEC39A;}
	.st13{fill:#8F563B;}
</style>
<g id="Bird_of_Paradise">
	<rect x="14" y="11" class="st0" width="1" height="1"/>
	<rect x="13" y="12" class="st0" width="1" height="1"/>
	<rect x="14" y="12" class="st1" width="1" height="1"/>
	<rect x="15" y="12" class="st0" width="1" height="1"/>
	<rect x="13" y="13" class="st0" width="1" height="1"/>
	<rect x="14" y="13" class="st1" width="1" height="1"/>
	<rect x="15" y="13" class="st0" width="1" height="1"/>
	<rect x="17" y="13" class="st0" width="1" height="1"/>
	<rect x="13" y="14" class="st0" width="1" height="1"/>
	<rect x="14" y="14" class="st1" width="1" height="1"/>
	<rect x="15" y="14" class="st2" width="1" height="1"/>
	<rect x="16" y="14" class="st0" width="1" height="1"/>
	<rect x="17" y="14" class="st2" width="1" height="1"/>
	<rect x="18" y="14" class="st0" width="1" height="1"/>
	<rect x="11" y="15" class="st0" width="1" height="1"/>
	<rect x="12" y="15" class="st0" width="1" height="1"/>
	<rect x="13" y="15" class="st3" width="1" height="1"/>
	<rect x="14" y="15" class="st1" width="1" height="1"/>
	<rect x="15" y="15" class="st1" width="1" height="1"/>
	<rect x="16" y="15" class="st3" width="1" height="1"/>
	<rect x="17" y="15" class="st2" width="1" height="1"/>
	<rect x="18" y="15" class="st0" width="1" height="1"/>
	<rect x="20" y="15" class="st0" width="1" height="1"/>
	<rect x="21" y="15" class="st0" width="1" height="1"/>
	<rect x="22" y="15" class="st0" width="1" height="1"/>
	<rect x="23" y="15" class="st0" width="1" height="1"/>
	<rect x="11" y="16" class="st0" width="1" height="1"/>
	<rect x="12" y="16" class="st1" width="1" height="1"/>
	<rect x="13" y="16" class="st3" width="1" height="1"/>
	<rect x="14" y="16" class="st2" width="1" height="1"/>
	<rect x="15" y="16" class="st1" width="1" height="1"/>
	<rect x="16" y="16" class="st3" width="1" height="1"/>
	<rect x="17" y="16" class="st2" width="1" height="1"/>
	<rect x="18" y="16" class="st0" width="1" height="1"/>
	<rect x="19" y="16" class="st0" width="1" height="1"/>
	<rect x="20" y="16" class="st4" width="1" height="1"/>
	<rect x="21" y="16" class="st4" width="1" height="1"/>
	<rect x="22" y="16" class="st4" width="1" height="1"/>
	<rect x="23" y="16" class="st5" width="1" height="1"/>
	<rect x="24" y="16" class="st0" width="1" height="1"/>
	<rect x="12" y="17" class="st0" width="1" height="1"/>
	<rect x="13" y="17" class="st1" width="1" height="1"/>
	<rect x="14" y="17" class="st3" width="1" height="1"/>
	<rect x="15" y="17" class="st2" width="1" height="1"/>
	<rect x="16" y="17" class="st2" width="1" height="1"/>
	<rect x="17" y="17" class="st4" width="1" height="1"/>
	<rect x="18" y="17" class="st4" width="1" height="1"/>
	<rect x="19" y="17" class="st4" width="1" height="1"/>
	<rect x="20" y="17" class="st4" width="1" height="1"/>
	<rect x="21" y="17" class="st5" width="1" height="1"/>
	<rect x="22" y="17" class="st5" width="1" height="1"/>
	<rect x="23" y="17" class="st0" width="1" height="1"/>
	<rect x="12" y="18" class="st0" width="1" height="1"/>
	<rect x="13" y="18" class="st1" width="1" height="1"/>
	<rect x="14" y="18" class="st1" width="1" height="1"/>
	<rect x="15" y="18" class="st3" width="1" height="1"/>
	<rect x="16" y="18" class="st4" width="1" height="1"/>
	<rect x="17" y="18" class="st4" width="1" height="1"/>
	<rect x="18" y="18" class="st4" width="1" height="1"/>
	<rect x="19" y="18" class="st4" width="1" height="1"/>
	<rect x="20" y="18" class="st5" width="1" height="1"/>
	<rect x="21" y="18" class="st0" width="1" height="1"/>
	<rect x="22" y="18" class="st0" width="1" height="1"/>
	<rect x="13" y="19" class="st0" width="1" height="1"/>
	<rect x="14" y="19" class="st2" width="1" height="1"/>
	<rect x="15" y="19" class="st4" width="1" height="1"/>
	<rect x="16" y="19" class="st4" width="1" height="1"/>
	<rect x="17" y="19" class="st4" width="1" height="1"/>
	<rect x="18" y="19" class="st4" width="1" height="1"/>
	<rect x="19" y="19" class="st5" width="1" height="1"/>
	<rect x="20" y="19" class="st0" width="1" height="1"/>
	<rect x="14" y="20" class="st0" width="1" height="1"/>
	<rect x="15" y="20" class="st4" width="1" height="1"/>
	<rect x="16" y="20" class="st4" width="1" height="1"/>
	<rect x="17" y="20" class="st4" width="1" height="1"/>
	<rect x="18" y="20" class="st5" width="1" height="1"/>
	<rect x="19" y="20" class="st0" width="1" height="1"/>
	<rect x="14" y="21" class="st0" width="1" height="1"/>
	<rect x="15" y="21" class="st4" width="1" height="1"/>
	<rect x="16" y="21" class="st4" width="1" height="1"/>
	<rect x="17" y="21" class="st5" width="1" height="1"/>
	<rect x="18" y="21" class="st0" width="1" height="1"/>
	<rect x="21" y="21" class="st0" width="1" height="1"/>
	<rect x="22" y="21" class="st0" width="1" height="1"/>
	<rect x="23" y="21" class="st0" width="1" height="1"/>
	<rect x="26" y="21" class="st0" width="1" height="1"/>
	<rect x="27" y="21" class="st0" width="1" height="1"/>
	<rect x="28" y="21" class="st0" width="1" height="1"/>
	<rect x="29" y="21" class="st0" width="1" height="1"/>
	<rect x="3" y="22" class="st0" width="1" height="1"/>
	<rect x="4" y="22" class="st0" width="1" height="1"/>
	<rect x="5" y="22" class="st0" width="1" height="1"/>
	<rect x="6" y="22" class="st0" width="1" height="1"/>
	<rect x="7" y="22" class="st0" width="1" height="1"/>
	<rect x="8" y="22" class="st0" width="1" height="1"/>
	<rect x="9" y="22" class="st0" width="1" height="1"/>
	<rect x="14" y="22" class="st0" width="1" height="1"/>
	<rect x="15" y="22" class="st5" width="1" height="1"/>
	<rect x="16" y="22" class="st0" width="1" height="1"/>
	<rect x="17" y="22" class="st0" width="1" height="1"/>
	<rect x="20" y="22" class="st0" width="1" height="1"/>
	<rect x="21" y="22" class="st5" width="1" height="1"/>
	<rect x="22" y="22" class="st6" width="1" height="1"/>
	<rect x="23" y="22" class="st0" width="1" height="1"/>
	<rect x="24" y="22" class="st0" width="1" height="1"/>
	<rect x="25" y="22" class="st0" width="1" height="1"/>
	<rect x="26" y="22" class="st5" width="1" height="1"/>
	<rect x="27" y="22" class="st5" width="1" height="1"/>
	<rect x="28" y="22" class="st5" width="1" height="1"/>
	<rect x="29" y="22" class="st0" width="1" height="1"/>
	<rect x="2" y="23" class="st0" width="1" height="1"/>
	<rect x="3" y="23" class="st5" width="1" height="1"/>
	<rect x="4" y="23" class="st5" width="1" height="1"/>
	<rect x="5" y="23" class="st5" width="1" height="1"/>
	<rect x="6" y="23" class="st5" width="1" height="1"/>
	<rect x="7" y="23" class="st5" width="1" height="1"/>
	<rect x="8" y="23" class="st5" width="1" height="1"/>
	<rect x="9" y="23" class="st5" width="1" height="1"/>
	<rect x="10" y="23" class="st0" width="1" height="1"/>
	<rect x="11" y="23" class="st0" width="1" height="1"/>
	<rect x="14" y="23" class="st0" width="1" height="1"/>
	<rect x="15" y="23" class="st5" width="1" height="1"/>
	<rect x="16" y="23" class="st0" width="1" height="1"/>
	<rect x="19" y="23" class="st0" width="1" height="1"/>
	<rect x="20" y="23" class="st5" width="1" height="1"/>
	<rect x="21" y="23" class="st6" width="1" height="1"/>
	<rect x="22" y="23" class="st7" width="1" height="1"/>
	<rect x="23" y="23" class="st5" width="1" height="1"/>
	<rect x="24" y="23" class="st5" width="1" height="1"/>
	<rect x="25" y="23" class="st5" width="1" height="1"/>
	<rect x="26" y="23" class="st6" width="1" height="1"/>
	<rect x="27" y="23" class="st5" width="1" height="1"/>
	<rect x="28" y="23" class="st5" width="1" height="1"/>
	<rect x="29" y="23" class="st0" width="1" height="1"/>
	<rect x="1" y="24" class="st0" width="1" height="1"/>
	<rect x="2" y="24" class="st5" width="1" height="1"/>
	<rect x="3" y="24" class="st5" width="1" height="1"/>
	<rect x="4" y="24" class="st5" width="1" height="1"/>
	<rect x="5" y="24" class="st6" width="1" height="1"/>
	<rect x="6" y="24" class="st6" width="1" height="1"/>
	<rect x="7" y="24" class="st6" width="1" height="1"/>
	<rect x="8" y="24" class="st6" width="1" height="1"/>
	<rect x="9" y="24" class="st6" width="1" height="1"/>
	<rect x="10" y="24" class="st5" width="1" height="1"/>
	<rect x="11" y="24" class="st5" width="1" height="1"/>
	<rect x="12" y="24" class="st0" width="1" height="1"/>
	<rect x="14" y="24" class="st0" width="1" height="1"/>
	<rect x="15" y="24" class="st5" width="1" height="1"/>
	<rect x="16" y="24" class="st0" width="1" height="1"/>
	<rect x="19" y="24" class="st0" width="1" height="1"/>
	<rect x="20" y="24" class="st6" width="1" height="1"/>
	<rect x="21" y="24" class="st7" width="1" height="1"/>
	<rect x="22" y="24" class="st5" width="1" height="1"/>
	<rect x="23" y="24" class="st5" width="1" height="1"/>
	<rect x="24" y="24" class="st6" width="1" height="1"/>
	<rect x="25" y="24" class="st6" width="1" height="1"/>
	<rect x="26" y="24" class="st5" width="1" height="1"/>
	<rect x="27" y="24" class="st5" width="1" height="1"/>
	<rect x="28" y="24" class="st5" width="1" height="1"/>
	<rect x="29" y="24" class="st0" width="1" height="1"/>
	<rect x="2" y="25" class="st0" width="1" height="1"/>
	<rect x="3" y="25" class="st6" width="1" height="1"/>
	<rect x="4" y="25" class="st5" width="1" height="1"/>
	<rect x="5" y="25" class="st5" width="1" height="1"/>
	<rect x="6" y="25" class="st5" width="1" height="1"/>
	<rect x="7" y="25" class="st5" width="1" height="1"/>
	<rect x="8" y="25" class="st6" width="1" height="1"/>
	<rect x="9" y="25" class="st6" width="1" height="1"/>
	<rect x="10" y="25" class="st6" width="1" height="1"/>
	<rect x="11" y="25" class="st5" width="1" height="1"/>
	<rect x="12" y="25" class="st0" width="1" height="1"/>
	<rect x="14" y="25" class="st0" width="1" height="1"/>
	<rect x="15" y="25" class="st6" width="1" height="1"/>
	<rect x="16" y="25" class="st5" width="1" height="1"/>
	<rect x="17" y="25" class="st0" width="1" height="1"/>
	<rect x="18" y="25" class="st0" width="1" height="1"/>
	<rect x="19" y="25" class="st6" width="1" height="1"/>
	<rect x="20" y="25" class="st7" width="1" height="1"/>
	<rect x="21" y="25" class="st5" width="1" height="1"/>
	<rect x="22" y="25" class="st5" width="1" height="1"/>
	<rect x="23" y="25" class="st6" width="1" height="1"/>
	<rect x="24" y="25" class="st6" width="1" height="1"/>
	<rect x="25" y="25" class="st5" width="1" height="1"/>
	<rect x="26" y="25" class="st5" width="1" height="1"/>
	<rect x="27" y="25" class="st5" width="1" height="1"/>
	<rect x="28" y="25" class="st0" width="1" height="1"/>
	<rect x="3" y="26" class="st0" width="1" height="1"/>
	<rect x="4" y="26" class="st0" width="1" height="1"/>
	<rect x="5" y="26" class="st6" width="1" height="1"/>
	<rect x="6" y="26" class="st5" width="1" height="1"/>
	<rect x="7" y="26" class="st5" width="1" height="1"/>
	<rect x="8" y="26" class="st7" width="1" height="1"/>
	<rect x="9" y="26" class="st7" width="1" height="1"/>
	<rect x="10" y="26" class="st7" width="1" height="1"/>
	<rect x="11" y="26" class="st7" width="1" height="1"/>
	<rect x="12" y="26" class="st0" width="1" height="1"/>
	<rect x="15" y="26" class="st0" width="1" height="1"/>
	<rect x="16" y="26" class="st5" width="1" height="1"/>
	<rect x="17" y="26" class="st7" width="1" height="1"/>
	<rect x="18" y="26" class="st7" width="1" height="1"/>
	<rect x="19" y="26" class="st6" width="1" height="1"/>
	<rect x="20" y="26" class="st7" width="1" height="1"/>
	<rect x="21" y="26" class="st5" width="1" height="1"/>
	<rect x="22" y="26" class="st6" width="1" height="1"/>
	<rect x="23" y="26" class="st5" width="1" height="1"/>
	<rect x="24" y="26" class="st5" width="1" height="1"/>
	<rect x="25" y="26" class="st5" width="1" height="1"/>
	<rect x="26" y="26" class="st5" width="1" height="1"/>
	<rect x="27" y="26" class="st0" width="1" height="1"/>
	<rect x="5" y="27" class="st0" width="1" height="1"/>
	<rect x="6" y="27" class="st7" width="1" height="1"/>
	<rect x="7" y="27" class="st7" width="1" height="1"/>
	<rect x="8" y="27" class="st5" width="1" height="1"/>
	<rect x="9" y="27" class="st5" width="1" height="1"/>
	<rect x="10" y="27" class="st5" width="1" height="1"/>
	<rect x="11" y="27" class="st5" width="1" height="1"/>
	<rect x="12" y="27" class="st6" width="1" height="1"/>
	<rect x="13" y="27" class="st0" width="1" height="1"/>
	<rect x="15" y="27" class="st0" width="1" height="1"/>
	<rect x="16" y="27" class="st5" width="1" height="1"/>
	<rect x="17" y="27" class="st7" width="1" height="1"/>
	<rect x="18" y="27" class="st6" width="1" height="1"/>
	<rect x="19" y="27" class="st7" width="1" height="1"/>
	<rect x="20" y="27" class="st5" width="1" height="1"/>
	<rect x="21" y="27" class="st6" width="1" height="1"/>
	<rect x="22" y="27" class="st5" width="1" height="1"/>
	<rect x="23" y="27" class="st5" width="1" height="1"/>
	<rect x="24" y="27" class="st5" width="1" height="1"/>
	<rect x="25" y="27" class="st0" width="1" height="1"/>
	<rect x="26" y="27" class="st0" width="1" height="1"/>
	<rect x="5" y="28" class="st0" width="1" height="1"/>
	<rect x="6" y="28" class="st6" width="1" height="1"/>
	<rect x="7" y="28" class="st5" width="1" height="1"/>
	<rect x="8" y="28" class="st6" width="1" height="1"/>
	<rect x="9" y="28" class="st6" width="1" height="1"/>
	<rect x="10" y="28" class="st6" width="1" height="1"/>
	<rect x="11" y="28" class="st6" width="1" height="1"/>
	<rect x="12" y="28" class="st6" width="1" height="1"/>
	<rect x="13" y="28" class="st0" width="1" height="1"/>
	<rect x="15" y="28" class="st0" width="1" height="1"/>
	<rect x="16" y="28" class="st5" width="1" height="1"/>
	<rect x="17" y="28" class="st7" width="1" height="1"/>
	<rect x="18" y="28" class="st6" width="1" height="1"/>
	<rect x="19" y="28" class="st7" width="1" height="1"/>
	<rect x="20" y="28" class="st6" width="1" height="1"/>
	<rect x="21" y="28" class="st0" width="1" height="1"/>
	<rect x="22" y="28" class="st0" width="1" height="1"/>
	<rect x="23" y="28" class="st0" width="1" height="1"/>
	<rect x="24" y="28" class="st0" width="1" height="1"/>
	<rect x="4" y="29" class="st0" width="1" height="1"/>
	<rect x="5" y="29" class="st6" width="1" height="1"/>
	<rect x="6" y="29" class="st5" width="1" height="1"/>
	<rect x="7" y="29" class="st6" width="1" height="1"/>
	<rect x="8" y="29" class="st5" width="1" height="1"/>
	<rect x="9" y="29" class="st5" width="1" height="1"/>
	<rect x="10" y="29" class="st5" width="1" height="1"/>
	<rect x="11" y="29" class="st5" width="1" height="1"/>
	<rect x="12" y="29" class="st7" width="1" height="1"/>
	<rect x="13" y="29" class="st0" width="1" height="1"/>
	<rect x="15" y="29" class="st0" width="1" height="1"/>
	<rect x="16" y="29" class="st5" width="1" height="1"/>
	<rect x="17" y="29" class="st7" width="1" height="1"/>
	<rect x="18" y="29" class="st7" width="1" height="1"/>
	<rect x="19" y="29" class="st6" width="1" height="1"/>
	<rect x="20" y="29" class="st0" width="1" height="1"/>
	<rect x="3" y="30" class="st0" width="1" height="1"/>
	<rect x="4" y="30" class="st5" width="1" height="1"/>
	<rect x="5" y="30" class="st5" width="1" height="1"/>
	<rect x="6" y="30" class="st6" width="1" height="1"/>
	<rect x="7" y="30" class="st5" width="1" height="1"/>
	<rect x="8" y="30" class="st5" width="1" height="1"/>
	<rect x="9" y="30" class="st5" width="1" height="1"/>
	<rect x="10" y="30" class="st6" width="1" height="1"/>
	<rect x="11" y="30" class="st7" width="1" height="1"/>
	<rect x="12" y="30" class="st0" width="1" height="1"/>
	<rect x="13" y="30" class="st7" width="1" height="1"/>
	<rect x="14" y="30" class="st0" width="1" height="1"/>
	<rect x="15" y="30" class="st0" width="1" height="1"/>
	<rect x="16" y="30" class="st5" width="1" height="1"/>
	<rect x="17" y="30" class="st7" width="1" height="1"/>
	<rect x="18" y="30" class="st7" width="1" height="1"/>
	<rect x="19" y="30" class="st7" width="1" height="1"/>
	<rect x="20" y="30" class="st0" width="1" height="1"/>
	<rect x="21" y="30" class="st0" width="1" height="1"/>
	<rect x="2" y="31" class="st0" width="1" height="1"/>
	<rect x="3" y="31" class="st5" width="1" height="1"/>
	<rect x="4" y="31" class="st5" width="1" height="1"/>
	<rect x="5" y="31" class="st5" width="1" height="1"/>
	<rect x="6" y="31" class="st5" width="1" height="1"/>
	<rect x="7" y="31" class="st5" width="1" height="1"/>
	<rect x="8" y="31" class="st5" width="1" height="1"/>
	<rect x="9" y="31" class="st0" width="1" height="1"/>
	<rect x="10" y="31" class="st0" width="1" height="1"/>
	<rect x="11" y="31" class="st0" width="1" height="1"/>
	<rect x="12" y="31" class="st7" width="1" height="1"/>
	<rect x="13" y="31" class="st7" width="1" height="1"/>
	<rect x="14" y="31" class="st7" width="1" height="1"/>
	<rect x="15" y="31" class="st0" width="1" height="1"/>
	<rect x="16" y="31" class="st5" width="1" height="1"/>
	<rect x="17" y="31" class="st5" width="1" height="1"/>
	<rect x="18" y="31" class="st6" width="1" height="1"/>
	<rect x="19" y="31" class="st7" width="1" height="1"/>
	<rect x="20" y="31" class="st5" width="1" height="1"/>
	<rect x="21" y="31" class="st5" width="1" height="1"/>
	<rect x="22" y="31" class="st0" width="1" height="1"/>
	<rect x="23" y="31" class="st0" width="1" height="1"/>
	<rect x="3" y="32" class="st0" width="1" height="1"/>
	<rect x="4" y="32" class="st0" width="1" height="1"/>
	<rect x="5" y="32" class="st0" width="1" height="1"/>
	<rect x="6" y="32" class="st0" width="1" height="1"/>
	<rect x="7" y="32" class="st0" width="1" height="1"/>
	<rect x="8" y="32" class="st0" width="1" height="1"/>
	<rect x="11" y="32" class="st0" width="1" height="1"/>
	<rect x="12" y="32" class="st6" width="1" height="1"/>
	<rect x="13" y="32" class="st7" width="1" height="1"/>
	<rect x="14" y="32" class="st6" width="1" height="1"/>
	<rect x="15" y="32" class="st7" width="1" height="1"/>
	<rect x="16" y="32" class="st5" width="1" height="1"/>
	<rect x="17" y="32" class="st0" width="1" height="1"/>
	<rect x="18" y="32" class="st5" width="1" height="1"/>
	<rect x="19" y="32" class="st5" width="1" height="1"/>
	<rect x="20" y="32" class="st7" width="1" height="1"/>
	<rect x="21" y="32" class="st5" width="1" height="1"/>
	<rect x="22" y="32" class="st5" width="1" height="1"/>
	<rect x="23" y="32" class="st5" width="1" height="1"/>
	<rect x="24" y="32" class="st0" width="1" height="1"/>
	<rect x="11" y="33" class="st0" width="1" height="1"/>
	<rect x="12" y="33" class="st6" width="1" height="1"/>
	<rect x="13" y="33" class="st7" width="1" height="1"/>
	<rect x="14" y="33" class="st7" width="1" height="1"/>
	<rect x="15" y="33" class="st6" width="1" height="1"/>
	<rect x="16" y="33" class="st5" width="1" height="1"/>
	<rect x="17" y="33" class="st0" width="1" height="1"/>
	<rect x="18" y="33" class="st0" width="1" height="1"/>
	<rect x="19" y="33" class="st5" width="1" height="1"/>
	<rect x="20" y="33" class="st5" width="1" height="1"/>
	<rect x="21" y="33" class="st6" width="1" height="1"/>
	<rect x="22" y="33" class="st6" width="1" height="1"/>
	<rect x="23" y="33" class="st5" width="1" height="1"/>
	<rect x="24" y="33" class="st5" width="1" height="1"/>
	<rect x="25" y="33" class="st0" width="1" height="1"/>
	<rect x="12" y="34" class="st0" width="1" height="1"/>
	<rect x="13" y="34" class="st6" width="1" height="1"/>
	<rect x="14" y="34" class="st7" width="1" height="1"/>
	<rect x="15" y="34" class="st7" width="1" height="1"/>
	<rect x="16" y="34" class="st5" width="1" height="1"/>
	<rect x="17" y="34" class="st0" width="1" height="1"/>
	<rect x="18" y="34" class="st0" width="1" height="1"/>
	<rect x="19" y="34" class="st5" width="1" height="1"/>
	<rect x="20" y="34" class="st5" width="1" height="1"/>
	<rect x="21" y="34" class="st5" width="1" height="1"/>
	<rect x="22" y="34" class="st5" width="1" height="1"/>
	<rect x="23" y="34" class="st6" width="1" height="1"/>
	<rect x="24" y="34" class="st5" width="1" height="1"/>
	<rect x="25" y="34" class="st0" width="1" height="1"/>
	<rect x="11" y="35" class="st0" width="1" height="1"/>
	<rect x="12" y="35" class="st0" width="1" height="1"/>
	<rect x="13" y="35" class="st6" width="1" height="1"/>
	<rect x="14" y="35" class="st7" width="1" height="1"/>
	<rect x="15" y="35" class="st7" width="1" height="1"/>
	<rect x="16" y="35" class="st5" width="1" height="1"/>
	<rect x="17" y="35" class="st0" width="1" height="1"/>
	<rect x="18" y="35" class="st0" width="1" height="1"/>
	<rect x="19" y="35" class="st0" width="1" height="1"/>
	<rect x="20" y="35" class="st5" width="1" height="1"/>
	<rect x="21" y="35" class="st5" width="1" height="1"/>
	<rect x="22" y="35" class="st5" width="1" height="1"/>
	<rect x="23" y="35" class="st5" width="1" height="1"/>
	<rect x="24" y="35" class="st5" width="1" height="1"/>
	<rect x="25" y="35" class="st0" width="1" height="1"/>
	<rect x="10" y="36" class="st0" width="1" height="1"/>
	<rect x="11" y="36" class="st8" width="1" height="1"/>
	<rect x="12" y="36" class="st8" width="1" height="1"/>
	<rect x="13" y="36" class="st0" width="1" height="1"/>
	<rect x="14" y="36" class="st6" width="1" height="1"/>
	<rect x="15" y="36" class="st7" width="1" height="1"/>
	<rect x="16" y="36" class="st5" width="1" height="1"/>
	<rect x="17" y="36" class="st0" width="1" height="1"/>
	<rect x="18" y="36" class="st8" width="1" height="1"/>
	<rect x="19" y="36" class="st8" width="1" height="1"/>
	<rect x="20" y="36" class="st0" width="1" height="1"/>
	<rect x="21" y="36" class="st0" width="1" height="1"/>
	<rect x="22" y="36" class="st0" width="1" height="1"/>
	<rect x="23" y="36" class="st0" width="1" height="1"/>
	<rect x="24" y="36" class="st0" width="1" height="1"/>
	<rect x="9" y="37" class="st0" width="1" height="1"/>
	<rect x="10" y="37" class="st8" width="1" height="1"/>
	<rect x="11" y="37" class="st9" width="1" height="1"/>
	<rect x="12" y="37" class="st10" width="1" height="1"/>
	<rect x="13" y="37" class="st0" width="1" height="1"/>
	<rect x="14" y="37" class="st6" width="1" height="1"/>
	<rect x="15" y="37" class="st7" width="1" height="1"/>
	<rect x="16" y="37" class="st5" width="1" height="1"/>
	<rect x="17" y="37" class="st0" width="1" height="1"/>
	<rect x="18" y="37" class="st10" width="1" height="1"/>
	<rect x="19" y="37" class="st10" width="1" height="1"/>
	<rect x="20" y="37" class="st9" width="1" height="1"/>
	<rect x="21" y="37" class="st8" width="1" height="1"/>
	<rect x="22" y="37" class="st0" width="1" height="1"/>
	<rect x="9" y="38" class="st0" width="1" height="1"/>
	<rect x="10" y="38" class="st8" width="1" height="1"/>
	<rect x="11" y="38" class="st10" width="1" height="1"/>
	<rect x="12" y="38" class="st10" width="1" height="1"/>
	<rect x="13" y="38" class="st0" width="1" height="1"/>
	<rect x="14" y="38" class="st6" width="1" height="1"/>
	<rect x="15" y="38" class="st7" width="1" height="1"/>
	<rect x="16" y="38" class="st5" width="1" height="1"/>
	<rect x="17" y="38" class="st0" width="1" height="1"/>
	<rect x="18" y="38" class="st10" width="1" height="1"/>
	<rect x="19" y="38" class="st10" width="1" height="1"/>
	<rect x="20" y="38" class="st10" width="1" height="1"/>
	<rect x="21" y="38" class="st8" width="1" height="1"/>
	<rect x="22" y="38" class="st0" width="1" height="1"/>
	<rect x="9" y="39" class="st0" width="1" height="1"/>
	<rect x="10" y="39" class="st8" width="1" height="1"/>
	<rect x="11" y="39" class="st10" width="1" height="1"/>
	<rect x="12" y="39" class="st11" width="1" height="1"/>
	<rect x="13" y="39" class="st11" width="1" height="1"/>
	<rect x="14" y="39" class="st0" width="1" height="1"/>
	<rect x="15" y="39" class="st0" width="1" height="1"/>
	<rect x="16" y="39" class="st0" width="1" height="1"/>
	<rect x="17" y="39" class="st11" width="1" height="1"/>
	<rect x="18" y="39" class="st11" width="1" height="1"/>
	<rect x="19" y="39" class="st11" width="1" height="1"/>
	<rect x="20" y="39" class="st10" width="1" height="1"/>
	<rect x="21" y="39" class="st8" width="1" height="1"/>
	<rect x="22" y="39" class="st0" width="1" height="1"/>
	<rect x="9" y="40" class="st0" width="1" height="1"/>
	<rect x="10" y="40" class="st12" width="1" height="1"/>
	<rect x="11" y="40" class="st11" width="1" height="1"/>
	<rect x="12" y="40" class="st11" width="1" height="1"/>
	<rect x="13" y="40" class="st11" width="1" height="1"/>
	<rect x="14" y="40" class="st11" width="1" height="1"/>
	<rect x="15" y="40" class="st11" width="1" height="1"/>
	<rect x="16" y="40" class="st11" width="1" height="1"/>
	<rect x="17" y="40" class="st11" width="1" height="1"/>
	<rect x="18" y="40" class="st11" width="1" height="1"/>
	<rect x="19" y="40" class="st11" width="1" height="1"/>
	<rect x="20" y="40" class="st11" width="1" height="1"/>
	<rect x="21" y="40" class="st12" width="1" height="1"/>
	<rect x="22" y="40" class="st0" width="1" height="1"/>
	<rect x="9" y="41" class="st0" width="1" height="1"/>
	<rect x="10" y="41" class="st9" width="1" height="1"/>
	<rect x="11" y="41" class="st12" width="1" height="1"/>
	<rect x="12" y="41" class="st12" width="1" height="1"/>
	<rect x="13" y="41" class="st11" width="1" height="1"/>
	<rect x="14" y="41" class="st11" width="1" height="1"/>
	<rect x="15" y="41" class="st11" width="1" height="1"/>
	<rect x="16" y="41" class="st11" width="1" height="1"/>
	<rect x="17" y="41" class="st11" width="1" height="1"/>
	<rect x="18" y="41" class="st11" width="1" height="1"/>
	<rect x="19" y="41" class="st12" width="1" height="1"/>
	<rect x="20" y="41" class="st12" width="1" height="1"/>
	<rect x="21" y="41" class="st9" width="1" height="1"/>
	<rect x="22" y="41" class="st0" width="1" height="1"/>
	<rect x="9" y="42" class="st0" width="1" height="1"/>
	<rect x="10" y="42" class="st9" width="1" height="1"/>
	<rect x="11" y="42" class="st9" width="1" height="1"/>
	<rect x="12" y="42" class="st9" width="1" height="1"/>
	<rect x="13" y="42" class="st12" width="1" height="1"/>
	<rect x="14" y="42" class="st12" width="1" height="1"/>
	<rect x="15" y="42" class="st12" width="1" height="1"/>
	<rect x="16" y="42" class="st12" width="1" height="1"/>
	<rect x="17" y="42" class="st12" width="1" height="1"/>
	<rect x="18" y="42" class="st12" width="1" height="1"/>
	<rect x="19" y="42" class="st9" width="1" height="1"/>
	<rect x="20" y="42" class="st9" width="1" height="1"/>
	<rect x="21" y="42" class="st9" width="1" height="1"/>
	<rect x="22" y="42" class="st0" width="1" height="1"/>
	<rect x="9" y="43" class="st0" width="1" height="1"/>
	<rect x="10" y="43" class="st11" width="1" height="1"/>
	<rect x="11" y="43" class="st9" width="1" height="1"/>
	<rect x="12" y="43" class="st9" width="1" height="1"/>
	<rect x="13" y="43" class="st9" width="1" height="1"/>
	<rect x="14" y="43" class="st9" width="1" height="1"/>
	<rect x="15" y="43" class="st9" width="1" height="1"/>
	<rect x="16" y="43" class="st9" width="1" height="1"/>
	<rect x="17" y="43" class="st9" width="1" height="1"/>
	<rect x="18" y="43" class="st9" width="1" height="1"/>
	<rect x="19" y="43" class="st9" width="1" height="1"/>
	<rect x="20" y="43" class="st9" width="1" height="1"/>
	<rect x="21" y="43" class="st11" width="1" height="1"/>
	<rect x="22" y="43" class="st0" width="1" height="1"/>
	<rect x="10" y="44" class="st0" width="1" height="1"/>
	<rect x="11" y="44" class="st11" width="1" height="1"/>
	<rect x="12" y="44" class="st11" width="1" height="1"/>
	<rect x="13" y="44" class="st9" width="1" height="1"/>
	<rect x="14" y="44" class="st9" width="1" height="1"/>
	<rect x="15" y="44" class="st9" width="1" height="1"/>
	<rect x="16" y="44" class="st9" width="1" height="1"/>
	<rect x="17" y="44" class="st9" width="1" height="1"/>
	<rect x="18" y="44" class="st9" width="1" height="1"/>
	<rect x="19" y="44" class="st11" width="1" height="1"/>
	<rect x="20" y="44" class="st11" width="1" height="1"/>
	<rect x="21" y="44" class="st0" width="1" height="1"/>
	<rect x="10" y="45" class="st0" width="1" height="1"/>
	<rect x="11" y="45" class="st11" width="1" height="1"/>
	<rect x="12" y="45" class="st13" width="1" height="1"/>
	<rect x="13" y="45" class="st11" width="1" height="1"/>
	<rect x="14" y="45" class="st11" width="1" height="1"/>
	<rect x="15" y="45" class="st11" width="1" height="1"/>
	<rect x="16" y="45" class="st11" width="1" height="1"/>
	<rect x="17" y="45" class="st11" width="1" height="1"/>
	<rect x="18" y="45" class="st11" width="1" height="1"/>
	<rect x="19" y="45" class="st13" width="1" height="1"/>
	<rect x="20" y="45" class="st11" width="1" height="1"/>
	<rect x="21" y="45" class="st0" width="1" height="1"/>
	<rect x="11" y="46" class="st0" width="1" height="1"/>
	<rect x="12" y="46" class="st11" width="1" height="1"/>
	<rect x="13" y="46" class="st13" width="1" height="1"/>
	<rect x="14" y="46" class="st13" width="1" height="1"/>
	<rect x="15" y="46" class="st13" width="1" height="1"/>
	<rect x="16" y="46" class="st13" width="1" height="1"/>
	<rect x="17" y="46" class="st13" width="1" height="1"/>
	<rect x="18" y="46" class="st13" width="1" height="1"/>
	<rect x="19" y="46" class="st11" width="1" height="1"/>
	<rect x="20" y="46" class="st0" width="1" height="1"/>
	<rect x="12" y="47" class="st0" width="1" height="1"/>
	<rect x="13" y="47" class="st0" width="1" height="1"/>
	<rect x="14" y="47" class="st11" width="1" height="1"/>
	<rect x="15" y="47" class="st11" width="1" height="1"/>
	<rect x="16" y="47" class="st11" width="1" height="1"/>
	<rect x="17" y="47" class="st11" width="1" height="1"/>
	<rect x="18" y="47" class="st0" width="1" height="1"/>
	<rect x="19" y="47" class="st0" width="1" height="1"/>
	<rect x="14" y="48" class="st0" width="1" height="1"/>
	<rect x="15" y="48" class="st0" width="1" height="1"/>
	<rect x="16" y="48" class="st0" width="1" height="1"/>
	<rect x="17" y="48" class="st0" width="1" height="1"/>
</g>
</svg>
