<?xml version="1.0" encoding="utf-8"?>
<!-- Generator: Adobe Illustrator 26.0.2, SVG Export Plug-In . SVG Version: 6.00 Build 0)  -->
<svg version="1.1" id="Layer_1" shape-rendering="crispEdges"
	 xmlns="http://www.w3.org/2000/svg" xmlns:xlink="http://www.w3.org/1999/xlink" x="0px" y="0px" viewBox="0 0 32 32"
	 style="enable-background:new 0 0 32 32;" xml:space="preserve">
<style type="text/css">
	.st0{fill:#222034;}
	.st1{fill:#37946E;}
	.st2{fill:#847E87;}
	.st3{fill:#D1E2FF;}
	.st4{fill:#CBDBFC;}
	.st5{fill:#F0B829;}
	.st6{fill:#7ACF9B;}
	.st7{fill:#EEC39A;}
	.st8{fill:#FEFBC4;}
	.st9{fill:#696A6A;}
	.st10{fill:#8F563B;}
	.st11{fill:#BEBDC3;}
	.st12{fill:#DF7126;}
	.st13{fill:#3F3F74;}
</style>
<g id="boba">
	<rect x="15" y="3" class="st0" width="1" height="1"/>
	<rect x="16" y="3" class="st0" width="1" height="1"/>
	<rect x="14" y="4" class="st0" width="1" height="1"/>
	<rect x="15" y="4" class="st1" width="1" height="1"/>
	<rect x="16" y="4" class="st1" width="1" height="1"/>
	<rect x="17" y="4" class="st0" width="1" height="1"/>
	<rect x="14" y="5" class="st0" width="1" height="1"/>
	<rect x="15" y="5" class="st1" width="1" height="1"/>
	<rect x="16" y="5" class="st1" width="1" height="1"/>
	<rect x="17" y="5" class="st0" width="1" height="1"/>
	<rect x="14" y="6" class="st0" width="1" height="1"/>
	<rect x="15" y="6" class="st1" width="1" height="1"/>
	<rect x="16" y="6" class="st1" width="1" height="1"/>
	<rect x="17" y="6" class="st0" width="1" height="1"/>
	<rect x="14" y="7" class="st0" width="1" height="1"/>
	<rect x="15" y="7" class="st1" width="1" height="1"/>
	<rect x="16" y="7" class="st1" width="1" height="1"/>
	<rect x="17" y="7" class="st0" width="1" height="1"/>
	<rect x="12" y="8" class="st0" width="1" height="1"/>
	<rect x="13" y="8" class="st0" width="1" height="1"/>
	<rect x="14" y="8" class="st2" width="1" height="1"/>
	<rect x="15" y="8" class="st1" width="1" height="1"/>
	<rect x="16" y="8" class="st1" width="1" height="1"/>
	<rect x="17" y="8" class="st2" width="1" height="1"/>
	<rect x="18" y="8" class="st0" width="1" height="1"/>
	<rect x="19" y="8" class="st0" width="1" height="1"/>
	<rect x="11" y="9" class="st0" width="1" height="1"/>
	<rect x="12" y="9" class="st3" width="1" height="1"/>
	<rect x="13" y="9" class="st3" width="1" height="1"/>
	<rect x="14" y="9" class="st4" width="1" height="1"/>
	<rect x="15" y="9" class="st1" width="1" height="1"/>
	<rect x="16" y="9" class="st1" width="1" height="1"/>
	<rect x="17" y="9" class="st4" width="1" height="1"/>
	<rect x="18" y="9" class="st3" width="1" height="1"/>
	<rect x="19" y="9" class="st3" width="1" height="1"/>
	<rect x="20" y="9" class="st0" width="1" height="1"/>
	<rect x="10" y="10" class="st0" width="1" height="1"/>
	<rect x="11" y="10" class="st3" width="1" height="1"/>
	<rect x="12" y="10" class="st3" width="1" height="1"/>
	<rect x="13" y="10" class="st3" width="1" height="1"/>
	<rect x="14" y="10" class="st3" width="1" height="1"/>
	<rect x="15" y="10" class="st1" width="1" height="1"/>
	<rect x="16" y="10" class="st1" width="1" height="1"/>
	<rect x="17" y="10" class="st3" width="1" height="1"/>
	<rect x="18" y="10" class="st3" width="1" height="1"/>
	<rect x="19" y="10" class="st3" width="1" height="1"/>
	<rect x="20" y="10" class="st3" width="1" height="1"/>
	<rect x="21" y="10" class="st0" width="1" height="1"/>
	<rect x="10" y="11" class="st0" width="1" height="1"/>
	<rect x="11" y="11" class="st3" width="1" height="1"/>
	<rect x="12" y="11" class="st3" width="1" height="1"/>
	<rect x="13" y="11" class="st3" width="1" height="1"/>
	<rect x="14" y="11" class="st5" width="1" height="1"/>
	<rect x="15" y="11" class="st6" width="1" height="1"/>
	<rect x="16" y="11" class="st6" width="1" height="1"/>
	<rect x="17" y="11" class="st5" width="1" height="1"/>
	<rect x="18" y="11" class="st3" width="1" height="1"/>
	<rect x="19" y="11" class="st3" width="1" height="1"/>
	<rect x="20" y="11" class="st3" width="1" height="1"/>
	<rect x="21" y="11" class="st0" width="1" height="1"/>
	<rect x="9" y="12" class="st0" width="1" height="1"/>
	<rect x="10" y="12" class="st3" width="1" height="1"/>
	<rect x="11" y="12" class="st3" width="1" height="1"/>
	<rect x="12" y="12" class="st5" width="1" height="1"/>
	<rect x="13" y="12" class="st5" width="1" height="1"/>
	<rect x="14" y="12" class="st7" width="1" height="1"/>
	<rect x="15" y="12" class="st6" width="1" height="1"/>
	<rect x="16" y="12" class="st6" width="1" height="1"/>
	<rect x="17" y="12" class="st7" width="1" height="1"/>
	<rect x="18" y="12" class="st5" width="1" height="1"/>
	<rect x="19" y="12" class="st5" width="1" height="1"/>
	<rect x="20" y="12" class="st3" width="1" height="1"/>
	<rect x="21" y="12" class="st3" width="1" height="1"/>
	<rect x="22" y="12" class="st0" width="1" height="1"/>
	<rect x="9" y="13" class="st0" width="1" height="1"/>
	<rect x="10" y="13" class="st3" width="1" height="1"/>
	<rect x="11" y="13" class="st5" width="1" height="1"/>
	<rect x="12" y="13" class="st5" width="1" height="1"/>
	<rect x="13" y="13" class="st5" width="1" height="1"/>
	<rect x="14" y="13" class="st7" width="1" height="1"/>
	<rect x="15" y="13" class="st6" width="1" height="1"/>
	<rect x="16" y="13" class="st6" width="1" height="1"/>
	<rect x="17" y="13" class="st7" width="1" height="1"/>
	<rect x="18" y="13" class="st5" width="1" height="1"/>
	<rect x="19" y="13" class="st5" width="1" height="1"/>
	<rect x="20" y="13" class="st5" width="1" height="1"/>
	<rect x="21" y="13" class="st3" width="1" height="1"/>
	<rect x="22" y="13" class="st0" width="1" height="1"/>
	<rect x="9" y="14" class="st0" width="1" height="1"/>
	<rect x="10" y="14" class="st3" width="1" height="1"/>
	<rect x="11" y="14" class="st5" width="1" height="1"/>
	<rect x="12" y="14" class="st7" width="1" height="1"/>
	<rect x="13" y="14" class="st7" width="1" height="1"/>
	<rect x="14" y="14" class="st8" width="1" height="1"/>
	<rect x="15" y="14" class="st6" width="1" height="1"/>
	<rect x="16" y="14" class="st6" width="1" height="1"/>
	<rect x="17" y="14" class="st8" width="1" height="1"/>
	<rect x="18" y="14" class="st7" width="1" height="1"/>
	<rect x="19" y="14" class="st7" width="1" height="1"/>
	<rect x="20" y="14" class="st5" width="1" height="1"/>
	<rect x="21" y="14" class="st3" width="1" height="1"/>
	<rect x="22" y="14" class="st0" width="1" height="1"/>
	<rect x="8" y="15" class="st0" width="1" height="1"/>
	<rect x="9" y="15" class="st3" width="1" height="1"/>
	<rect x="10" y="15" class="st3" width="1" height="1"/>
	<rect x="11" y="15" class="st5" width="1" height="1"/>
	<rect x="12" y="15" class="st8" width="1" height="1"/>
	<rect x="13" y="15" class="st7" width="1" height="1"/>
	<rect x="14" y="15" class="st7" width="1" height="1"/>
	<rect x="15" y="15" class="st8" width="1" height="1"/>
	<rect x="16" y="15" class="st8" width="1" height="1"/>
	<rect x="17" y="15" class="st7" width="1" height="1"/>
	<rect x="18" y="15" class="st7" width="1" height="1"/>
	<rect x="19" y="15" class="st8" width="1" height="1"/>
	<rect x="20" y="15" class="st5" width="1" height="1"/>
	<rect x="21" y="15" class="st3" width="1" height="1"/>
	<rect x="22" y="15" class="st3" width="1" height="1"/>
	<rect x="23" y="15" class="st0" width="1" height="1"/>
	<rect x="8" y="16" class="st0" width="1" height="1"/>
	<rect x="9" y="16" class="st3" width="1" height="1"/>
	<rect x="10" y="16" class="st3" width="1" height="1"/>
	<rect x="11" y="16" class="st5" width="1" height="1"/>
	<rect x="12" y="16" class="st7" width="1" height="1"/>
	<rect x="13" y="16" class="st8" width="1" height="1"/>
	<rect x="14" y="16" class="st7" width="1" height="1"/>
	<rect x="15" y="16" class="st7" width="1" height="1"/>
	<rect x="16" y="16" class="st7" width="1" height="1"/>
	<rect x="17" y="16" class="st7" width="1" height="1"/>
	<rect x="18" y="16" class="st8" width="1" height="1"/>
	<rect x="19" y="16" class="st7" width="1" height="1"/>
	<rect x="20" y="16" class="st5" width="1" height="1"/>
	<rect x="21" y="16" class="st3" width="1" height="1"/>
	<rect x="22" y="16" class="st3" width="1" height="1"/>
	<rect x="23" y="16" class="st0" width="1" height="1"/>
	<rect x="9" y="17" class="st0" width="1" height="1"/>
	<rect x="10" y="17" class="st3" width="1" height="1"/>
	<rect x="11" y="17" class="st3" width="1" height="1"/>
	<rect x="12" y="17" class="st5" width="1" height="1"/>
	<rect x="13" y="17" class="st7" width="1" height="1"/>
	<rect x="14" y="17" class="st8" width="1" height="1"/>
	<rect x="15" y="17" class="st8" width="1" height="1"/>
	<rect x="16" y="17" class="st8" width="1" height="1"/>
	<rect x="17" y="17" class="st8" width="1" height="1"/>
	<rect x="18" y="17" class="st7" width="1" height="1"/>
	<rect x="19" y="17" class="st5" width="1" height="1"/>
	<rect x="20" y="17" class="st3" width="1" height="1"/>
	<rect x="21" y="17" class="st3" width="1" height="1"/>
	<rect x="22" y="17" class="st0" width="1" height="1"/>
	<rect x="10" y="18" class="st0" width="1" height="1"/>
	<rect x="11" y="18" class="st3" width="1" height="1"/>
	<rect x="12" y="18" class="st3" width="1" height="1"/>
	<rect x="13" y="18" class="st3" width="1" height="1"/>
	<rect x="14" y="18" class="st7" width="1" height="1"/>
	<rect x="15" y="18" class="st7" width="1" height="1"/>
	<rect x="16" y="18" class="st7" width="1" height="1"/>
	<rect x="17" y="18" class="st7" width="1" height="1"/>
	<rect x="18" y="18" class="st3" width="1" height="1"/>
	<rect x="19" y="18" class="st3" width="1" height="1"/>
	<rect x="20" y="18" class="st3" width="1" height="1"/>
	<rect x="21" y="18" class="st0" width="1" height="1"/>
	<rect x="10" y="19" class="st0" width="1" height="1"/>
	<rect x="11" y="19" class="st9" width="1" height="1"/>
	<rect x="12" y="19" class="st10" width="1" height="1"/>
	<rect x="13" y="19" class="st10" width="1" height="1"/>
	<rect x="14" y="19" class="st3" width="1" height="1"/>
	<rect x="15" y="19" class="st3" width="1" height="1"/>
	<rect x="16" y="19" class="st3" width="1" height="1"/>
	<rect x="17" y="19" class="st3" width="1" height="1"/>
	<rect x="18" y="19" class="st10" width="1" height="1"/>
	<rect x="19" y="19" class="st10" width="1" height="1"/>
	<rect x="20" y="19" class="st9" width="1" height="1"/>
	<rect x="21" y="19" class="st0" width="1" height="1"/>
	<rect x="10" y="20" class="st0" width="1" height="1"/>
	<rect x="11" y="20" class="st11" width="1" height="1"/>
	<rect x="12" y="20" class="st12" width="1" height="1"/>
	<rect x="13" y="20" class="st12" width="1" height="1"/>
	<rect x="14" y="20" class="st10" width="1" height="1"/>
	<rect x="15" y="20" class="st10" width="1" height="1"/>
	<rect x="16" y="20" class="st10" width="1" height="1"/>
	<rect x="17" y="20" class="st10" width="1" height="1"/>
	<rect x="18" y="20" class="st12" width="1" height="1"/>
	<rect x="19" y="20" class="st12" width="1" height="1"/>
	<rect x="20" y="20" class="st11" width="1" height="1"/>
	<rect x="21" y="20" class="st0" width="1" height="1"/>
	<rect x="11" y="21" class="st0" width="1" height="1"/>
	<rect x="12" y="21" class="st11" width="1" height="1"/>
	<rect x="13" y="21" class="st12" width="1" height="1"/>
	<rect x="14" y="21" class="st12" width="1" height="1"/>
	<rect x="15" y="21" class="st7" width="1" height="1"/>
	<rect x="16" y="21" class="st7" width="1" height="1"/>
	<rect x="17" y="21" class="st12" width="1" height="1"/>
	<rect x="18" y="21" class="st12" width="1" height="1"/>
	<rect x="19" y="21" class="st11" width="1" height="1"/>
	<rect x="20" y="21" class="st0" width="1" height="1"/>
	<rect x="11" y="22" class="st0" width="1" height="1"/>
	<rect x="12" y="22" class="st11" width="1" height="1"/>
	<rect x="13" y="22" class="st13" width="1" height="1"/>
	<rect x="14" y="22" class="st12" width="1" height="1"/>
	<rect x="15" y="22" class="st13" width="1" height="1"/>
	<rect x="16" y="22" class="st7" width="1" height="1"/>
	<rect x="17" y="22" class="st13" width="1" height="1"/>
	<rect x="18" y="22" class="st12" width="1" height="1"/>
	<rect x="19" y="22" class="st11" width="1" height="1"/>
	<rect x="20" y="22" class="st0" width="1" height="1"/>
	<rect x="11" y="23" class="st0" width="1" height="1"/>
	<rect x="12" y="23" class="st11" width="1" height="1"/>
	<rect x="13" y="23" class="st12" width="1" height="1"/>
	<rect x="14" y="23" class="st12" width="1" height="1"/>
	<rect x="15" y="23" class="st7" width="1" height="1"/>
	<rect x="16" y="23" class="st7" width="1" height="1"/>
	<rect x="17" y="23" class="st12" width="1" height="1"/>
	<rect x="18" y="23" class="st12" width="1" height="1"/>
	<rect x="19" y="23" class="st11" width="1" height="1"/>
	<rect x="20" y="23" class="st0" width="1" height="1"/>
	<rect x="12" y="24" class="st0" width="1" height="1"/>
	<rect x="13" y="24" class="st11" width="1" height="1"/>
	<rect x="14" y="24" class="st13" width="1" height="1"/>
	<rect x="15" y="24" class="st7" width="1" height="1"/>
	<rect x="16" y="24" class="st13" width="1" height="1"/>
	<rect x="17" y="24" class="st12" width="1" height="1"/>
	<rect x="18" y="24" class="st11" width="1" height="1"/>
	<rect x="19" y="24" class="st0" width="1" height="1"/>
	<rect x="13" y="25" class="st0" width="1" height="1"/>
	<rect x="14" y="25" class="st11" width="1" height="1"/>
	<rect x="15" y="25" class="st11" width="1" height="1"/>
	<rect x="16" y="25" class="st11" width="1" height="1"/>
	<rect x="17" y="25" class="st11" width="1" height="1"/>
	<rect x="18" y="25" class="st0" width="1" height="1"/>
	<rect x="14" y="26" class="st0" width="1" height="1"/>
	<rect x="15" y="26" class="st0" width="1" height="1"/>
	<rect x="16" y="26" class="st0" width="1" height="1"/>
	<rect x="17" y="26" class="st0" width="1" height="1"/>
</g>
</svg>
