<?xml version="1.0" encoding="utf-8"?>
<!-- Generator: Adobe Illustrator 26.0.2, SVG Export Plug-In . SVG Version: 6.00 Build 0)  -->
<svg version="1.1" id="Layer_1" shape-rendering="crispEdges"
	 xmlns="http://www.w3.org/2000/svg" xmlns:xlink="http://www.w3.org/1999/xlink" x="0px" y="0px" viewBox="0 0 32 64"
	 style="enable-background:new 0 0 32 64;" xml:space="preserve">
<style type="text/css">
	.st0{fill:#222034;}
	.st1{opacity:0.2941;fill:#6399FC;enable-background:new    ;}
	.st2{opacity:0.2941;fill:#96CCFC;enable-background:new    ;}
	.st3{fill:#FFFFFF;}
	.st4{opacity:0.302;fill:#566ADB;enable-background:new    ;}
	.st5{fill:#44526E;}
	.st6{fill:#E097BB;}
	.st7{fill:#C5798F;}
	.st8{fill:#35436E;}
	.st9{fill:#8A5569;}
	.st10{fill:#96506D;}
	.st11{fill:#B66A8F;}
	.st12{fill:#7B4669;}
	.st13{fill:#A55F6D;}
	.st14{fill:#D188BB;}
	.st15{fill:#CBDBFC;}
	.st16{fill:#9BADB7;}
	.st17{fill:#313666;}
	.st18{fill:#924264;}
	.st19{fill:#EF9ABA;}
	.st20{fill:#DCD0E5;}
	.st21{fill:#B15C87;}
	.st22{fill:#221F33;}
	.st23{fill:#B4626C;}
	.st24{fill:#D47C8E;}
	.st25{fill:#CDC1E5;}
	.st26{fill:#464C93;}
	.st27{fill:#773961;}
	.st28{fill:#3E3E72;}
	.st29{fill:#53556D;}
	.st30{fill:#48599C;}
	.st31{fill:#676B9B;}
	.st32{fill:#49599C;}
	.st33{fill:#58689C;}
	.st34{fill:#847E87;}
</style>
<g id="Brains">
	<rect x="13" y="11" class="st0" width="1" height="1"/>
	<rect x="14" y="11" class="st0" width="1" height="1"/>
	<rect x="15" y="11" class="st0" width="1" height="1"/>
	<rect x="16" y="11" class="st0" width="1" height="1"/>
	<rect x="17" y="11" class="st0" width="1" height="1"/>
	<rect x="18" y="11" class="st0" width="1" height="1"/>
	<rect x="11" y="12" class="st0" width="1" height="1"/>
	<rect x="12" y="12" class="st0" width="1" height="1"/>
	<rect x="13" y="12" class="st1" width="1" height="1"/>
	<rect x="14" y="12" class="st2" width="1" height="1"/>
	<rect x="15" y="12" class="st2" width="1" height="1"/>
	<rect x="16" y="12" class="st2" width="1" height="1"/>
	<rect x="17" y="12" class="st2" width="1" height="1"/>
	<rect x="18" y="12" class="st1" width="1" height="1"/>
	<rect x="19" y="12" class="st0" width="1" height="1"/>
	<rect x="20" y="12" class="st0" width="1" height="1"/>
	<rect x="9" y="13" class="st0" width="1" height="1"/>
	<rect x="10" y="13" class="st0" width="1" height="1"/>
	<rect x="11" y="13" class="st1" width="1" height="1"/>
	<rect x="12" y="13" class="st1" width="1" height="1"/>
	<rect x="13" y="13" class="st2" width="1" height="1"/>
	<rect x="14" y="13" class="st2" width="1" height="1"/>
	<rect x="15" y="13" class="st3" width="1" height="1"/>
	<rect x="16" y="13" class="st3" width="1" height="1"/>
	<rect x="17" y="13" class="st2" width="1" height="1"/>
	<rect x="18" y="13" class="st2" width="1" height="1"/>
	<rect x="19" y="13" class="st1" width="1" height="1"/>
	<rect x="20" y="13" class="st1" width="1" height="1"/>
	<rect x="21" y="13" class="st0" width="1" height="1"/>
	<rect x="22" y="13" class="st0" width="1" height="1"/>
	<rect x="8" y="14" class="st0" width="1" height="1"/>
	<rect x="9" y="14" class="st4" width="1" height="1"/>
	<rect x="10" y="14" class="st1" width="1" height="1"/>
	<rect x="11" y="14" class="st3" width="1" height="1"/>
	<rect x="12" y="14" class="st2" width="1" height="1"/>
	<rect x="13" y="14" class="st2" width="1" height="1"/>
	<rect x="14" y="14" class="st3" width="1" height="1"/>
	<rect x="15" y="14" class="st3" width="1" height="1"/>
	<rect x="16" y="14" class="st3" width="1" height="1"/>
	<rect x="17" y="14" class="st3" width="1" height="1"/>
	<rect x="18" y="14" class="st2" width="1" height="1"/>
	<rect x="19" y="14" class="st2" width="1" height="1"/>
	<rect x="20" y="14" class="st1" width="1" height="1"/>
	<rect x="21" y="14" class="st1" width="1" height="1"/>
	<rect x="22" y="14" class="st4" width="1" height="1"/>
	<rect x="23" y="14" class="st0" width="1" height="1"/>
	<rect x="7" y="15" class="st0" width="1" height="1"/>
	<rect x="8" y="15" class="st4" width="1" height="1"/>
	<rect x="9" y="15" class="st1" width="1" height="1"/>
	<rect x="10" y="15" class="st3" width="1" height="1"/>
	<rect x="11" y="15" class="st1" width="1" height="1"/>
	<rect x="12" y="15" class="st2" width="1" height="1"/>
	<rect x="13" y="15" class="st2" width="1" height="1"/>
	<rect x="14" y="15" class="st2" width="1" height="1"/>
	<rect x="15" y="15" class="st3" width="1" height="1"/>
	<rect x="16" y="15" class="st3" width="1" height="1"/>
	<rect x="17" y="15" class="st2" width="1" height="1"/>
	<rect x="18" y="15" class="st2" width="1" height="1"/>
	<rect x="19" y="15" class="st2" width="1" height="1"/>
	<rect x="20" y="15" class="st1" width="1" height="1"/>
	<rect x="21" y="15" class="st1" width="1" height="1"/>
	<rect x="22" y="15" class="st1" width="1" height="1"/>
	<rect x="23" y="15" class="st4" width="1" height="1"/>
	<rect x="24" y="15" class="st0" width="1" height="1"/>
	<rect x="7" y="16" class="st0" width="1" height="1"/>
	<rect x="8" y="16" class="st1" width="1" height="1"/>
	<rect x="9" y="16" class="st3" width="1" height="1"/>
	<rect x="10" y="16" class="st1" width="1" height="1"/>
	<rect x="11" y="16" class="st1" width="1" height="1"/>
	<rect x="12" y="16" class="st2" width="1" height="1"/>
	<rect x="13" y="16" class="st2" width="1" height="1"/>
	<rect x="14" y="16" class="st5" width="1" height="1"/>
	<rect x="15" y="16" class="st5" width="1" height="1"/>
	<rect x="16" y="16" class="st5" width="1" height="1"/>
	<rect x="17" y="16" class="st5" width="1" height="1"/>
	<rect x="18" y="16" class="st2" width="1" height="1"/>
	<rect x="19" y="16" class="st2" width="1" height="1"/>
	<rect x="20" y="16" class="st1" width="1" height="1"/>
	<rect x="21" y="16" class="st1" width="1" height="1"/>
	<rect x="22" y="16" class="st1" width="1" height="1"/>
	<rect x="23" y="16" class="st4" width="1" height="1"/>
	<rect x="24" y="16" class="st0" width="1" height="1"/>
	<rect x="6" y="17" class="st0" width="1" height="1"/>
	<rect x="7" y="17" class="st4" width="1" height="1"/>
	<rect x="8" y="17" class="st1" width="1" height="1"/>
	<rect x="9" y="17" class="st3" width="1" height="1"/>
	<rect x="10" y="17" class="st1" width="1" height="1"/>
	<rect x="11" y="17" class="st1" width="1" height="1"/>
	<rect x="12" y="17" class="st2" width="1" height="1"/>
	<rect x="13" y="17" class="st5" width="1" height="1"/>
	<rect x="14" y="17" class="st6" width="1" height="1"/>
	<rect x="15" y="17" class="st7" width="1" height="1"/>
	<rect x="16" y="17" class="st6" width="1" height="1"/>
	<rect x="17" y="17" class="st7" width="1" height="1"/>
	<rect x="18" y="17" class="st5" width="1" height="1"/>
	<rect x="19" y="17" class="st5" width="1" height="1"/>
	<rect x="20" y="17" class="st1" width="1" height="1"/>
	<rect x="21" y="17" class="st1" width="1" height="1"/>
	<rect x="22" y="17" class="st1" width="1" height="1"/>
	<rect x="23" y="17" class="st1" width="1" height="1"/>
	<rect x="24" y="17" class="st4" width="1" height="1"/>
	<rect x="25" y="17" class="st0" width="1" height="1"/>
	<rect x="6" y="18" class="st0" width="1" height="1"/>
	<rect x="7" y="18" class="st4" width="1" height="1"/>
	<rect x="8" y="18" class="st3" width="1" height="1"/>
	<rect x="9" y="18" class="st3" width="1" height="1"/>
	<rect x="10" y="18" class="st8" width="1" height="1"/>
	<rect x="11" y="18" class="st8" width="1" height="1"/>
	<rect x="12" y="18" class="st8" width="1" height="1"/>
	<rect x="13" y="18" class="st9" width="1" height="1"/>
	<rect x="14" y="18" class="st7" width="1" height="1"/>
	<rect x="15" y="18" class="st6" width="1" height="1"/>
	<rect x="16" y="18" class="st7" width="1" height="1"/>
	<rect x="17" y="18" class="st9" width="1" height="1"/>
	<rect x="18" y="18" class="st7" width="1" height="1"/>
	<rect x="19" y="18" class="st10" width="1" height="1"/>
	<rect x="20" y="18" class="st8" width="1" height="1"/>
	<rect x="21" y="18" class="st1" width="1" height="1"/>
	<rect x="22" y="18" class="st1" width="1" height="1"/>
	<rect x="23" y="18" class="st1" width="1" height="1"/>
	<rect x="24" y="18" class="st4" width="1" height="1"/>
	<rect x="25" y="18" class="st0" width="1" height="1"/>
	<rect x="6" y="19" class="st0" width="1" height="1"/>
	<rect x="7" y="19" class="st4" width="1" height="1"/>
	<rect x="8" y="19" class="st3" width="1" height="1"/>
	<rect x="9" y="19" class="st3" width="1" height="1"/>
	<rect x="10" y="19" class="st3" width="1" height="1"/>
	<rect x="11" y="19" class="st11" width="1" height="1"/>
	<rect x="12" y="19" class="st11" width="1" height="1"/>
	<rect x="13" y="19" class="st12" width="1" height="1"/>
	<rect x="14" y="19" class="st12" width="1" height="1"/>
	<rect x="15" y="19" class="st13" width="1" height="1"/>
	<rect x="16" y="19" class="st7" width="1" height="1"/>
	<rect x="17" y="19" class="st10" width="1" height="1"/>
	<rect x="18" y="19" class="st11" width="1" height="1"/>
	<rect x="19" y="19" class="st14" width="1" height="1"/>
	<rect x="20" y="19" class="st10" width="1" height="1"/>
	<rect x="21" y="19" class="st8" width="1" height="1"/>
	<rect x="22" y="19" class="st3" width="1" height="1"/>
	<rect x="23" y="19" class="st1" width="1" height="1"/>
	<rect x="24" y="19" class="st4" width="1" height="1"/>
	<rect x="25" y="19" class="st0" width="1" height="1"/>
	<rect x="6" y="20" class="st0" width="1" height="1"/>
	<rect x="7" y="20" class="st4" width="1" height="1"/>
	<rect x="8" y="20" class="st3" width="1" height="1"/>
	<rect x="9" y="20" class="st15" width="1" height="1"/>
	<rect x="10" y="20" class="st11" width="1" height="1"/>
	<rect x="11" y="20" class="st3" width="1" height="1"/>
	<rect x="12" y="20" class="st3" width="1" height="1"/>
	<rect x="13" y="20" class="st3" width="1" height="1"/>
	<rect x="14" y="20" class="st11" width="1" height="1"/>
	<rect x="15" y="20" class="st12" width="1" height="1"/>
	<rect x="16" y="20" class="st10" width="1" height="1"/>
	<rect x="17" y="20" class="st11" width="1" height="1"/>
	<rect x="18" y="20" class="st10" width="1" height="1"/>
	<rect x="19" y="20" class="st3" width="1" height="1"/>
	<rect x="20" y="20" class="st3" width="1" height="1"/>
	<rect x="21" y="20" class="st3" width="1" height="1"/>
	<rect x="22" y="20" class="st8" width="1" height="1"/>
	<rect x="23" y="20" class="st4" width="1" height="1"/>
	<rect x="24" y="20" class="st4" width="1" height="1"/>
	<rect x="25" y="20" class="st0" width="1" height="1"/>
	<rect x="6" y="21" class="st0" width="1" height="1"/>
	<rect x="7" y="21" class="st4" width="1" height="1"/>
	<rect x="8" y="21" class="st3" width="1" height="1"/>
	<rect x="9" y="21" class="st3" width="1" height="1"/>
	<rect x="10" y="21" class="st14" width="1" height="1"/>
	<rect x="11" y="21" class="st11" width="1" height="1"/>
	<rect x="12" y="21" class="st11" width="1" height="1"/>
	<rect x="13" y="21" class="st10" width="1" height="1"/>
	<rect x="14" y="21" class="st16" width="1" height="1"/>
	<rect x="15" y="21" class="st15" width="1" height="1"/>
	<rect x="16" y="21" class="st3" width="1" height="1"/>
	<rect x="17" y="21" class="st16" width="1" height="1"/>
	<rect x="18" y="21" class="st15" width="1" height="1"/>
	<rect x="19" y="21" class="st14" width="1" height="1"/>
	<rect x="20" y="21" class="st10" width="1" height="1"/>
	<rect x="21" y="21" class="st11" width="1" height="1"/>
	<rect x="22" y="21" class="st10" width="1" height="1"/>
	<rect x="23" y="21" class="st17" width="1" height="1"/>
	<rect x="24" y="21" class="st4" width="1" height="1"/>
	<rect x="25" y="21" class="st0" width="1" height="1"/>
	<rect x="6" y="22" class="st0" width="1" height="1"/>
	<rect x="7" y="22" class="st17" width="1" height="1"/>
	<rect x="8" y="22" class="st3" width="1" height="1"/>
	<rect x="9" y="22" class="st15" width="1" height="1"/>
	<rect x="10" y="22" class="st7" width="1" height="1"/>
	<rect x="11" y="22" class="st10" width="1" height="1"/>
	<rect x="12" y="22" class="st14" width="1" height="1"/>
	<rect x="13" y="22" class="st14" width="1" height="1"/>
	<rect x="14" y="22" class="st10" width="1" height="1"/>
	<rect x="15" y="22" class="st11" width="1" height="1"/>
	<rect x="16" y="22" class="st12" width="1" height="1"/>
	<rect x="17" y="22" class="st10" width="1" height="1"/>
	<rect x="18" y="22" class="st10" width="1" height="1"/>
	<rect x="19" y="22" class="st10" width="1" height="1"/>
	<rect x="20" y="22" class="st11" width="1" height="1"/>
	<rect x="21" y="22" class="st10" width="1" height="1"/>
	<rect x="22" y="22" class="st12" width="1" height="1"/>
	<rect x="23" y="22" class="st17" width="1" height="1"/>
	<rect x="24" y="22" class="st4" width="1" height="1"/>
	<rect x="25" y="22" class="st0" width="1" height="1"/>
	<rect x="6" y="23" class="st0" width="1" height="1"/>
	<rect x="7" y="23" class="st17" width="1" height="1"/>
	<rect x="8" y="23" class="st15" width="1" height="1"/>
	<rect x="9" y="23" class="st7" width="1" height="1"/>
	<rect x="10" y="23" class="st7" width="1" height="1"/>
	<rect x="11" y="23" class="st11" width="1" height="1"/>
	<rect x="12" y="23" class="st12" width="1" height="1"/>
	<rect x="13" y="23" class="st13" width="1" height="1"/>
	<rect x="14" y="23" class="st6" width="1" height="1"/>
	<rect x="15" y="23" class="st13" width="1" height="1"/>
	<rect x="16" y="23" class="st6" width="1" height="1"/>
	<rect x="17" y="23" class="st9" width="1" height="1"/>
	<rect x="18" y="23" class="st7" width="1" height="1"/>
	<rect x="19" y="23" class="st13" width="1" height="1"/>
	<rect x="20" y="23" class="st11" width="1" height="1"/>
	<rect x="21" y="23" class="st14" width="1" height="1"/>
	<rect x="22" y="23" class="st11" width="1" height="1"/>
	<rect x="23" y="23" class="st18" width="1" height="1"/>
	<rect x="24" y="23" class="st17" width="1" height="1"/>
	<rect x="25" y="23" class="st0" width="1" height="1"/>
	<rect x="6" y="24" class="st0" width="1" height="1"/>
	<rect x="7" y="24" class="st17" width="1" height="1"/>
	<rect x="8" y="24" class="st3" width="1" height="1"/>
	<rect x="9" y="24" class="st19" width="1" height="1"/>
	<rect x="10" y="24" class="st20" width="1" height="1"/>
	<rect x="11" y="24" class="st14" width="1" height="1"/>
	<rect x="12" y="24" class="st14" width="1" height="1"/>
	<rect x="13" y="24" class="st13" width="1" height="1"/>
	<rect x="14" y="24" class="st6" width="1" height="1"/>
	<rect x="15" y="24" class="st13" width="1" height="1"/>
	<rect x="16" y="24" class="st20" width="1" height="1"/>
	<rect x="17" y="24" class="st7" width="1" height="1"/>
	<rect x="18" y="24" class="st9" width="1" height="1"/>
	<rect x="19" y="24" class="st9" width="1" height="1"/>
	<rect x="20" y="24" class="st10" width="1" height="1"/>
	<rect x="21" y="24" class="st11" width="1" height="1"/>
	<rect x="22" y="24" class="st10" width="1" height="1"/>
	<rect x="23" y="24" class="st21" width="1" height="1"/>
	<rect x="24" y="24" class="st17" width="1" height="1"/>
	<rect x="25" y="24" class="st0" width="1" height="1"/>
	<rect x="6" y="25" class="st0" width="1" height="1"/>
	<rect x="7" y="25" class="st17" width="1" height="1"/>
	<rect x="8" y="25" class="st3" width="1" height="1"/>
	<rect x="9" y="25" class="st19" width="1" height="1"/>
	<rect x="10" y="25" class="st19" width="1" height="1"/>
	<rect x="11" y="25" class="st10" width="1" height="1"/>
	<rect x="12" y="25" class="st10" width="1" height="1"/>
	<rect x="13" y="25" class="st20" width="1" height="1"/>
	<rect x="14" y="25" class="st7" width="1" height="1"/>
	<rect x="15" y="25" class="st6" width="1" height="1"/>
	<rect x="16" y="25" class="st7" width="1" height="1"/>
	<rect x="17" y="25" class="st6" width="1" height="1"/>
	<rect x="18" y="25" class="st7" width="1" height="1"/>
	<rect x="19" y="25" class="st9" width="1" height="1"/>
	<rect x="20" y="25" class="st12" width="1" height="1"/>
	<rect x="21" y="25" class="st10" width="1" height="1"/>
	<rect x="22" y="25" class="st11" width="1" height="1"/>
	<rect x="23" y="25" class="st18" width="1" height="1"/>
	<rect x="24" y="25" class="st17" width="1" height="1"/>
	<rect x="25" y="25" class="st22" width="1" height="1"/>
	<rect x="6" y="26" class="st0" width="1" height="1"/>
	<rect x="7" y="26" class="st17" width="1" height="1"/>
	<rect x="8" y="26" class="st3" width="1" height="1"/>
	<rect x="9" y="26" class="st23" width="1" height="1"/>
	<rect x="10" y="26" class="st24" width="1" height="1"/>
	<rect x="11" y="26" class="st25" width="1" height="1"/>
	<rect x="12" y="26" class="st11" width="1" height="1"/>
	<rect x="13" y="26" class="st6" width="1" height="1"/>
	<rect x="14" y="26" class="st9" width="1" height="1"/>
	<rect x="15" y="26" class="st6" width="1" height="1"/>
	<rect x="16" y="26" class="st13" width="1" height="1"/>
	<rect x="17" y="26" class="st7" width="1" height="1"/>
	<rect x="18" y="26" class="st20" width="1" height="1"/>
	<rect x="19" y="26" class="st6" width="1" height="1"/>
	<rect x="20" y="26" class="st11" width="1" height="1"/>
	<rect x="21" y="26" class="st12" width="1" height="1"/>
	<rect x="22" y="26" class="st10" width="1" height="1"/>
	<rect x="23" y="26" class="st21" width="1" height="1"/>
	<rect x="24" y="26" class="st17" width="1" height="1"/>
	<rect x="25" y="26" class="st0" width="1" height="1"/>
	<rect x="6" y="27" class="st0" width="1" height="1"/>
	<rect x="7" y="27" class="st26" width="1" height="1"/>
	<rect x="8" y="27" class="st15" width="1" height="1"/>
	<rect x="9" y="27" class="st23" width="1" height="1"/>
	<rect x="10" y="27" class="st24" width="1" height="1"/>
	<rect x="11" y="27" class="st14" width="1" height="1"/>
	<rect x="12" y="27" class="st14" width="1" height="1"/>
	<rect x="13" y="27" class="st13" width="1" height="1"/>
	<rect x="14" y="27" class="st13" width="1" height="1"/>
	<rect x="15" y="27" class="st7" width="1" height="1"/>
	<rect x="16" y="27" class="st7" width="1" height="1"/>
	<rect x="17" y="27" class="st7" width="1" height="1"/>
	<rect x="18" y="27" class="st6" width="1" height="1"/>
	<rect x="19" y="27" class="st20" width="1" height="1"/>
	<rect x="20" y="27" class="st14" width="1" height="1"/>
	<rect x="21" y="27" class="st12" width="1" height="1"/>
	<rect x="22" y="27" class="st12" width="1" height="1"/>
	<rect x="23" y="27" class="st27" width="1" height="1"/>
	<rect x="24" y="27" class="st17" width="1" height="1"/>
	<rect x="25" y="27" class="st0" width="1" height="1"/>
	<rect x="5" y="28" class="st0" width="1" height="1"/>
	<rect x="6" y="28" class="st0" width="1" height="1"/>
	<rect x="7" y="28" class="st28" width="1" height="1"/>
	<rect x="8" y="28" class="st3" width="1" height="1"/>
	<rect x="9" y="28" class="st29" width="1" height="1"/>
	<rect x="10" y="28" class="st23" width="1" height="1"/>
	<rect x="11" y="28" class="st11" width="1" height="1"/>
	<rect x="12" y="28" class="st11" width="1" height="1"/>
	<rect x="13" y="28" class="st13" width="1" height="1"/>
	<rect x="14" y="28" class="st6" width="1" height="1"/>
	<rect x="15" y="28" class="st20" width="1" height="1"/>
	<rect x="16" y="28" class="st13" width="1" height="1"/>
	<rect x="17" y="28" class="st9" width="1" height="1"/>
	<rect x="18" y="28" class="st13" width="1" height="1"/>
	<rect x="19" y="28" class="st6" width="1" height="1"/>
	<rect x="20" y="28" class="st11" width="1" height="1"/>
	<rect x="21" y="28" class="st14" width="1" height="1"/>
	<rect x="22" y="28" class="st12" width="1" height="1"/>
	<rect x="23" y="28" class="st17" width="1" height="1"/>
	<rect x="24" y="28" class="st28" width="1" height="1"/>
	<rect x="25" y="28" class="st0" width="1" height="1"/>
	<rect x="26" y="28" class="st0" width="1" height="1"/>
	<rect x="5" y="29" class="st0" width="1" height="1"/>
	<rect x="6" y="29" class="st0" width="1" height="1"/>
	<rect x="7" y="29" class="st30" width="1" height="1"/>
	<rect x="8" y="29" class="st3" width="1" height="1"/>
	<rect x="9" y="29" class="st31" width="1" height="1"/>
	<rect x="10" y="29" class="st29" width="1" height="1"/>
	<rect x="11" y="29" class="st8" width="1" height="1"/>
	<rect x="12" y="29" class="st10" width="1" height="1"/>
	<rect x="13" y="29" class="st7" width="1" height="1"/>
	<rect x="14" y="29" class="st7" width="1" height="1"/>
	<rect x="15" y="29" class="st6" width="1" height="1"/>
	<rect x="16" y="29" class="st13" width="1" height="1"/>
	<rect x="17" y="29" class="st7" width="1" height="1"/>
	<rect x="18" y="29" class="st6" width="1" height="1"/>
	<rect x="19" y="29" class="st7" width="1" height="1"/>
	<rect x="20" y="29" class="st14" width="1" height="1"/>
	<rect x="21" y="29" class="st11" width="1" height="1"/>
	<rect x="22" y="29" class="st10" width="1" height="1"/>
	<rect x="23" y="29" class="st17" width="1" height="1"/>
	<rect x="24" y="29" class="st26" width="1" height="1"/>
	<rect x="25" y="29" class="st0" width="1" height="1"/>
	<rect x="26" y="29" class="st0" width="1" height="1"/>
	<rect x="4" y="30" class="st0" width="1" height="1"/>
	<rect x="5" y="30" class="st16" width="1" height="1"/>
	<rect x="6" y="30" class="st0" width="1" height="1"/>
	<rect x="7" y="30" class="st30" width="1" height="1"/>
	<rect x="8" y="30" class="st15" width="1" height="1"/>
	<rect x="9" y="30" class="st31" width="1" height="1"/>
	<rect x="10" y="30" class="st31" width="1" height="1"/>
	<rect x="11" y="30" class="st32" width="1" height="1"/>
	<rect x="12" y="30" class="st8" width="1" height="1"/>
	<rect x="13" y="30" class="st5" width="1" height="1"/>
	<rect x="14" y="30" class="st13" width="1" height="1"/>
	<rect x="15" y="30" class="st7" width="1" height="1"/>
	<rect x="16" y="30" class="st7" width="1" height="1"/>
	<rect x="17" y="30" class="st7" width="1" height="1"/>
	<rect x="18" y="30" class="st13" width="1" height="1"/>
	<rect x="19" y="30" class="st9" width="1" height="1"/>
	<rect x="20" y="30" class="st12" width="1" height="1"/>
	<rect x="21" y="30" class="st12" width="1" height="1"/>
	<rect x="22" y="30" class="st8" width="1" height="1"/>
	<rect x="23" y="30" class="st26" width="1" height="1"/>
	<rect x="24" y="30" class="st26" width="1" height="1"/>
	<rect x="25" y="30" class="st0" width="1" height="1"/>
	<rect x="26" y="30" class="st16" width="1" height="1"/>
	<rect x="27" y="30" class="st0" width="1" height="1"/>
	<rect x="4" y="31" class="st0" width="1" height="1"/>
	<rect x="5" y="31" class="st16" width="1" height="1"/>
	<rect x="6" y="31" class="st0" width="1" height="1"/>
	<rect x="7" y="31" class="st30" width="1" height="1"/>
	<rect x="8" y="31" class="st15" width="1" height="1"/>
	<rect x="9" y="31" class="st31" width="1" height="1"/>
	<rect x="10" y="31" class="st31" width="1" height="1"/>
	<rect x="11" y="31" class="st32" width="1" height="1"/>
	<rect x="12" y="31" class="st32" width="1" height="1"/>
	<rect x="13" y="31" class="st33" width="1" height="1"/>
	<rect x="14" y="31" class="st5" width="1" height="1"/>
	<rect x="15" y="31" class="st5" width="1" height="1"/>
	<rect x="16" y="31" class="st5" width="1" height="1"/>
	<rect x="17" y="31" class="st13" width="1" height="1"/>
	<rect x="18" y="31" class="st7" width="1" height="1"/>
	<rect x="19" y="31" class="st7" width="1" height="1"/>
	<rect x="20" y="31" class="st11" width="1" height="1"/>
	<rect x="21" y="31" class="st10" width="1" height="1"/>
	<rect x="22" y="31" class="st8" width="1" height="1"/>
	<rect x="23" y="31" class="st26" width="1" height="1"/>
	<rect x="24" y="31" class="st26" width="1" height="1"/>
	<rect x="25" y="31" class="st0" width="1" height="1"/>
	<rect x="26" y="31" class="st16" width="1" height="1"/>
	<rect x="27" y="31" class="st0" width="1" height="1"/>
	<rect x="4" y="32" class="st0" width="1" height="1"/>
	<rect x="5" y="32" class="st16" width="1" height="1"/>
	<rect x="6" y="32" class="st0" width="1" height="1"/>
	<rect x="7" y="32" class="st30" width="1" height="1"/>
	<rect x="8" y="32" class="st15" width="1" height="1"/>
	<rect x="9" y="32" class="st31" width="1" height="1"/>
	<rect x="10" y="32" class="st31" width="1" height="1"/>
	<rect x="11" y="32" class="st32" width="1" height="1"/>
	<rect x="12" y="32" class="st32" width="1" height="1"/>
	<rect x="13" y="32" class="st33" width="1" height="1"/>
	<rect x="14" y="32" class="st33" width="1" height="1"/>
	<rect x="15" y="32" class="st33" width="1" height="1"/>
	<rect x="16" y="32" class="st33" width="1" height="1"/>
	<rect x="17" y="32" class="st5" width="1" height="1"/>
	<rect x="18" y="32" class="st5" width="1" height="1"/>
	<rect x="19" y="32" class="st13" width="1" height="1"/>
	<rect x="20" y="32" class="st8" width="1" height="1"/>
	<rect x="21" y="32" class="st8" width="1" height="1"/>
	<rect x="22" y="32" class="st32" width="1" height="1"/>
	<rect x="23" y="32" class="st26" width="1" height="1"/>
	<rect x="24" y="32" class="st26" width="1" height="1"/>
	<rect x="25" y="32" class="st0" width="1" height="1"/>
	<rect x="26" y="32" class="st16" width="1" height="1"/>
	<rect x="27" y="32" class="st0" width="1" height="1"/>
	<rect x="4" y="33" class="st0" width="1" height="1"/>
	<rect x="5" y="33" class="st16" width="1" height="1"/>
	<rect x="6" y="33" class="st0" width="1" height="1"/>
	<rect x="7" y="33" class="st30" width="1" height="1"/>
	<rect x="8" y="33" class="st15" width="1" height="1"/>
	<rect x="9" y="33" class="st31" width="1" height="1"/>
	<rect x="10" y="33" class="st31" width="1" height="1"/>
	<rect x="11" y="33" class="st32" width="1" height="1"/>
	<rect x="12" y="33" class="st32" width="1" height="1"/>
	<rect x="13" y="33" class="st33" width="1" height="1"/>
	<rect x="14" y="33" class="st33" width="1" height="1"/>
	<rect x="15" y="33" class="st33" width="1" height="1"/>
	<rect x="16" y="33" class="st33" width="1" height="1"/>
	<rect x="17" y="33" class="st33" width="1" height="1"/>
	<rect x="18" y="33" class="st5" width="1" height="1"/>
	<rect x="19" y="33" class="st7" width="1" height="1"/>
	<rect x="20" y="33" class="st10" width="1" height="1"/>
	<rect x="21" y="33" class="st8" width="1" height="1"/>
	<rect x="22" y="33" class="st32" width="1" height="1"/>
	<rect x="23" y="33" class="st26" width="1" height="1"/>
	<rect x="24" y="33" class="st26" width="1" height="1"/>
	<rect x="25" y="33" class="st0" width="1" height="1"/>
	<rect x="26" y="33" class="st16" width="1" height="1"/>
	<rect x="27" y="33" class="st0" width="1" height="1"/>
	<rect x="4" y="34" class="st0" width="1" height="1"/>
	<rect x="5" y="34" class="st16" width="1" height="1"/>
	<rect x="6" y="34" class="st16" width="1" height="1"/>
	<rect x="7" y="34" class="st0" width="1" height="1"/>
	<rect x="8" y="34" class="st31" width="1" height="1"/>
	<rect x="9" y="34" class="st31" width="1" height="1"/>
	<rect x="10" y="34" class="st31" width="1" height="1"/>
	<rect x="11" y="34" class="st32" width="1" height="1"/>
	<rect x="12" y="34" class="st32" width="1" height="1"/>
	<rect x="13" y="34" class="st33" width="1" height="1"/>
	<rect x="14" y="34" class="st33" width="1" height="1"/>
	<rect x="15" y="34" class="st33" width="1" height="1"/>
	<rect x="16" y="34" class="st33" width="1" height="1"/>
	<rect x="17" y="34" class="st5" width="1" height="1"/>
	<rect x="18" y="34" class="st7" width="1" height="1"/>
	<rect x="19" y="34" class="st13" width="1" height="1"/>
	<rect x="20" y="34" class="st8" width="1" height="1"/>
	<rect x="21" y="34" class="st32" width="1" height="1"/>
	<rect x="22" y="34" class="st32" width="1" height="1"/>
	<rect x="23" y="34" class="st26" width="1" height="1"/>
	<rect x="24" y="34" class="st0" width="1" height="1"/>
	<rect x="25" y="34" class="st16" width="1" height="1"/>
	<rect x="26" y="34" class="st16" width="1" height="1"/>
	<rect x="27" y="34" class="st0" width="1" height="1"/>
	<rect x="4" y="35" class="st0" width="1" height="1"/>
	<rect x="5" y="35" class="st15" width="1" height="1"/>
	<rect x="6" y="35" class="st16" width="1" height="1"/>
	<rect x="7" y="35" class="st0" width="1" height="1"/>
	<rect x="8" y="35" class="st30" width="1" height="1"/>
	<rect x="9" y="35" class="st31" width="1" height="1"/>
	<rect x="10" y="35" class="st31" width="1" height="1"/>
	<rect x="11" y="35" class="st32" width="1" height="1"/>
	<rect x="12" y="35" class="st32" width="1" height="1"/>
	<rect x="13" y="35" class="st33" width="1" height="1"/>
	<rect x="14" y="35" class="st33" width="1" height="1"/>
	<rect x="15" y="35" class="st33" width="1" height="1"/>
	<rect x="16" y="35" class="st33" width="1" height="1"/>
	<rect x="17" y="35" class="st5" width="1" height="1"/>
	<rect x="18" y="35" class="st5" width="1" height="1"/>
	<rect x="19" y="35" class="st5" width="1" height="1"/>
	<rect x="20" y="35" class="st32" width="1" height="1"/>
	<rect x="21" y="35" class="st32" width="1" height="1"/>
	<rect x="22" y="35" class="st32" width="1" height="1"/>
	<rect x="23" y="35" class="st26" width="1" height="1"/>
	<rect x="24" y="35" class="st0" width="1" height="1"/>
	<rect x="25" y="35" class="st16" width="1" height="1"/>
	<rect x="26" y="35" class="st15" width="1" height="1"/>
	<rect x="27" y="35" class="st0" width="1" height="1"/>
	<rect x="4" y="36" class="st0" width="1" height="1"/>
	<rect x="5" y="36" class="st15" width="1" height="1"/>
	<rect x="6" y="36" class="st16" width="1" height="1"/>
	<rect x="7" y="36" class="st16" width="1" height="1"/>
	<rect x="8" y="36" class="st0" width="1" height="1"/>
	<rect x="9" y="36" class="st30" width="1" height="1"/>
	<rect x="10" y="36" class="st30" width="1" height="1"/>
	<rect x="11" y="36" class="st32" width="1" height="1"/>
	<rect x="12" y="36" class="st32" width="1" height="1"/>
	<rect x="13" y="36" class="st33" width="1" height="1"/>
	<rect x="14" y="36" class="st33" width="1" height="1"/>
	<rect x="15" y="36" class="st33" width="1" height="1"/>
	<rect x="16" y="36" class="st33" width="1" height="1"/>
	<rect x="17" y="36" class="st33" width="1" height="1"/>
	<rect x="18" y="36" class="st33" width="1" height="1"/>
	<rect x="19" y="36" class="st33" width="1" height="1"/>
	<rect x="20" y="36" class="st32" width="1" height="1"/>
	<rect x="21" y="36" class="st26" width="1" height="1"/>
	<rect x="22" y="36" class="st26" width="1" height="1"/>
	<rect x="23" y="36" class="st0" width="1" height="1"/>
	<rect x="24" y="36" class="st16" width="1" height="1"/>
	<rect x="25" y="36" class="st16" width="1" height="1"/>
	<rect x="26" y="36" class="st15" width="1" height="1"/>
	<rect x="27" y="36" class="st0" width="1" height="1"/>
	<rect x="4" y="37" class="st0" width="1" height="1"/>
	<rect x="5" y="37" class="st34" width="1" height="1"/>
	<rect x="6" y="37" class="st15" width="1" height="1"/>
	<rect x="7" y="37" class="st16" width="1" height="1"/>
	<rect x="8" y="37" class="st16" width="1" height="1"/>
	<rect x="9" y="37" class="st0" width="1" height="1"/>
	<rect x="10" y="37" class="st0" width="1" height="1"/>
	<rect x="11" y="37" class="st26" width="1" height="1"/>
	<rect x="12" y="37" class="st26" width="1" height="1"/>
	<rect x="13" y="37" class="st33" width="1" height="1"/>
	<rect x="14" y="37" class="st33" width="1" height="1"/>
	<rect x="15" y="37" class="st33" width="1" height="1"/>
	<rect x="16" y="37" class="st33" width="1" height="1"/>
	<rect x="17" y="37" class="st33" width="1" height="1"/>
	<rect x="18" y="37" class="st33" width="1" height="1"/>
	<rect x="19" y="37" class="st26" width="1" height="1"/>
	<rect x="20" y="37" class="st26" width="1" height="1"/>
	<rect x="21" y="37" class="st0" width="1" height="1"/>
	<rect x="22" y="37" class="st0" width="1" height="1"/>
	<rect x="23" y="37" class="st16" width="1" height="1"/>
	<rect x="24" y="37" class="st16" width="1" height="1"/>
	<rect x="25" y="37" class="st15" width="1" height="1"/>
	<rect x="26" y="37" class="st34" width="1" height="1"/>
	<rect x="27" y="37" class="st0" width="1" height="1"/>
	<rect x="4" y="38" class="st0" width="1" height="1"/>
	<rect x="5" y="38" class="st34" width="1" height="1"/>
	<rect x="6" y="38" class="st34" width="1" height="1"/>
	<rect x="7" y="38" class="st15" width="1" height="1"/>
	<rect x="8" y="38" class="st16" width="1" height="1"/>
	<rect x="9" y="38" class="st16" width="1" height="1"/>
	<rect x="10" y="38" class="st16" width="1" height="1"/>
	<rect x="11" y="38" class="st0" width="1" height="1"/>
	<rect x="12" y="38" class="st0" width="1" height="1"/>
	<rect x="13" y="38" class="st26" width="1" height="1"/>
	<rect x="14" y="38" class="st26" width="1" height="1"/>
	<rect x="15" y="38" class="st26" width="1" height="1"/>
	<rect x="16" y="38" class="st26" width="1" height="1"/>
	<rect x="17" y="38" class="st26" width="1" height="1"/>
	<rect x="18" y="38" class="st26" width="1" height="1"/>
	<rect x="19" y="38" class="st0" width="1" height="1"/>
	<rect x="20" y="38" class="st0" width="1" height="1"/>
	<rect x="21" y="38" class="st16" width="1" height="1"/>
	<rect x="22" y="38" class="st16" width="1" height="1"/>
	<rect x="23" y="38" class="st16" width="1" height="1"/>
	<rect x="24" y="38" class="st15" width="1" height="1"/>
	<rect x="25" y="38" class="st34" width="1" height="1"/>
	<rect x="26" y="38" class="st34" width="1" height="1"/>
	<rect x="27" y="38" class="st0" width="1" height="1"/>
	<rect x="5" y="39" class="st0" width="1" height="1"/>
	<rect x="6" y="39" class="st34" width="1" height="1"/>
	<rect x="7" y="39" class="st34" width="1" height="1"/>
	<rect x="8" y="39" class="st15" width="1" height="1"/>
	<rect x="9" y="39" class="st15" width="1" height="1"/>
	<rect x="10" y="39" class="st16" width="1" height="1"/>
	<rect x="11" y="39" class="st16" width="1" height="1"/>
	<rect x="12" y="39" class="st16" width="1" height="1"/>
	<rect x="13" y="39" class="st0" width="1" height="1"/>
	<rect x="14" y="39" class="st0" width="1" height="1"/>
	<rect x="15" y="39" class="st0" width="1" height="1"/>
	<rect x="16" y="39" class="st0" width="1" height="1"/>
	<rect x="17" y="39" class="st0" width="1" height="1"/>
	<rect x="18" y="39" class="st0" width="1" height="1"/>
	<rect x="19" y="39" class="st16" width="1" height="1"/>
	<rect x="20" y="39" class="st16" width="1" height="1"/>
	<rect x="21" y="39" class="st16" width="1" height="1"/>
	<rect x="22" y="39" class="st15" width="1" height="1"/>
	<rect x="23" y="39" class="st15" width="1" height="1"/>
	<rect x="24" y="39" class="st34" width="1" height="1"/>
	<rect x="25" y="39" class="st34" width="1" height="1"/>
	<rect x="26" y="39" class="st0" width="1" height="1"/>
	<rect x="5" y="40" class="st0" width="1" height="1"/>
	<rect x="6" y="40" class="st34" width="1" height="1"/>
	<rect x="7" y="40" class="st34" width="1" height="1"/>
	<rect x="8" y="40" class="st34" width="1" height="1"/>
	<rect x="9" y="40" class="st34" width="1" height="1"/>
	<rect x="10" y="40" class="st15" width="1" height="1"/>
	<rect x="11" y="40" class="st15" width="1" height="1"/>
	<rect x="12" y="40" class="st15" width="1" height="1"/>
	<rect x="13" y="40" class="st16" width="1" height="1"/>
	<rect x="14" y="40" class="st16" width="1" height="1"/>
	<rect x="15" y="40" class="st16" width="1" height="1"/>
	<rect x="16" y="40" class="st16" width="1" height="1"/>
	<rect x="17" y="40" class="st16" width="1" height="1"/>
	<rect x="18" y="40" class="st16" width="1" height="1"/>
	<rect x="19" y="40" class="st15" width="1" height="1"/>
	<rect x="20" y="40" class="st15" width="1" height="1"/>
	<rect x="21" y="40" class="st15" width="1" height="1"/>
	<rect x="22" y="40" class="st34" width="1" height="1"/>
	<rect x="23" y="40" class="st34" width="1" height="1"/>
	<rect x="24" y="40" class="st34" width="1" height="1"/>
	<rect x="25" y="40" class="st34" width="1" height="1"/>
	<rect x="26" y="40" class="st0" width="1" height="1"/>
	<rect x="6" y="41" class="st0" width="1" height="1"/>
	<rect x="7" y="41" class="st34" width="1" height="1"/>
	<rect x="8" y="41" class="st34" width="1" height="1"/>
	<rect x="9" y="41" class="st34" width="1" height="1"/>
	<rect x="10" y="41" class="st34" width="1" height="1"/>
	<rect x="11" y="41" class="st34" width="1" height="1"/>
	<rect x="12" y="41" class="st34" width="1" height="1"/>
	<rect x="13" y="41" class="st15" width="1" height="1"/>
	<rect x="14" y="41" class="st15" width="1" height="1"/>
	<rect x="15" y="41" class="st15" width="1" height="1"/>
	<rect x="16" y="41" class="st15" width="1" height="1"/>
	<rect x="17" y="41" class="st15" width="1" height="1"/>
	<rect x="18" y="41" class="st15" width="1" height="1"/>
	<rect x="19" y="41" class="st34" width="1" height="1"/>
	<rect x="20" y="41" class="st34" width="1" height="1"/>
	<rect x="21" y="41" class="st34" width="1" height="1"/>
	<rect x="22" y="41" class="st34" width="1" height="1"/>
	<rect x="23" y="41" class="st34" width="1" height="1"/>
	<rect x="24" y="41" class="st34" width="1" height="1"/>
	<rect x="25" y="41" class="st0" width="1" height="1"/>
	<rect x="7" y="42" class="st0" width="1" height="1"/>
	<rect x="8" y="42" class="st34" width="1" height="1"/>
	<rect x="9" y="42" class="st34" width="1" height="1"/>
	<rect x="10" y="42" class="st34" width="1" height="1"/>
	<rect x="11" y="42" class="st34" width="1" height="1"/>
	<rect x="12" y="42" class="st34" width="1" height="1"/>
	<rect x="13" y="42" class="st34" width="1" height="1"/>
	<rect x="14" y="42" class="st34" width="1" height="1"/>
	<rect x="15" y="42" class="st34" width="1" height="1"/>
	<rect x="16" y="42" class="st34" width="1" height="1"/>
	<rect x="17" y="42" class="st34" width="1" height="1"/>
	<rect x="18" y="42" class="st34" width="1" height="1"/>
	<rect x="19" y="42" class="st34" width="1" height="1"/>
	<rect x="20" y="42" class="st34" width="1" height="1"/>
	<rect x="21" y="42" class="st34" width="1" height="1"/>
	<rect x="22" y="42" class="st34" width="1" height="1"/>
	<rect x="23" y="42" class="st34" width="1" height="1"/>
	<rect x="24" y="42" class="st0" width="1" height="1"/>
	<rect x="8" y="43" class="st0" width="1" height="1"/>
	<rect x="9" y="43" class="st0" width="1" height="1"/>
	<rect x="10" y="43" class="st34" width="1" height="1"/>
	<rect x="11" y="43" class="st34" width="1" height="1"/>
	<rect x="12" y="43" class="st34" width="1" height="1"/>
	<rect x="13" y="43" class="st34" width="1" height="1"/>
	<rect x="14" y="43" class="st34" width="1" height="1"/>
	<rect x="15" y="43" class="st34" width="1" height="1"/>
	<rect x="16" y="43" class="st34" width="1" height="1"/>
	<rect x="17" y="43" class="st34" width="1" height="1"/>
	<rect x="18" y="43" class="st34" width="1" height="1"/>
	<rect x="19" y="43" class="st34" width="1" height="1"/>
	<rect x="20" y="43" class="st34" width="1" height="1"/>
	<rect x="21" y="43" class="st34" width="1" height="1"/>
	<rect x="22" y="43" class="st0" width="1" height="1"/>
	<rect x="23" y="43" class="st0" width="1" height="1"/>
	<rect x="10" y="44" class="st0" width="1" height="1"/>
	<rect x="11" y="44" class="st0" width="1" height="1"/>
	<rect x="12" y="44" class="st0" width="1" height="1"/>
	<rect x="13" y="44" class="st34" width="1" height="1"/>
	<rect x="14" y="44" class="st34" width="1" height="1"/>
	<rect x="15" y="44" class="st34" width="1" height="1"/>
	<rect x="16" y="44" class="st34" width="1" height="1"/>
	<rect x="17" y="44" class="st34" width="1" height="1"/>
	<rect x="18" y="44" class="st34" width="1" height="1"/>
	<rect x="19" y="44" class="st0" width="1" height="1"/>
	<rect x="20" y="44" class="st0" width="1" height="1"/>
	<rect x="21" y="44" class="st0" width="1" height="1"/>
	<rect x="13" y="45" class="st0" width="1" height="1"/>
	<rect x="14" y="45" class="st0" width="1" height="1"/>
	<rect x="15" y="45" class="st0" width="1" height="1"/>
	<rect x="16" y="45" class="st0" width="1" height="1"/>
	<rect x="17" y="45" class="st0" width="1" height="1"/>
	<rect x="18" y="45" class="st0" width="1" height="1"/>
</g>
</svg>
