<?xml version="1.0" encoding="utf-8"?>
<!-- Generator: Adobe Illustrator 26.0.2, SVG Export Plug-In . SVG Version: 6.00 Build 0)  -->
<svg version="1.1" id="Layer_1" shape-rendering="crispEdges"
	 xmlns="http://www.w3.org/2000/svg" xmlns:xlink="http://www.w3.org/1999/xlink" x="0px" y="0px" viewBox="0 0 32 32"
	 style="enable-background:new 0 0 32 32;" xml:space="preserve">
<style type="text/css">
	.st0{fill:#222034;}
	.st1{fill:#595652;}
	.st2{fill:#323C39;}
	.st3{fill:#454345;}
	.st4{fill:#262E36;}
</style>
<g id="Cat">
	<rect x="21" y="7" class="st0" width="1" height="1"/>
	<rect x="20" y="8" class="st0" width="1" height="1"/>
	<rect x="21" y="8" class="st1" width="1" height="1"/>
	<rect x="22" y="8" class="st0" width="1" height="1"/>
	<rect x="2" y="9" class="st0" width="1" height="1"/>
	<rect x="3" y="9" class="st0" width="1" height="1"/>
	<rect x="4" y="9" class="st0" width="1" height="1"/>
	<rect x="5" y="9" class="st0" width="1" height="1"/>
	<rect x="6" y="9" class="st0" width="1" height="1"/>
	<rect x="20" y="9" class="st0" width="1" height="1"/>
	<rect x="21" y="9" class="st2" width="1" height="1"/>
	<rect x="22" y="9" class="st1" width="1" height="1"/>
	<rect x="23" y="9" class="st0" width="1" height="1"/>
	<rect x="1" y="10" class="st0" width="1" height="1"/>
	<rect x="2" y="10" class="st1" width="1" height="1"/>
	<rect x="3" y="10" class="st1" width="1" height="1"/>
	<rect x="4" y="10" class="st1" width="1" height="1"/>
	<rect x="5" y="10" class="st1" width="1" height="1"/>
	<rect x="6" y="10" class="st1" width="1" height="1"/>
	<rect x="7" y="10" class="st0" width="1" height="1"/>
	<rect x="19" y="10" class="st0" width="1" height="1"/>
	<rect x="20" y="10" class="st0" width="1" height="1"/>
	<rect x="21" y="10" class="st0" width="1" height="1"/>
	<rect x="22" y="10" class="st2" width="1" height="1"/>
	<rect x="23" y="10" class="st2" width="1" height="1"/>
	<rect x="24" y="10" class="st0" width="1" height="1"/>
	<rect x="25" y="10" class="st0" width="1" height="1"/>
	<rect y="11" class="st0" width="1" height="1"/>
	<rect x="1" y="11" class="st1" width="1" height="1"/>
	<rect x="2" y="11" class="st1" width="1" height="1"/>
	<rect x="3" y="11" class="st1" width="1" height="1"/>
	<rect x="4" y="11" class="st1" width="1" height="1"/>
	<rect x="5" y="11" class="st1" width="1" height="1"/>
	<rect x="6" y="11" class="st1" width="1" height="1"/>
	<rect x="7" y="11" class="st1" width="1" height="1"/>
	<rect x="8" y="11" class="st0" width="1" height="1"/>
	<rect x="19" y="11" class="st0" width="1" height="1"/>
	<rect x="20" y="11" class="st3" width="1" height="1"/>
	<rect x="21" y="11" class="st0" width="1" height="1"/>
	<rect x="22" y="11" class="st0" width="1" height="1"/>
	<rect x="23" y="11" class="st2" width="1" height="1"/>
	<rect x="24" y="11" class="st3" width="1" height="1"/>
	<rect x="25" y="11" class="st3" width="1" height="1"/>
	<rect x="26" y="11" class="st0" width="1" height="1"/>
	<rect y="12" class="st0" width="1" height="1"/>
	<rect x="1" y="12" class="st2" width="1" height="1"/>
	<rect x="2" y="12" class="st2" width="1" height="1"/>
	<rect x="3" y="12" class="st0" width="1" height="1"/>
	<rect x="4" y="12" class="st0" width="1" height="1"/>
	<rect x="5" y="12" class="st2" width="1" height="1"/>
	<rect x="6" y="12" class="st3" width="1" height="1"/>
	<rect x="7" y="12" class="st1" width="1" height="1"/>
	<rect x="8" y="12" class="st0" width="1" height="1"/>
	<rect x="19" y="12" class="st0" width="1" height="1"/>
	<rect x="20" y="12" class="st4" width="1" height="1"/>
	<rect x="21" y="12" class="st3" width="1" height="1"/>
	<rect x="22" y="12" class="st0" width="1" height="1"/>
	<rect x="23" y="12" class="st3" width="1" height="1"/>
	<rect x="24" y="12" class="st3" width="1" height="1"/>
	<rect x="25" y="12" class="st1" width="1" height="1"/>
	<rect x="26" y="12" class="st1" width="1" height="1"/>
	<rect x="27" y="12" class="st0" width="1" height="1"/>
	<rect x="1" y="13" class="st0" width="1" height="1"/>
	<rect x="2" y="13" class="st0" width="1" height="1"/>
	<rect x="5" y="13" class="st0" width="1" height="1"/>
	<rect x="6" y="13" class="st3" width="1" height="1"/>
	<rect x="7" y="13" class="st1" width="1" height="1"/>
	<rect x="8" y="13" class="st0" width="1" height="1"/>
	<rect x="19" y="13" class="st0" width="1" height="1"/>
	<rect x="20" y="13" class="st2" width="1" height="1"/>
	<rect x="21" y="13" class="st4" width="1" height="1"/>
	<rect x="22" y="13" class="st2" width="1" height="1"/>
	<rect x="23" y="13" class="st4" width="1" height="1"/>
	<rect x="24" y="13" class="st3" width="1" height="1"/>
	<rect x="25" y="13" class="st1" width="1" height="1"/>
	<rect x="26" y="13" class="st1" width="1" height="1"/>
	<rect x="27" y="13" class="st1" width="1" height="1"/>
	<rect x="28" y="13" class="st0" width="1" height="1"/>
	<rect x="4" y="14" class="st0" width="1" height="1"/>
	<rect x="5" y="14" class="st3" width="1" height="1"/>
	<rect x="6" y="14" class="st3" width="1" height="1"/>
	<rect x="7" y="14" class="st2" width="1" height="1"/>
	<rect x="8" y="14" class="st0" width="1" height="1"/>
	<rect x="19" y="14" class="st0" width="1" height="1"/>
	<rect x="20" y="14" class="st4" width="1" height="1"/>
	<rect x="21" y="14" class="st4" width="1" height="1"/>
	<rect x="22" y="14" class="st2" width="1" height="1"/>
	<rect x="23" y="14" class="st3" width="1" height="1"/>
	<rect x="24" y="14" class="st3" width="1" height="1"/>
	<rect x="25" y="14" class="st3" width="1" height="1"/>
	<rect x="26" y="14" class="st1" width="1" height="1"/>
	<rect x="27" y="14" class="st1" width="1" height="1"/>
	<rect x="28" y="14" class="st0" width="1" height="1"/>
	<rect x="4" y="15" class="st0" width="1" height="1"/>
	<rect x="5" y="15" class="st3" width="1" height="1"/>
	<rect x="6" y="15" class="st2" width="1" height="1"/>
	<rect x="7" y="15" class="st0" width="1" height="1"/>
	<rect x="19" y="15" class="st0" width="1" height="1"/>
	<rect x="20" y="15" class="st2" width="1" height="1"/>
	<rect x="21" y="15" class="st2" width="1" height="1"/>
	<rect x="22" y="15" class="st2" width="1" height="1"/>
	<rect x="23" y="15" class="st3" width="1" height="1"/>
	<rect x="24" y="15" class="st3" width="1" height="1"/>
	<rect x="25" y="15" class="st3" width="1" height="1"/>
	<rect x="26" y="15" class="st3" width="1" height="1"/>
	<rect x="27" y="15" class="st3" width="1" height="1"/>
	<rect x="28" y="15" class="st0" width="1" height="1"/>
	<rect x="3" y="16" class="st0" width="1" height="1"/>
	<rect x="4" y="16" class="st2" width="1" height="1"/>
	<rect x="5" y="16" class="st3" width="1" height="1"/>
	<rect x="6" y="16" class="st0" width="1" height="1"/>
	<rect x="18" y="16" class="st0" width="1" height="1"/>
	<rect x="19" y="16" class="st2" width="1" height="1"/>
	<rect x="20" y="16" class="st2" width="1" height="1"/>
	<rect x="21" y="16" class="st3" width="1" height="1"/>
	<rect x="22" y="16" class="st3" width="1" height="1"/>
	<rect x="23" y="16" class="st3" width="1" height="1"/>
	<rect x="24" y="16" class="st3" width="1" height="1"/>
	<rect x="25" y="16" class="st3" width="1" height="1"/>
	<rect x="26" y="16" class="st0" width="1" height="1"/>
	<rect x="27" y="16" class="st3" width="1" height="1"/>
	<rect x="28" y="16" class="st2" width="1" height="1"/>
	<rect x="29" y="16" class="st0" width="1" height="1"/>
	<rect x="3" y="17" class="st0" width="1" height="1"/>
	<rect x="4" y="17" class="st3" width="1" height="1"/>
	<rect x="5" y="17" class="st2" width="1" height="1"/>
	<rect x="6" y="17" class="st0" width="1" height="1"/>
	<rect x="18" y="17" class="st0" width="1" height="1"/>
	<rect x="19" y="17" class="st2" width="1" height="1"/>
	<rect x="20" y="17" class="st2" width="1" height="1"/>
	<rect x="21" y="17" class="st3" width="1" height="1"/>
	<rect x="22" y="17" class="st3" width="1" height="1"/>
	<rect x="23" y="17" class="st3" width="1" height="1"/>
	<rect x="24" y="17" class="st3" width="1" height="1"/>
	<rect x="25" y="17" class="st3" width="1" height="1"/>
	<rect x="26" y="17" class="st0" width="1" height="1"/>
	<rect x="27" y="17" class="st3" width="1" height="1"/>
	<rect x="28" y="17" class="st3" width="1" height="1"/>
	<rect x="29" y="17" class="st0" width="1" height="1"/>
	<rect x="2" y="18" class="st0" width="1" height="1"/>
	<rect x="3" y="18" class="st2" width="1" height="1"/>
	<rect x="4" y="18" class="st3" width="1" height="1"/>
	<rect x="5" y="18" class="st4" width="1" height="1"/>
	<rect x="6" y="18" class="st2" width="1" height="1"/>
	<rect x="7" y="18" class="st0" width="1" height="1"/>
	<rect x="8" y="18" class="st0" width="1" height="1"/>
	<rect x="9" y="18" class="st0" width="1" height="1"/>
	<rect x="10" y="18" class="st0" width="1" height="1"/>
	<rect x="16" y="18" class="st0" width="1" height="1"/>
	<rect x="17" y="18" class="st0" width="1" height="1"/>
	<rect x="18" y="18" class="st3" width="1" height="1"/>
	<rect x="19" y="18" class="st2" width="1" height="1"/>
	<rect x="20" y="18" class="st2" width="1" height="1"/>
	<rect x="21" y="18" class="st2" width="1" height="1"/>
	<rect x="22" y="18" class="st3" width="1" height="1"/>
	<rect x="23" y="18" class="st0" width="1" height="1"/>
	<rect x="24" y="18" class="st3" width="1" height="1"/>
	<rect x="25" y="18" class="st3" width="1" height="1"/>
	<rect x="26" y="18" class="st3" width="1" height="1"/>
	<rect x="27" y="18" class="st3" width="1" height="1"/>
	<rect x="28" y="18" class="st3" width="1" height="1"/>
	<rect x="29" y="18" class="st0" width="1" height="1"/>
	<rect x="2" y="19" class="st0" width="1" height="1"/>
	<rect x="3" y="19" class="st2" width="1" height="1"/>
	<rect x="4" y="19" class="st3" width="1" height="1"/>
	<rect x="5" y="19" class="st2" width="1" height="1"/>
	<rect x="6" y="19" class="st1" width="1" height="1"/>
	<rect x="7" y="19" class="st1" width="1" height="1"/>
	<rect x="8" y="19" class="st1" width="1" height="1"/>
	<rect x="9" y="19" class="st1" width="1" height="1"/>
	<rect x="10" y="19" class="st1" width="1" height="1"/>
	<rect x="11" y="19" class="st0" width="1" height="1"/>
	<rect x="12" y="19" class="st0" width="1" height="1"/>
	<rect x="13" y="19" class="st0" width="1" height="1"/>
	<rect x="14" y="19" class="st0" width="1" height="1"/>
	<rect x="15" y="19" class="st0" width="1" height="1"/>
	<rect x="16" y="19" class="st1" width="1" height="1"/>
	<rect x="17" y="19" class="st3" width="1" height="1"/>
	<rect x="18" y="19" class="st3" width="1" height="1"/>
	<rect x="19" y="19" class="st2" width="1" height="1"/>
	<rect x="20" y="19" class="st2" width="1" height="1"/>
	<rect x="21" y="19" class="st2" width="1" height="1"/>
	<rect x="22" y="19" class="st0" width="1" height="1"/>
	<rect x="23" y="19" class="st3" width="1" height="1"/>
	<rect x="24" y="19" class="st3" width="1" height="1"/>
	<rect x="25" y="19" class="st3" width="1" height="1"/>
	<rect x="26" y="19" class="st0" width="1" height="1"/>
	<rect x="27" y="19" class="st2" width="1" height="1"/>
	<rect x="28" y="19" class="st0" width="1" height="1"/>
	<rect x="2" y="20" class="st0" width="1" height="1"/>
	<rect x="3" y="20" class="st2" width="1" height="1"/>
	<rect x="4" y="20" class="st3" width="1" height="1"/>
	<rect x="5" y="20" class="st1" width="1" height="1"/>
	<rect x="6" y="20" class="st3" width="1" height="1"/>
	<rect x="7" y="20" class="st1" width="1" height="1"/>
	<rect x="8" y="20" class="st1" width="1" height="1"/>
	<rect x="9" y="20" class="st1" width="1" height="1"/>
	<rect x="10" y="20" class="st1" width="1" height="1"/>
	<rect x="11" y="20" class="st1" width="1" height="1"/>
	<rect x="12" y="20" class="st1" width="1" height="1"/>
	<rect x="13" y="20" class="st1" width="1" height="1"/>
	<rect x="14" y="20" class="st1" width="1" height="1"/>
	<rect x="15" y="20" class="st1" width="1" height="1"/>
	<rect x="16" y="20" class="st3" width="1" height="1"/>
	<rect x="17" y="20" class="st1" width="1" height="1"/>
	<rect x="18" y="20" class="st3" width="1" height="1"/>
	<rect x="19" y="20" class="st3" width="1" height="1"/>
	<rect x="20" y="20" class="st2" width="1" height="1"/>
	<rect x="21" y="20" class="st0" width="1" height="1"/>
	<rect x="22" y="20" class="st4" width="1" height="1"/>
	<rect x="23" y="20" class="st2" width="1" height="1"/>
	<rect x="24" y="20" class="st0" width="1" height="1"/>
	<rect x="25" y="20" class="st0" width="1" height="1"/>
	<rect x="26" y="20" class="st0" width="1" height="1"/>
	<rect x="27" y="20" class="st0" width="1" height="1"/>
	<rect x="3" y="21" class="st0" width="1" height="1"/>
	<rect x="4" y="21" class="st3" width="1" height="1"/>
	<rect x="5" y="21" class="st3" width="1" height="1"/>
	<rect x="6" y="21" class="st1" width="1" height="1"/>
	<rect x="7" y="21" class="st3" width="1" height="1"/>
	<rect x="8" y="21" class="st1" width="1" height="1"/>
	<rect x="9" y="21" class="st1" width="1" height="1"/>
	<rect x="10" y="21" class="st1" width="1" height="1"/>
	<rect x="11" y="21" class="st1" width="1" height="1"/>
	<rect x="12" y="21" class="st1" width="1" height="1"/>
	<rect x="13" y="21" class="st1" width="1" height="1"/>
	<rect x="14" y="21" class="st1" width="1" height="1"/>
	<rect x="15" y="21" class="st3" width="1" height="1"/>
	<rect x="16" y="21" class="st1" width="1" height="1"/>
	<rect x="17" y="21" class="st3" width="1" height="1"/>
	<rect x="18" y="21" class="st3" width="1" height="1"/>
	<rect x="19" y="21" class="st3" width="1" height="1"/>
	<rect x="20" y="21" class="st2" width="1" height="1"/>
	<rect x="21" y="21" class="st2" width="1" height="1"/>
	<rect x="22" y="21" class="st2" width="1" height="1"/>
	<rect x="23" y="21" class="st4" width="1" height="1"/>
	<rect x="24" y="21" class="st0" width="1" height="1"/>
	<rect x="26" y="21" class="st0" width="1" height="1"/>
	<rect x="3" y="22" class="st0" width="1" height="1"/>
	<rect x="4" y="22" class="st3" width="1" height="1"/>
	<rect x="5" y="22" class="st3" width="1" height="1"/>
	<rect x="6" y="22" class="st3" width="1" height="1"/>
	<rect x="7" y="22" class="st3" width="1" height="1"/>
	<rect x="8" y="22" class="st3" width="1" height="1"/>
	<rect x="9" y="22" class="st1" width="1" height="1"/>
	<rect x="10" y="22" class="st3" width="1" height="1"/>
	<rect x="11" y="22" class="st1" width="1" height="1"/>
	<rect x="12" y="22" class="st1" width="1" height="1"/>
	<rect x="13" y="22" class="st1" width="1" height="1"/>
	<rect x="14" y="22" class="st3" width="1" height="1"/>
	<rect x="15" y="22" class="st1" width="1" height="1"/>
	<rect x="16" y="22" class="st3" width="1" height="1"/>
	<rect x="17" y="22" class="st3" width="1" height="1"/>
	<rect x="18" y="22" class="st3" width="1" height="1"/>
	<rect x="19" y="22" class="st3" width="1" height="1"/>
	<rect x="20" y="22" class="st2" width="1" height="1"/>
	<rect x="21" y="22" class="st2" width="1" height="1"/>
	<rect x="22" y="22" class="st2" width="1" height="1"/>
	<rect x="23" y="22" class="st0" width="1" height="1"/>
	<rect x="3" y="23" class="st0" width="1" height="1"/>
	<rect x="4" y="23" class="st3" width="1" height="1"/>
	<rect x="5" y="23" class="st3" width="1" height="1"/>
	<rect x="6" y="23" class="st3" width="1" height="1"/>
	<rect x="7" y="23" class="st3" width="1" height="1"/>
	<rect x="8" y="23" class="st3" width="1" height="1"/>
	<rect x="9" y="23" class="st3" width="1" height="1"/>
	<rect x="10" y="23" class="st3" width="1" height="1"/>
	<rect x="11" y="23" class="st3" width="1" height="1"/>
	<rect x="12" y="23" class="st3" width="1" height="1"/>
	<rect x="13" y="23" class="st3" width="1" height="1"/>
	<rect x="14" y="23" class="st3" width="1" height="1"/>
	<rect x="15" y="23" class="st3" width="1" height="1"/>
	<rect x="16" y="23" class="st3" width="1" height="1"/>
	<rect x="17" y="23" class="st3" width="1" height="1"/>
	<rect x="18" y="23" class="st3" width="1" height="1"/>
	<rect x="19" y="23" class="st3" width="1" height="1"/>
	<rect x="20" y="23" class="st3" width="1" height="1"/>
	<rect x="21" y="23" class="st2" width="1" height="1"/>
	<rect x="22" y="23" class="st2" width="1" height="1"/>
	<rect x="23" y="23" class="st0" width="1" height="1"/>
	<rect x="3" y="24" class="st0" width="1" height="1"/>
	<rect x="4" y="24" class="st3" width="1" height="1"/>
	<rect x="5" y="24" class="st3" width="1" height="1"/>
	<rect x="6" y="24" class="st3" width="1" height="1"/>
	<rect x="7" y="24" class="st3" width="1" height="1"/>
	<rect x="8" y="24" class="st3" width="1" height="1"/>
	<rect x="9" y="24" class="st3" width="1" height="1"/>
	<rect x="10" y="24" class="st3" width="1" height="1"/>
	<rect x="11" y="24" class="st3" width="1" height="1"/>
	<rect x="12" y="24" class="st3" width="1" height="1"/>
	<rect x="13" y="24" class="st3" width="1" height="1"/>
	<rect x="14" y="24" class="st3" width="1" height="1"/>
	<rect x="15" y="24" class="st3" width="1" height="1"/>
	<rect x="16" y="24" class="st3" width="1" height="1"/>
	<rect x="17" y="24" class="st3" width="1" height="1"/>
	<rect x="18" y="24" class="st3" width="1" height="1"/>
	<rect x="19" y="24" class="st3" width="1" height="1"/>
	<rect x="20" y="24" class="st3" width="1" height="1"/>
	<rect x="21" y="24" class="st3" width="1" height="1"/>
	<rect x="22" y="24" class="st2" width="1" height="1"/>
	<rect x="23" y="24" class="st0" width="1" height="1"/>
	<rect x="3" y="25" class="st0" width="1" height="1"/>
	<rect x="4" y="25" class="st2" width="1" height="1"/>
	<rect x="5" y="25" class="st3" width="1" height="1"/>
	<rect x="6" y="25" class="st3" width="1" height="1"/>
	<rect x="7" y="25" class="st3" width="1" height="1"/>
	<rect x="8" y="25" class="st3" width="1" height="1"/>
	<rect x="9" y="25" class="st2" width="1" height="1"/>
	<rect x="10" y="25" class="st2" width="1" height="1"/>
	<rect x="11" y="25" class="st3" width="1" height="1"/>
	<rect x="12" y="25" class="st3" width="1" height="1"/>
	<rect x="13" y="25" class="st3" width="1" height="1"/>
	<rect x="14" y="25" class="st3" width="1" height="1"/>
	<rect x="15" y="25" class="st3" width="1" height="1"/>
	<rect x="16" y="25" class="st2" width="1" height="1"/>
	<rect x="17" y="25" class="st3" width="1" height="1"/>
	<rect x="18" y="25" class="st3" width="1" height="1"/>
	<rect x="19" y="25" class="st3" width="1" height="1"/>
	<rect x="20" y="25" class="st3" width="1" height="1"/>
	<rect x="21" y="25" class="st2" width="1" height="1"/>
	<rect x="22" y="25" class="st0" width="1" height="1"/>
	<rect x="3" y="26" class="st0" width="1" height="1"/>
	<rect x="4" y="26" class="st2" width="1" height="1"/>
	<rect x="5" y="26" class="st3" width="1" height="1"/>
	<rect x="6" y="26" class="st3" width="1" height="1"/>
	<rect x="7" y="26" class="st3" width="1" height="1"/>
	<rect x="8" y="26" class="st3" width="1" height="1"/>
	<rect x="9" y="26" class="st4" width="1" height="1"/>
	<rect x="10" y="26" class="st2" width="1" height="1"/>
	<rect x="11" y="26" class="st2" width="1" height="1"/>
	<rect x="12" y="26" class="st2" width="1" height="1"/>
	<rect x="13" y="26" class="st2" width="1" height="1"/>
	<rect x="14" y="26" class="st2" width="1" height="1"/>
	<rect x="15" y="26" class="st2" width="1" height="1"/>
	<rect x="16" y="26" class="st4" width="1" height="1"/>
	<rect x="17" y="26" class="st3" width="1" height="1"/>
	<rect x="18" y="26" class="st3" width="1" height="1"/>
	<rect x="19" y="26" class="st3" width="1" height="1"/>
	<rect x="20" y="26" class="st3" width="1" height="1"/>
	<rect x="21" y="26" class="st2" width="1" height="1"/>
	<rect x="22" y="26" class="st0" width="1" height="1"/>
	<rect x="4" y="27" class="st0" width="1" height="1"/>
	<rect x="5" y="27" class="st2" width="1" height="1"/>
	<rect x="6" y="27" class="st3" width="1" height="1"/>
	<rect x="7" y="27" class="st3" width="1" height="1"/>
	<rect x="8" y="27" class="st4" width="1" height="1"/>
	<rect x="9" y="27" class="st0" width="1" height="1"/>
	<rect x="10" y="27" class="st4" width="1" height="1"/>
	<rect x="11" y="27" class="st4" width="1" height="1"/>
	<rect x="12" y="27" class="st4" width="1" height="1"/>
	<rect x="13" y="27" class="st4" width="1" height="1"/>
	<rect x="14" y="27" class="st0" width="1" height="1"/>
	<rect x="15" y="27" class="st0" width="1" height="1"/>
	<rect x="16" y="27" class="st4" width="1" height="1"/>
	<rect x="17" y="27" class="st2" width="1" height="1"/>
	<rect x="18" y="27" class="st2" width="1" height="1"/>
	<rect x="19" y="27" class="st2" width="1" height="1"/>
	<rect x="20" y="27" class="st4" width="1" height="1"/>
	<rect x="21" y="27" class="st0" width="1" height="1"/>
	<rect x="22" y="27" class="st0" width="1" height="1"/>
	<rect x="3" y="28" class="st0" width="1" height="1"/>
	<rect x="4" y="28" class="st4" width="1" height="1"/>
	<rect x="5" y="28" class="st0" width="1" height="1"/>
	<rect x="6" y="28" class="st0" width="1" height="1"/>
	<rect x="7" y="28" class="st2" width="1" height="1"/>
	<rect x="8" y="28" class="st2" width="1" height="1"/>
	<rect x="9" y="28" class="st0" width="1" height="1"/>
	<rect x="10" y="28" class="st0" width="1" height="1"/>
	<rect x="11" y="28" class="st0" width="1" height="1"/>
	<rect x="12" y="28" class="st0" width="1" height="1"/>
	<rect x="13" y="28" class="st0" width="1" height="1"/>
	<rect x="16" y="28" class="st0" width="1" height="1"/>
	<rect x="17" y="28" class="st2" width="1" height="1"/>
	<rect x="18" y="28" class="st2" width="1" height="1"/>
	<rect x="19" y="28" class="st2" width="1" height="1"/>
	<rect x="20" y="28" class="st0" width="1" height="1"/>
	<rect x="21" y="28" class="st4" width="1" height="1"/>
	<rect x="22" y="28" class="st0" width="1" height="1"/>
	<rect x="2" y="29" class="st0" width="1" height="1"/>
	<rect x="3" y="29" class="st4" width="1" height="1"/>
	<rect x="4" y="29" class="st4" width="1" height="1"/>
	<rect x="5" y="29" class="st4" width="1" height="1"/>
	<rect x="6" y="29" class="st0" width="1" height="1"/>
	<rect x="7" y="29" class="st2" width="1" height="1"/>
	<rect x="8" y="29" class="st2" width="1" height="1"/>
	<rect x="9" y="29" class="st2" width="1" height="1"/>
	<rect x="10" y="29" class="st0" width="1" height="1"/>
	<rect x="15" y="29" class="st0" width="1" height="1"/>
	<rect x="16" y="29" class="st2" width="1" height="1"/>
	<rect x="17" y="29" class="st2" width="1" height="1"/>
	<rect x="18" y="29" class="st2" width="1" height="1"/>
	<rect x="19" y="29" class="st0" width="1" height="1"/>
	<rect x="20" y="29" class="st4" width="1" height="1"/>
	<rect x="21" y="29" class="st4" width="1" height="1"/>
	<rect x="22" y="29" class="st4" width="1" height="1"/>
	<rect x="23" y="29" class="st0" width="1" height="1"/>
	<rect x="2" y="30" class="st0" width="1" height="1"/>
	<rect x="3" y="30" class="st4" width="1" height="1"/>
	<rect x="4" y="30" class="st4" width="1" height="1"/>
	<rect x="5" y="30" class="st0" width="1" height="1"/>
	<rect x="7" y="30" class="st0" width="1" height="1"/>
	<rect x="8" y="30" class="st3" width="1" height="1"/>
	<rect x="9" y="30" class="st3" width="1" height="1"/>
	<rect x="10" y="30" class="st0" width="1" height="1"/>
	<rect x="15" y="30" class="st0" width="1" height="1"/>
	<rect x="16" y="30" class="st2" width="1" height="1"/>
	<rect x="17" y="30" class="st3" width="1" height="1"/>
	<rect x="18" y="30" class="st0" width="1" height="1"/>
	<rect x="20" y="30" class="st0" width="1" height="1"/>
	<rect x="21" y="30" class="st4" width="1" height="1"/>
	<rect x="22" y="30" class="st4" width="1" height="1"/>
	<rect x="23" y="30" class="st0" width="1" height="1"/>
	<rect x="2" y="31" class="st0" width="1" height="1"/>
	<rect x="3" y="31" class="st0" width="1" height="1"/>
	<rect x="4" y="31" class="st0" width="1" height="1"/>
	<rect x="8" y="31" class="st0" width="1" height="1"/>
	<rect x="9" y="31" class="st0" width="1" height="1"/>
	<rect x="16" y="31" class="st0" width="1" height="1"/>
	<rect x="17" y="31" class="st0" width="1" height="1"/>
	<rect x="21" y="31" class="st0" width="1" height="1"/>
	<rect x="22" y="31" class="st0" width="1" height="1"/>
	<rect x="23" y="31" class="st0" width="1" height="1"/>
</g>
</svg>
