<?xml version="1.0" encoding="utf-8"?>
<!-- Generator: Adobe Illustrator 26.0.2, SVG Export Plug-In . SVG Version: 6.00 Build 0)  -->
<svg version="1.1" id="Layer_1" shape-rendering="crispEdges"
	 xmlns="http://www.w3.org/2000/svg" xmlns:xlink="http://www.w3.org/1999/xlink" x="0px" y="0px" viewBox="0 0 32 64"
	 style="enable-background:new 0 0 32 64;" xml:space="preserve">
<style type="text/css">
	.st0{fill:#222034;}
	.st1{fill:#AC3232;}
	.st2{fill:#86242D;}
	.st3{fill:#D95763;}
	.st4{fill:#595652;}
</style>
<g id="chair">
	<rect x="12" y="23" class="st0" width="1" height="1"/>
	<rect x="13" y="23" class="st0" width="1" height="1"/>
	<rect x="14" y="23" class="st0" width="1" height="1"/>
	<rect x="15" y="23" class="st0" width="1" height="1"/>
	<rect x="16" y="23" class="st0" width="1" height="1"/>
	<rect x="17" y="23" class="st0" width="1" height="1"/>
	<rect x="18" y="23" class="st0" width="1" height="1"/>
	<rect x="19" y="23" class="st0" width="1" height="1"/>
	<rect x="8" y="24" class="st0" width="1" height="1"/>
	<rect x="9" y="24" class="st0" width="1" height="1"/>
	<rect x="10" y="24" class="st0" width="1" height="1"/>
	<rect x="11" y="24" class="st0" width="1" height="1"/>
	<rect x="12" y="24" class="st1" width="1" height="1"/>
	<rect x="13" y="24" class="st1" width="1" height="1"/>
	<rect x="14" y="24" class="st1" width="1" height="1"/>
	<rect x="15" y="24" class="st1" width="1" height="1"/>
	<rect x="16" y="24" class="st1" width="1" height="1"/>
	<rect x="17" y="24" class="st1" width="1" height="1"/>
	<rect x="18" y="24" class="st1" width="1" height="1"/>
	<rect x="19" y="24" class="st1" width="1" height="1"/>
	<rect x="20" y="24" class="st0" width="1" height="1"/>
	<rect x="21" y="24" class="st0" width="1" height="1"/>
	<rect x="22" y="24" class="st0" width="1" height="1"/>
	<rect x="23" y="24" class="st0" width="1" height="1"/>
	<rect x="7" y="25" class="st0" width="1" height="1"/>
	<rect x="8" y="25" class="st1" width="1" height="1"/>
	<rect x="9" y="25" class="st1" width="1" height="1"/>
	<rect x="10" y="25" class="st1" width="1" height="1"/>
	<rect x="11" y="25" class="st1" width="1" height="1"/>
	<rect x="12" y="25" class="st1" width="1" height="1"/>
	<rect x="13" y="25" class="st1" width="1" height="1"/>
	<rect x="14" y="25" class="st1" width="1" height="1"/>
	<rect x="15" y="25" class="st1" width="1" height="1"/>
	<rect x="16" y="25" class="st1" width="1" height="1"/>
	<rect x="17" y="25" class="st1" width="1" height="1"/>
	<rect x="18" y="25" class="st1" width="1" height="1"/>
	<rect x="19" y="25" class="st1" width="1" height="1"/>
	<rect x="20" y="25" class="st1" width="1" height="1"/>
	<rect x="21" y="25" class="st1" width="1" height="1"/>
	<rect x="22" y="25" class="st1" width="1" height="1"/>
	<rect x="23" y="25" class="st1" width="1" height="1"/>
	<rect x="24" y="25" class="st0" width="1" height="1"/>
	<rect x="7" y="26" class="st0" width="1" height="1"/>
	<rect x="8" y="26" class="st1" width="1" height="1"/>
	<rect x="9" y="26" class="st1" width="1" height="1"/>
	<rect x="10" y="26" class="st1" width="1" height="1"/>
	<rect x="11" y="26" class="st1" width="1" height="1"/>
	<rect x="12" y="26" class="st1" width="1" height="1"/>
	<rect x="13" y="26" class="st1" width="1" height="1"/>
	<rect x="14" y="26" class="st1" width="1" height="1"/>
	<rect x="15" y="26" class="st1" width="1" height="1"/>
	<rect x="16" y="26" class="st1" width="1" height="1"/>
	<rect x="17" y="26" class="st1" width="1" height="1"/>
	<rect x="18" y="26" class="st1" width="1" height="1"/>
	<rect x="19" y="26" class="st1" width="1" height="1"/>
	<rect x="20" y="26" class="st1" width="1" height="1"/>
	<rect x="21" y="26" class="st1" width="1" height="1"/>
	<rect x="22" y="26" class="st1" width="1" height="1"/>
	<rect x="23" y="26" class="st1" width="1" height="1"/>
	<rect x="24" y="26" class="st0" width="1" height="1"/>
	<rect x="7" y="27" class="st0" width="1" height="1"/>
	<rect x="8" y="27" class="st1" width="1" height="1"/>
	<rect x="9" y="27" class="st1" width="1" height="1"/>
	<rect x="10" y="27" class="st1" width="1" height="1"/>
	<rect x="11" y="27" class="st1" width="1" height="1"/>
	<rect x="12" y="27" class="st1" width="1" height="1"/>
	<rect x="13" y="27" class="st1" width="1" height="1"/>
	<rect x="14" y="27" class="st1" width="1" height="1"/>
	<rect x="15" y="27" class="st1" width="1" height="1"/>
	<rect x="16" y="27" class="st1" width="1" height="1"/>
	<rect x="17" y="27" class="st1" width="1" height="1"/>
	<rect x="18" y="27" class="st1" width="1" height="1"/>
	<rect x="19" y="27" class="st1" width="1" height="1"/>
	<rect x="20" y="27" class="st1" width="1" height="1"/>
	<rect x="21" y="27" class="st1" width="1" height="1"/>
	<rect x="22" y="27" class="st1" width="1" height="1"/>
	<rect x="23" y="27" class="st1" width="1" height="1"/>
	<rect x="24" y="27" class="st0" width="1" height="1"/>
	<rect x="7" y="28" class="st0" width="1" height="1"/>
	<rect x="8" y="28" class="st1" width="1" height="1"/>
	<rect x="9" y="28" class="st1" width="1" height="1"/>
	<rect x="10" y="28" class="st1" width="1" height="1"/>
	<rect x="11" y="28" class="st1" width="1" height="1"/>
	<rect x="12" y="28" class="st1" width="1" height="1"/>
	<rect x="13" y="28" class="st1" width="1" height="1"/>
	<rect x="14" y="28" class="st1" width="1" height="1"/>
	<rect x="15" y="28" class="st1" width="1" height="1"/>
	<rect x="16" y="28" class="st1" width="1" height="1"/>
	<rect x="17" y="28" class="st1" width="1" height="1"/>
	<rect x="18" y="28" class="st1" width="1" height="1"/>
	<rect x="19" y="28" class="st1" width="1" height="1"/>
	<rect x="20" y="28" class="st1" width="1" height="1"/>
	<rect x="21" y="28" class="st1" width="1" height="1"/>
	<rect x="22" y="28" class="st1" width="1" height="1"/>
	<rect x="23" y="28" class="st1" width="1" height="1"/>
	<rect x="24" y="28" class="st0" width="1" height="1"/>
	<rect x="7" y="29" class="st0" width="1" height="1"/>
	<rect x="8" y="29" class="st1" width="1" height="1"/>
	<rect x="9" y="29" class="st1" width="1" height="1"/>
	<rect x="10" y="29" class="st1" width="1" height="1"/>
	<rect x="11" y="29" class="st1" width="1" height="1"/>
	<rect x="12" y="29" class="st1" width="1" height="1"/>
	<rect x="13" y="29" class="st1" width="1" height="1"/>
	<rect x="14" y="29" class="st1" width="1" height="1"/>
	<rect x="15" y="29" class="st1" width="1" height="1"/>
	<rect x="16" y="29" class="st1" width="1" height="1"/>
	<rect x="17" y="29" class="st1" width="1" height="1"/>
	<rect x="18" y="29" class="st1" width="1" height="1"/>
	<rect x="19" y="29" class="st1" width="1" height="1"/>
	<rect x="20" y="29" class="st1" width="1" height="1"/>
	<rect x="21" y="29" class="st1" width="1" height="1"/>
	<rect x="22" y="29" class="st1" width="1" height="1"/>
	<rect x="23" y="29" class="st1" width="1" height="1"/>
	<rect x="24" y="29" class="st0" width="1" height="1"/>
	<rect x="7" y="30" class="st0" width="1" height="1"/>
	<rect x="8" y="30" class="st1" width="1" height="1"/>
	<rect x="9" y="30" class="st1" width="1" height="1"/>
	<rect x="10" y="30" class="st1" width="1" height="1"/>
	<rect x="11" y="30" class="st1" width="1" height="1"/>
	<rect x="12" y="30" class="st1" width="1" height="1"/>
	<rect x="13" y="30" class="st1" width="1" height="1"/>
	<rect x="14" y="30" class="st1" width="1" height="1"/>
	<rect x="15" y="30" class="st1" width="1" height="1"/>
	<rect x="16" y="30" class="st1" width="1" height="1"/>
	<rect x="17" y="30" class="st1" width="1" height="1"/>
	<rect x="18" y="30" class="st1" width="1" height="1"/>
	<rect x="19" y="30" class="st1" width="1" height="1"/>
	<rect x="20" y="30" class="st1" width="1" height="1"/>
	<rect x="21" y="30" class="st1" width="1" height="1"/>
	<rect x="22" y="30" class="st1" width="1" height="1"/>
	<rect x="23" y="30" class="st1" width="1" height="1"/>
	<rect x="24" y="30" class="st0" width="1" height="1"/>
	<rect x="7" y="31" class="st0" width="1" height="1"/>
	<rect x="8" y="31" class="st1" width="1" height="1"/>
	<rect x="9" y="31" class="st1" width="1" height="1"/>
	<rect x="10" y="31" class="st1" width="1" height="1"/>
	<rect x="11" y="31" class="st1" width="1" height="1"/>
	<rect x="12" y="31" class="st2" width="1" height="1"/>
	<rect x="13" y="31" class="st2" width="1" height="1"/>
	<rect x="14" y="31" class="st2" width="1" height="1"/>
	<rect x="15" y="31" class="st2" width="1" height="1"/>
	<rect x="16" y="31" class="st2" width="1" height="1"/>
	<rect x="17" y="31" class="st2" width="1" height="1"/>
	<rect x="18" y="31" class="st2" width="1" height="1"/>
	<rect x="19" y="31" class="st2" width="1" height="1"/>
	<rect x="20" y="31" class="st1" width="1" height="1"/>
	<rect x="21" y="31" class="st1" width="1" height="1"/>
	<rect x="22" y="31" class="st1" width="1" height="1"/>
	<rect x="23" y="31" class="st1" width="1" height="1"/>
	<rect x="24" y="31" class="st0" width="1" height="1"/>
	<rect x="7" y="32" class="st0" width="1" height="1"/>
	<rect x="8" y="32" class="st2" width="1" height="1"/>
	<rect x="9" y="32" class="st1" width="1" height="1"/>
	<rect x="10" y="32" class="st1" width="1" height="1"/>
	<rect x="11" y="32" class="st2" width="1" height="1"/>
	<rect x="12" y="32" class="st2" width="1" height="1"/>
	<rect x="13" y="32" class="st2" width="1" height="1"/>
	<rect x="14" y="32" class="st2" width="1" height="1"/>
	<rect x="15" y="32" class="st2" width="1" height="1"/>
	<rect x="16" y="32" class="st2" width="1" height="1"/>
	<rect x="17" y="32" class="st2" width="1" height="1"/>
	<rect x="18" y="32" class="st2" width="1" height="1"/>
	<rect x="19" y="32" class="st2" width="1" height="1"/>
	<rect x="20" y="32" class="st2" width="1" height="1"/>
	<rect x="21" y="32" class="st2" width="1" height="1"/>
	<rect x="22" y="32" class="st1" width="1" height="1"/>
	<rect x="23" y="32" class="st2" width="1" height="1"/>
	<rect x="24" y="32" class="st0" width="1" height="1"/>
	<rect x="7" y="33" class="st0" width="1" height="1"/>
	<rect x="8" y="33" class="st2" width="1" height="1"/>
	<rect x="9" y="33" class="st2" width="1" height="1"/>
	<rect x="10" y="33" class="st2" width="1" height="1"/>
	<rect x="11" y="33" class="st2" width="1" height="1"/>
	<rect x="12" y="33" class="st2" width="1" height="1"/>
	<rect x="13" y="33" class="st2" width="1" height="1"/>
	<rect x="14" y="33" class="st2" width="1" height="1"/>
	<rect x="15" y="33" class="st2" width="1" height="1"/>
	<rect x="16" y="33" class="st2" width="1" height="1"/>
	<rect x="17" y="33" class="st2" width="1" height="1"/>
	<rect x="18" y="33" class="st2" width="1" height="1"/>
	<rect x="19" y="33" class="st2" width="1" height="1"/>
	<rect x="20" y="33" class="st2" width="1" height="1"/>
	<rect x="21" y="33" class="st2" width="1" height="1"/>
	<rect x="22" y="33" class="st2" width="1" height="1"/>
	<rect x="23" y="33" class="st2" width="1" height="1"/>
	<rect x="24" y="33" class="st0" width="1" height="1"/>
	<rect x="7" y="34" class="st0" width="1" height="1"/>
	<rect x="8" y="34" class="st2" width="1" height="1"/>
	<rect x="9" y="34" class="st2" width="1" height="1"/>
	<rect x="10" y="34" class="st2" width="1" height="1"/>
	<rect x="11" y="34" class="st2" width="1" height="1"/>
	<rect x="12" y="34" class="st2" width="1" height="1"/>
	<rect x="13" y="34" class="st2" width="1" height="1"/>
	<rect x="14" y="34" class="st2" width="1" height="1"/>
	<rect x="15" y="34" class="st2" width="1" height="1"/>
	<rect x="16" y="34" class="st2" width="1" height="1"/>
	<rect x="17" y="34" class="st2" width="1" height="1"/>
	<rect x="18" y="34" class="st2" width="1" height="1"/>
	<rect x="19" y="34" class="st2" width="1" height="1"/>
	<rect x="20" y="34" class="st2" width="1" height="1"/>
	<rect x="21" y="34" class="st2" width="1" height="1"/>
	<rect x="22" y="34" class="st2" width="1" height="1"/>
	<rect x="23" y="34" class="st2" width="1" height="1"/>
	<rect x="24" y="34" class="st0" width="1" height="1"/>
	<rect x="7" y="35" class="st0" width="1" height="1"/>
	<rect x="8" y="35" class="st2" width="1" height="1"/>
	<rect x="9" y="35" class="st2" width="1" height="1"/>
	<rect x="10" y="35" class="st2" width="1" height="1"/>
	<rect x="11" y="35" class="st2" width="1" height="1"/>
	<rect x="12" y="35" class="st2" width="1" height="1"/>
	<rect x="13" y="35" class="st2" width="1" height="1"/>
	<rect x="14" y="35" class="st2" width="1" height="1"/>
	<rect x="15" y="35" class="st2" width="1" height="1"/>
	<rect x="16" y="35" class="st2" width="1" height="1"/>
	<rect x="17" y="35" class="st2" width="1" height="1"/>
	<rect x="18" y="35" class="st2" width="1" height="1"/>
	<rect x="19" y="35" class="st2" width="1" height="1"/>
	<rect x="20" y="35" class="st2" width="1" height="1"/>
	<rect x="21" y="35" class="st2" width="1" height="1"/>
	<rect x="22" y="35" class="st2" width="1" height="1"/>
	<rect x="23" y="35" class="st2" width="1" height="1"/>
	<rect x="24" y="35" class="st0" width="1" height="1"/>
	<rect x="7" y="36" class="st0" width="1" height="1"/>
	<rect x="8" y="36" class="st2" width="1" height="1"/>
	<rect x="9" y="36" class="st2" width="1" height="1"/>
	<rect x="10" y="36" class="st2" width="1" height="1"/>
	<rect x="11" y="36" class="st2" width="1" height="1"/>
	<rect x="12" y="36" class="st2" width="1" height="1"/>
	<rect x="13" y="36" class="st1" width="1" height="1"/>
	<rect x="14" y="36" class="st1" width="1" height="1"/>
	<rect x="15" y="36" class="st1" width="1" height="1"/>
	<rect x="16" y="36" class="st1" width="1" height="1"/>
	<rect x="17" y="36" class="st1" width="1" height="1"/>
	<rect x="18" y="36" class="st1" width="1" height="1"/>
	<rect x="19" y="36" class="st1" width="1" height="1"/>
	<rect x="20" y="36" class="st2" width="1" height="1"/>
	<rect x="21" y="36" class="st2" width="1" height="1"/>
	<rect x="22" y="36" class="st2" width="1" height="1"/>
	<rect x="23" y="36" class="st2" width="1" height="1"/>
	<rect x="24" y="36" class="st0" width="1" height="1"/>
	<rect x="7" y="37" class="st0" width="1" height="1"/>
	<rect x="8" y="37" class="st1" width="1" height="1"/>
	<rect x="9" y="37" class="st1" width="1" height="1"/>
	<rect x="10" y="37" class="st1" width="1" height="1"/>
	<rect x="11" y="37" class="st1" width="1" height="1"/>
	<rect x="12" y="37" class="st1" width="1" height="1"/>
	<rect x="13" y="37" class="st1" width="1" height="1"/>
	<rect x="14" y="37" class="st1" width="1" height="1"/>
	<rect x="15" y="37" class="st1" width="1" height="1"/>
	<rect x="16" y="37" class="st1" width="1" height="1"/>
	<rect x="17" y="37" class="st1" width="1" height="1"/>
	<rect x="18" y="37" class="st1" width="1" height="1"/>
	<rect x="19" y="37" class="st1" width="1" height="1"/>
	<rect x="20" y="37" class="st1" width="1" height="1"/>
	<rect x="21" y="37" class="st1" width="1" height="1"/>
	<rect x="22" y="37" class="st1" width="1" height="1"/>
	<rect x="23" y="37" class="st1" width="1" height="1"/>
	<rect x="24" y="37" class="st0" width="1" height="1"/>
	<rect x="6" y="38" class="st0" width="1" height="1"/>
	<rect x="7" y="38" class="st1" width="1" height="1"/>
	<rect x="8" y="38" class="st1" width="1" height="1"/>
	<rect x="9" y="38" class="st1" width="1" height="1"/>
	<rect x="10" y="38" class="st1" width="1" height="1"/>
	<rect x="11" y="38" class="st1" width="1" height="1"/>
	<rect x="12" y="38" class="st1" width="1" height="1"/>
	<rect x="13" y="38" class="st1" width="1" height="1"/>
	<rect x="14" y="38" class="st1" width="1" height="1"/>
	<rect x="15" y="38" class="st1" width="1" height="1"/>
	<rect x="16" y="38" class="st1" width="1" height="1"/>
	<rect x="17" y="38" class="st1" width="1" height="1"/>
	<rect x="18" y="38" class="st1" width="1" height="1"/>
	<rect x="19" y="38" class="st1" width="1" height="1"/>
	<rect x="20" y="38" class="st1" width="1" height="1"/>
	<rect x="21" y="38" class="st1" width="1" height="1"/>
	<rect x="22" y="38" class="st1" width="1" height="1"/>
	<rect x="23" y="38" class="st1" width="1" height="1"/>
	<rect x="24" y="38" class="st1" width="1" height="1"/>
	<rect x="25" y="38" class="st0" width="1" height="1"/>
	<rect x="6" y="39" class="st0" width="1" height="1"/>
	<rect x="7" y="39" class="st1" width="1" height="1"/>
	<rect x="8" y="39" class="st1" width="1" height="1"/>
	<rect x="9" y="39" class="st1" width="1" height="1"/>
	<rect x="10" y="39" class="st1" width="1" height="1"/>
	<rect x="11" y="39" class="st1" width="1" height="1"/>
	<rect x="12" y="39" class="st1" width="1" height="1"/>
	<rect x="13" y="39" class="st1" width="1" height="1"/>
	<rect x="14" y="39" class="st1" width="1" height="1"/>
	<rect x="15" y="39" class="st1" width="1" height="1"/>
	<rect x="16" y="39" class="st1" width="1" height="1"/>
	<rect x="17" y="39" class="st1" width="1" height="1"/>
	<rect x="18" y="39" class="st1" width="1" height="1"/>
	<rect x="19" y="39" class="st1" width="1" height="1"/>
	<rect x="20" y="39" class="st1" width="1" height="1"/>
	<rect x="21" y="39" class="st1" width="1" height="1"/>
	<rect x="22" y="39" class="st1" width="1" height="1"/>
	<rect x="23" y="39" class="st1" width="1" height="1"/>
	<rect x="24" y="39" class="st1" width="1" height="1"/>
	<rect x="25" y="39" class="st0" width="1" height="1"/>
	<rect x="6" y="40" class="st0" width="1" height="1"/>
	<rect x="7" y="40" class="st1" width="1" height="1"/>
	<rect x="8" y="40" class="st1" width="1" height="1"/>
	<rect x="9" y="40" class="st1" width="1" height="1"/>
	<rect x="10" y="40" class="st1" width="1" height="1"/>
	<rect x="11" y="40" class="st1" width="1" height="1"/>
	<rect x="12" y="40" class="st1" width="1" height="1"/>
	<rect x="13" y="40" class="st1" width="1" height="1"/>
	<rect x="14" y="40" class="st1" width="1" height="1"/>
	<rect x="15" y="40" class="st1" width="1" height="1"/>
	<rect x="16" y="40" class="st1" width="1" height="1"/>
	<rect x="17" y="40" class="st1" width="1" height="1"/>
	<rect x="18" y="40" class="st1" width="1" height="1"/>
	<rect x="19" y="40" class="st1" width="1" height="1"/>
	<rect x="20" y="40" class="st1" width="1" height="1"/>
	<rect x="21" y="40" class="st1" width="1" height="1"/>
	<rect x="22" y="40" class="st1" width="1" height="1"/>
	<rect x="23" y="40" class="st1" width="1" height="1"/>
	<rect x="24" y="40" class="st1" width="1" height="1"/>
	<rect x="25" y="40" class="st0" width="1" height="1"/>
	<rect x="6" y="41" class="st0" width="1" height="1"/>
	<rect x="7" y="41" class="st1" width="1" height="1"/>
	<rect x="8" y="41" class="st1" width="1" height="1"/>
	<rect x="9" y="41" class="st1" width="1" height="1"/>
	<rect x="10" y="41" class="st1" width="1" height="1"/>
	<rect x="11" y="41" class="st1" width="1" height="1"/>
	<rect x="12" y="41" class="st1" width="1" height="1"/>
	<rect x="13" y="41" class="st1" width="1" height="1"/>
	<rect x="14" y="41" class="st1" width="1" height="1"/>
	<rect x="15" y="41" class="st1" width="1" height="1"/>
	<rect x="16" y="41" class="st1" width="1" height="1"/>
	<rect x="17" y="41" class="st1" width="1" height="1"/>
	<rect x="18" y="41" class="st1" width="1" height="1"/>
	<rect x="19" y="41" class="st1" width="1" height="1"/>
	<rect x="20" y="41" class="st1" width="1" height="1"/>
	<rect x="21" y="41" class="st1" width="1" height="1"/>
	<rect x="22" y="41" class="st1" width="1" height="1"/>
	<rect x="23" y="41" class="st1" width="1" height="1"/>
	<rect x="24" y="41" class="st1" width="1" height="1"/>
	<rect x="25" y="41" class="st0" width="1" height="1"/>
	<rect x="6" y="42" class="st0" width="1" height="1"/>
	<rect x="7" y="42" class="st1" width="1" height="1"/>
	<rect x="8" y="42" class="st1" width="1" height="1"/>
	<rect x="9" y="42" class="st1" width="1" height="1"/>
	<rect x="10" y="42" class="st1" width="1" height="1"/>
	<rect x="11" y="42" class="st1" width="1" height="1"/>
	<rect x="12" y="42" class="st1" width="1" height="1"/>
	<rect x="13" y="42" class="st1" width="1" height="1"/>
	<rect x="14" y="42" class="st1" width="1" height="1"/>
	<rect x="15" y="42" class="st1" width="1" height="1"/>
	<rect x="16" y="42" class="st1" width="1" height="1"/>
	<rect x="17" y="42" class="st1" width="1" height="1"/>
	<rect x="18" y="42" class="st1" width="1" height="1"/>
	<rect x="19" y="42" class="st1" width="1" height="1"/>
	<rect x="20" y="42" class="st1" width="1" height="1"/>
	<rect x="21" y="42" class="st1" width="1" height="1"/>
	<rect x="22" y="42" class="st1" width="1" height="1"/>
	<rect x="23" y="42" class="st1" width="1" height="1"/>
	<rect x="24" y="42" class="st1" width="1" height="1"/>
	<rect x="25" y="42" class="st0" width="1" height="1"/>
	<rect x="6" y="43" class="st0" width="1" height="1"/>
	<rect x="7" y="43" class="st1" width="1" height="1"/>
	<rect x="8" y="43" class="st1" width="1" height="1"/>
	<rect x="9" y="43" class="st1" width="1" height="1"/>
	<rect x="10" y="43" class="st1" width="1" height="1"/>
	<rect x="11" y="43" class="st1" width="1" height="1"/>
	<rect x="12" y="43" class="st1" width="1" height="1"/>
	<rect x="13" y="43" class="st1" width="1" height="1"/>
	<rect x="14" y="43" class="st1" width="1" height="1"/>
	<rect x="15" y="43" class="st1" width="1" height="1"/>
	<rect x="16" y="43" class="st1" width="1" height="1"/>
	<rect x="17" y="43" class="st1" width="1" height="1"/>
	<rect x="18" y="43" class="st1" width="1" height="1"/>
	<rect x="19" y="43" class="st1" width="1" height="1"/>
	<rect x="20" y="43" class="st1" width="1" height="1"/>
	<rect x="21" y="43" class="st1" width="1" height="1"/>
	<rect x="22" y="43" class="st1" width="1" height="1"/>
	<rect x="23" y="43" class="st1" width="1" height="1"/>
	<rect x="24" y="43" class="st1" width="1" height="1"/>
	<rect x="25" y="43" class="st0" width="1" height="1"/>
	<rect x="6" y="44" class="st0" width="1" height="1"/>
	<rect x="7" y="44" class="st3" width="1" height="1"/>
	<rect x="8" y="44" class="st1" width="1" height="1"/>
	<rect x="9" y="44" class="st1" width="1" height="1"/>
	<rect x="10" y="44" class="st1" width="1" height="1"/>
	<rect x="11" y="44" class="st1" width="1" height="1"/>
	<rect x="12" y="44" class="st1" width="1" height="1"/>
	<rect x="13" y="44" class="st1" width="1" height="1"/>
	<rect x="14" y="44" class="st1" width="1" height="1"/>
	<rect x="15" y="44" class="st1" width="1" height="1"/>
	<rect x="16" y="44" class="st1" width="1" height="1"/>
	<rect x="17" y="44" class="st1" width="1" height="1"/>
	<rect x="18" y="44" class="st1" width="1" height="1"/>
	<rect x="19" y="44" class="st1" width="1" height="1"/>
	<rect x="20" y="44" class="st1" width="1" height="1"/>
	<rect x="21" y="44" class="st1" width="1" height="1"/>
	<rect x="22" y="44" class="st1" width="1" height="1"/>
	<rect x="23" y="44" class="st1" width="1" height="1"/>
	<rect x="24" y="44" class="st3" width="1" height="1"/>
	<rect x="25" y="44" class="st0" width="1" height="1"/>
	<rect x="6" y="45" class="st0" width="1" height="1"/>
	<rect x="7" y="45" class="st3" width="1" height="1"/>
	<rect x="8" y="45" class="st1" width="1" height="1"/>
	<rect x="9" y="45" class="st1" width="1" height="1"/>
	<rect x="10" y="45" class="st1" width="1" height="1"/>
	<rect x="11" y="45" class="st1" width="1" height="1"/>
	<rect x="12" y="45" class="st1" width="1" height="1"/>
	<rect x="13" y="45" class="st1" width="1" height="1"/>
	<rect x="14" y="45" class="st1" width="1" height="1"/>
	<rect x="15" y="45" class="st1" width="1" height="1"/>
	<rect x="16" y="45" class="st1" width="1" height="1"/>
	<rect x="17" y="45" class="st1" width="1" height="1"/>
	<rect x="18" y="45" class="st1" width="1" height="1"/>
	<rect x="19" y="45" class="st1" width="1" height="1"/>
	<rect x="20" y="45" class="st1" width="1" height="1"/>
	<rect x="21" y="45" class="st1" width="1" height="1"/>
	<rect x="22" y="45" class="st1" width="1" height="1"/>
	<rect x="23" y="45" class="st1" width="1" height="1"/>
	<rect x="24" y="45" class="st3" width="1" height="1"/>
	<rect x="25" y="45" class="st0" width="1" height="1"/>
	<rect x="6" y="46" class="st0" width="1" height="1"/>
	<rect x="7" y="46" class="st2" width="1" height="1"/>
	<rect x="8" y="46" class="st3" width="1" height="1"/>
	<rect x="9" y="46" class="st3" width="1" height="1"/>
	<rect x="10" y="46" class="st1" width="1" height="1"/>
	<rect x="11" y="46" class="st1" width="1" height="1"/>
	<rect x="12" y="46" class="st1" width="1" height="1"/>
	<rect x="13" y="46" class="st1" width="1" height="1"/>
	<rect x="14" y="46" class="st1" width="1" height="1"/>
	<rect x="15" y="46" class="st1" width="1" height="1"/>
	<rect x="16" y="46" class="st1" width="1" height="1"/>
	<rect x="17" y="46" class="st1" width="1" height="1"/>
	<rect x="18" y="46" class="st1" width="1" height="1"/>
	<rect x="19" y="46" class="st1" width="1" height="1"/>
	<rect x="20" y="46" class="st1" width="1" height="1"/>
	<rect x="21" y="46" class="st1" width="1" height="1"/>
	<rect x="22" y="46" class="st3" width="1" height="1"/>
	<rect x="23" y="46" class="st3" width="1" height="1"/>
	<rect x="24" y="46" class="st2" width="1" height="1"/>
	<rect x="25" y="46" class="st0" width="1" height="1"/>
	<rect x="6" y="47" class="st0" width="1" height="1"/>
	<rect x="7" y="47" class="st0" width="1" height="1"/>
	<rect x="8" y="47" class="st2" width="1" height="1"/>
	<rect x="9" y="47" class="st2" width="1" height="1"/>
	<rect x="10" y="47" class="st3" width="1" height="1"/>
	<rect x="11" y="47" class="st3" width="1" height="1"/>
	<rect x="12" y="47" class="st3" width="1" height="1"/>
	<rect x="13" y="47" class="st3" width="1" height="1"/>
	<rect x="14" y="47" class="st3" width="1" height="1"/>
	<rect x="15" y="47" class="st3" width="1" height="1"/>
	<rect x="16" y="47" class="st3" width="1" height="1"/>
	<rect x="17" y="47" class="st3" width="1" height="1"/>
	<rect x="18" y="47" class="st3" width="1" height="1"/>
	<rect x="19" y="47" class="st3" width="1" height="1"/>
	<rect x="20" y="47" class="st3" width="1" height="1"/>
	<rect x="21" y="47" class="st3" width="1" height="1"/>
	<rect x="22" y="47" class="st2" width="1" height="1"/>
	<rect x="23" y="47" class="st2" width="1" height="1"/>
	<rect x="24" y="47" class="st0" width="1" height="1"/>
	<rect x="25" y="47" class="st0" width="1" height="1"/>
	<rect x="6" y="48" class="st0" width="1" height="1"/>
	<rect x="7" y="48" class="st4" width="1" height="1"/>
	<rect x="8" y="48" class="st0" width="1" height="1"/>
	<rect x="9" y="48" class="st0" width="1" height="1"/>
	<rect x="10" y="48" class="st2" width="1" height="1"/>
	<rect x="11" y="48" class="st2" width="1" height="1"/>
	<rect x="12" y="48" class="st2" width="1" height="1"/>
	<rect x="13" y="48" class="st2" width="1" height="1"/>
	<rect x="14" y="48" class="st2" width="1" height="1"/>
	<rect x="15" y="48" class="st2" width="1" height="1"/>
	<rect x="16" y="48" class="st2" width="1" height="1"/>
	<rect x="17" y="48" class="st2" width="1" height="1"/>
	<rect x="18" y="48" class="st2" width="1" height="1"/>
	<rect x="19" y="48" class="st2" width="1" height="1"/>
	<rect x="20" y="48" class="st2" width="1" height="1"/>
	<rect x="21" y="48" class="st2" width="1" height="1"/>
	<rect x="22" y="48" class="st0" width="1" height="1"/>
	<rect x="23" y="48" class="st0" width="1" height="1"/>
	<rect x="24" y="48" class="st4" width="1" height="1"/>
	<rect x="25" y="48" class="st0" width="1" height="1"/>
	<rect x="6" y="49" class="st0" width="1" height="1"/>
	<rect x="7" y="49" class="st4" width="1" height="1"/>
	<rect x="8" y="49" class="st4" width="1" height="1"/>
	<rect x="9" y="49" class="st4" width="1" height="1"/>
	<rect x="10" y="49" class="st0" width="1" height="1"/>
	<rect x="11" y="49" class="st0" width="1" height="1"/>
	<rect x="12" y="49" class="st0" width="1" height="1"/>
	<rect x="13" y="49" class="st0" width="1" height="1"/>
	<rect x="14" y="49" class="st0" width="1" height="1"/>
	<rect x="15" y="49" class="st0" width="1" height="1"/>
	<rect x="16" y="49" class="st0" width="1" height="1"/>
	<rect x="17" y="49" class="st0" width="1" height="1"/>
	<rect x="18" y="49" class="st0" width="1" height="1"/>
	<rect x="19" y="49" class="st0" width="1" height="1"/>
	<rect x="20" y="49" class="st0" width="1" height="1"/>
	<rect x="21" y="49" class="st0" width="1" height="1"/>
	<rect x="22" y="49" class="st4" width="1" height="1"/>
	<rect x="23" y="49" class="st4" width="1" height="1"/>
	<rect x="24" y="49" class="st4" width="1" height="1"/>
	<rect x="25" y="49" class="st0" width="1" height="1"/>
	<rect x="7" y="50" class="st0" width="1" height="1"/>
	<rect x="8" y="50" class="st4" width="1" height="1"/>
	<rect x="9" y="50" class="st4" width="1" height="1"/>
	<rect x="10" y="50" class="st4" width="1" height="1"/>
	<rect x="11" y="50" class="st4" width="1" height="1"/>
	<rect x="12" y="50" class="st4" width="1" height="1"/>
	<rect x="13" y="50" class="st4" width="1" height="1"/>
	<rect x="14" y="50" class="st4" width="1" height="1"/>
	<rect x="15" y="50" class="st4" width="1" height="1"/>
	<rect x="16" y="50" class="st4" width="1" height="1"/>
	<rect x="17" y="50" class="st4" width="1" height="1"/>
	<rect x="18" y="50" class="st4" width="1" height="1"/>
	<rect x="19" y="50" class="st4" width="1" height="1"/>
	<rect x="20" y="50" class="st4" width="1" height="1"/>
	<rect x="21" y="50" class="st4" width="1" height="1"/>
	<rect x="22" y="50" class="st4" width="1" height="1"/>
	<rect x="23" y="50" class="st4" width="1" height="1"/>
	<rect x="24" y="50" class="st0" width="1" height="1"/>
	<rect x="7" y="51" class="st0" width="1" height="1"/>
	<rect x="8" y="51" class="st4" width="1" height="1"/>
	<rect x="9" y="51" class="st4" width="1" height="1"/>
	<rect x="10" y="51" class="st4" width="1" height="1"/>
	<rect x="11" y="51" class="st0" width="1" height="1"/>
	<rect x="12" y="51" class="st0" width="1" height="1"/>
	<rect x="13" y="51" class="st0" width="1" height="1"/>
	<rect x="14" y="51" class="st0" width="1" height="1"/>
	<rect x="15" y="51" class="st0" width="1" height="1"/>
	<rect x="16" y="51" class="st0" width="1" height="1"/>
	<rect x="17" y="51" class="st0" width="1" height="1"/>
	<rect x="18" y="51" class="st0" width="1" height="1"/>
	<rect x="19" y="51" class="st0" width="1" height="1"/>
	<rect x="20" y="51" class="st0" width="1" height="1"/>
	<rect x="21" y="51" class="st4" width="1" height="1"/>
	<rect x="22" y="51" class="st4" width="1" height="1"/>
	<rect x="23" y="51" class="st4" width="1" height="1"/>
	<rect x="24" y="51" class="st0" width="1" height="1"/>
	<rect x="7" y="52" class="st0" width="1" height="1"/>
	<rect x="8" y="52" class="st4" width="1" height="1"/>
	<rect x="9" y="52" class="st4" width="1" height="1"/>
	<rect x="10" y="52" class="st0" width="1" height="1"/>
	<rect x="21" y="52" class="st0" width="1" height="1"/>
	<rect x="22" y="52" class="st4" width="1" height="1"/>
	<rect x="23" y="52" class="st4" width="1" height="1"/>
	<rect x="24" y="52" class="st0" width="1" height="1"/>
	<rect x="7" y="53" class="st0" width="1" height="1"/>
	<rect x="8" y="53" class="st4" width="1" height="1"/>
	<rect x="9" y="53" class="st0" width="1" height="1"/>
	<rect x="22" y="53" class="st0" width="1" height="1"/>
	<rect x="23" y="53" class="st4" width="1" height="1"/>
	<rect x="24" y="53" class="st0" width="1" height="1"/>
	<rect x="7" y="54" class="st0" width="1" height="1"/>
	<rect x="8" y="54" class="st0" width="1" height="1"/>
	<rect x="9" y="54" class="st0" width="1" height="1"/>
	<rect x="22" y="54" class="st0" width="1" height="1"/>
	<rect x="23" y="54" class="st0" width="1" height="1"/>
	<rect x="24" y="54" class="st0" width="1" height="1"/>
</g>
</svg>
