<?xml version="1.0" encoding="utf-8"?>
<!-- Generator: Adobe Illustrator 26.0.2, SVG Export Plug-In . SVG Version: 6.00 Build 0)  -->
<svg version="1.1" id="Layer_1" shape-rendering="crispEdges"
	 xmlns="http://www.w3.org/2000/svg" xmlns:xlink="http://www.w3.org/1999/xlink" x="0px" y="0px" viewBox="0 0 32 64"
	 style="enable-background:new 0 0 32 64;" xml:space="preserve">
<style type="text/css">
	.st0{fill:#222034;}
	.st1{fill:#8F563B;}
	.st2{fill:#663931;}
	.st3{fill:#C4824E;}
	.st4{fill:#D9A066;}
	.st5{fill:#45283C;}
	.st6{fill:#EEC39A;}
	.st7{fill:#9BADB7;}
	.st8{fill:#F0B829;}
	.st9{fill:#847E87;}
	.st10{fill:#696A6A;}
	.st11{fill:#595652;}
	.st12{fill:#454345;}
	.st13{fill:#323C39;}
	.st14{fill:#86242D;}
</style>
<g id="gramaphone">
	<rect x="25" y="18" class="st0" width="1" height="1"/>
	<rect x="26" y="18" class="st0" width="1" height="1"/>
	<rect x="27" y="18" class="st0" width="1" height="1"/>
	<rect x="24" y="19" class="st0" width="1" height="1"/>
	<rect x="25" y="19" class="st1" width="1" height="1"/>
	<rect x="26" y="19" class="st1" width="1" height="1"/>
	<rect x="27" y="19" class="st2" width="1" height="1"/>
	<rect x="28" y="19" class="st0" width="1" height="1"/>
	<rect x="23" y="20" class="st0" width="1" height="1"/>
	<rect x="24" y="20" class="st2" width="1" height="1"/>
	<rect x="25" y="20" class="st3" width="1" height="1"/>
	<rect x="26" y="20" class="st2" width="1" height="1"/>
	<rect x="27" y="20" class="st1" width="1" height="1"/>
	<rect x="28" y="20" class="st0" width="1" height="1"/>
	<rect x="22" y="21" class="st0" width="1" height="1"/>
	<rect x="23" y="21" class="st2" width="1" height="1"/>
	<rect x="24" y="21" class="st4" width="1" height="1"/>
	<rect x="25" y="21" class="st2" width="1" height="1"/>
	<rect x="26" y="21" class="st5" width="1" height="1"/>
	<rect x="27" y="21" class="st2" width="1" height="1"/>
	<rect x="28" y="21" class="st1" width="1" height="1"/>
	<rect x="29" y="21" class="st0" width="1" height="1"/>
	<rect x="21" y="22" class="st0" width="1" height="1"/>
	<rect x="22" y="22" class="st1" width="1" height="1"/>
	<rect x="23" y="22" class="st2" width="1" height="1"/>
	<rect x="24" y="22" class="st6" width="1" height="1"/>
	<rect x="25" y="22" class="st5" width="1" height="1"/>
	<rect x="26" y="22" class="st2" width="1" height="1"/>
	<rect x="27" y="22" class="st5" width="1" height="1"/>
	<rect x="28" y="22" class="st2" width="1" height="1"/>
	<rect x="29" y="22" class="st0" width="1" height="1"/>
	<rect x="20" y="23" class="st0" width="1" height="1"/>
	<rect x="21" y="23" class="st1" width="1" height="1"/>
	<rect x="22" y="23" class="st2" width="1" height="1"/>
	<rect x="23" y="23" class="st6" width="1" height="1"/>
	<rect x="24" y="23" class="st0" width="1" height="1"/>
	<rect x="25" y="23" class="st5" width="1" height="1"/>
	<rect x="26" y="23" class="st5" width="1" height="1"/>
	<rect x="27" y="23" class="st2" width="1" height="1"/>
	<rect x="28" y="23" class="st1" width="1" height="1"/>
	<rect x="29" y="23" class="st0" width="1" height="1"/>
	<rect x="18" y="24" class="st0" width="1" height="1"/>
	<rect x="19" y="24" class="st0" width="1" height="1"/>
	<rect x="20" y="24" class="st2" width="1" height="1"/>
	<rect x="21" y="24" class="st1" width="1" height="1"/>
	<rect x="22" y="24" class="st2" width="1" height="1"/>
	<rect x="23" y="24" class="st4" width="1" height="1"/>
	<rect x="24" y="24" class="st0" width="1" height="1"/>
	<rect x="25" y="24" class="st5" width="1" height="1"/>
	<rect x="26" y="24" class="st5" width="1" height="1"/>
	<rect x="27" y="24" class="st2" width="1" height="1"/>
	<rect x="28" y="24" class="st1" width="1" height="1"/>
	<rect x="29" y="24" class="st2" width="1" height="1"/>
	<rect x="30" y="24" class="st0" width="1" height="1"/>
	<rect x="16" y="25" class="st0" width="1" height="1"/>
	<rect x="17" y="25" class="st0" width="1" height="1"/>
	<rect x="18" y="25" class="st1" width="1" height="1"/>
	<rect x="19" y="25" class="st1" width="1" height="1"/>
	<rect x="20" y="25" class="st1" width="1" height="1"/>
	<rect x="21" y="25" class="st1" width="1" height="1"/>
	<rect x="22" y="25" class="st2" width="1" height="1"/>
	<rect x="23" y="25" class="st4" width="1" height="1"/>
	<rect x="24" y="25" class="st0" width="1" height="1"/>
	<rect x="25" y="25" class="st5" width="1" height="1"/>
	<rect x="26" y="25" class="st5" width="1" height="1"/>
	<rect x="27" y="25" class="st5" width="1" height="1"/>
	<rect x="28" y="25" class="st2" width="1" height="1"/>
	<rect x="29" y="25" class="st2" width="1" height="1"/>
	<rect x="30" y="25" class="st0" width="1" height="1"/>
	<rect x="14" y="26" class="st0" width="1" height="1"/>
	<rect x="15" y="26" class="st0" width="1" height="1"/>
	<rect x="16" y="26" class="st1" width="1" height="1"/>
	<rect x="17" y="26" class="st1" width="1" height="1"/>
	<rect x="18" y="26" class="st2" width="1" height="1"/>
	<rect x="19" y="26" class="st1" width="1" height="1"/>
	<rect x="20" y="26" class="st1" width="1" height="1"/>
	<rect x="21" y="26" class="st1" width="1" height="1"/>
	<rect x="22" y="26" class="st2" width="1" height="1"/>
	<rect x="23" y="26" class="st3" width="1" height="1"/>
	<rect x="24" y="26" class="st0" width="1" height="1"/>
	<rect x="25" y="26" class="st5" width="1" height="1"/>
	<rect x="26" y="26" class="st5" width="1" height="1"/>
	<rect x="27" y="26" class="st2" width="1" height="1"/>
	<rect x="28" y="26" class="st2" width="1" height="1"/>
	<rect x="29" y="26" class="st1" width="1" height="1"/>
	<rect x="30" y="26" class="st0" width="1" height="1"/>
	<rect x="11" y="27" class="st0" width="1" height="1"/>
	<rect x="12" y="27" class="st0" width="1" height="1"/>
	<rect x="13" y="27" class="st0" width="1" height="1"/>
	<rect x="14" y="27" class="st1" width="1" height="1"/>
	<rect x="15" y="27" class="st1" width="1" height="1"/>
	<rect x="16" y="27" class="st1" width="1" height="1"/>
	<rect x="17" y="27" class="st1" width="1" height="1"/>
	<rect x="18" y="27" class="st1" width="1" height="1"/>
	<rect x="19" y="27" class="st1" width="1" height="1"/>
	<rect x="20" y="27" class="st1" width="1" height="1"/>
	<rect x="21" y="27" class="st2" width="1" height="1"/>
	<rect x="22" y="27" class="st1" width="1" height="1"/>
	<rect x="23" y="27" class="st0" width="1" height="1"/>
	<rect x="24" y="27" class="st0" width="1" height="1"/>
	<rect x="25" y="27" class="st5" width="1" height="1"/>
	<rect x="26" y="27" class="st5" width="1" height="1"/>
	<rect x="27" y="27" class="st2" width="1" height="1"/>
	<rect x="28" y="27" class="st2" width="1" height="1"/>
	<rect x="29" y="27" class="st1" width="1" height="1"/>
	<rect x="30" y="27" class="st0" width="1" height="1"/>
	<rect x="8" y="28" class="st0" width="1" height="1"/>
	<rect x="9" y="28" class="st0" width="1" height="1"/>
	<rect x="10" y="28" class="st0" width="1" height="1"/>
	<rect x="11" y="28" class="st1" width="1" height="1"/>
	<rect x="12" y="28" class="st1" width="1" height="1"/>
	<rect x="13" y="28" class="st1" width="1" height="1"/>
	<rect x="14" y="28" class="st1" width="1" height="1"/>
	<rect x="15" y="28" class="st1" width="1" height="1"/>
	<rect x="16" y="28" class="st1" width="1" height="1"/>
	<rect x="17" y="28" class="st1" width="1" height="1"/>
	<rect x="18" y="28" class="st1" width="1" height="1"/>
	<rect x="19" y="28" class="st1" width="1" height="1"/>
	<rect x="20" y="28" class="st1" width="1" height="1"/>
	<rect x="21" y="28" class="st2" width="1" height="1"/>
	<rect x="22" y="28" class="st1" width="1" height="1"/>
	<rect x="23" y="28" class="st0" width="1" height="1"/>
	<rect x="24" y="28" class="st0" width="1" height="1"/>
	<rect x="25" y="28" class="st5" width="1" height="1"/>
	<rect x="26" y="28" class="st5" width="1" height="1"/>
	<rect x="27" y="28" class="st2" width="1" height="1"/>
	<rect x="28" y="28" class="st2" width="1" height="1"/>
	<rect x="29" y="28" class="st1" width="1" height="1"/>
	<rect x="30" y="28" class="st0" width="1" height="1"/>
	<rect x="4" y="29" class="st0" width="1" height="1"/>
	<rect x="5" y="29" class="st0" width="1" height="1"/>
	<rect x="6" y="29" class="st0" width="1" height="1"/>
	<rect x="7" y="29" class="st0" width="1" height="1"/>
	<rect x="8" y="29" class="st3" width="1" height="1"/>
	<rect x="9" y="29" class="st1" width="1" height="1"/>
	<rect x="10" y="29" class="st1" width="1" height="1"/>
	<rect x="11" y="29" class="st1" width="1" height="1"/>
	<rect x="12" y="29" class="st1" width="1" height="1"/>
	<rect x="13" y="29" class="st1" width="1" height="1"/>
	<rect x="14" y="29" class="st1" width="1" height="1"/>
	<rect x="15" y="29" class="st1" width="1" height="1"/>
	<rect x="16" y="29" class="st1" width="1" height="1"/>
	<rect x="17" y="29" class="st2" width="1" height="1"/>
	<rect x="18" y="29" class="st1" width="1" height="1"/>
	<rect x="19" y="29" class="st1" width="1" height="1"/>
	<rect x="20" y="29" class="st1" width="1" height="1"/>
	<rect x="21" y="29" class="st2" width="1" height="1"/>
	<rect x="22" y="29" class="st1" width="1" height="1"/>
	<rect x="23" y="29" class="st0" width="1" height="1"/>
	<rect x="24" y="29" class="st0" width="1" height="1"/>
	<rect x="25" y="29" class="st5" width="1" height="1"/>
	<rect x="26" y="29" class="st5" width="1" height="1"/>
	<rect x="27" y="29" class="st5" width="1" height="1"/>
	<rect x="28" y="29" class="st2" width="1" height="1"/>
	<rect x="29" y="29" class="st1" width="1" height="1"/>
	<rect x="30" y="29" class="st0" width="1" height="1"/>
	<rect x="3" y="30" class="st0" width="1" height="1"/>
	<rect x="4" y="30" class="st7" width="1" height="1"/>
	<rect x="5" y="30" class="st7" width="1" height="1"/>
	<rect x="6" y="30" class="st7" width="1" height="1"/>
	<rect x="7" y="30" class="st7" width="1" height="1"/>
	<rect x="8" y="30" class="st8" width="1" height="1"/>
	<rect x="9" y="30" class="st1" width="1" height="1"/>
	<rect x="10" y="30" class="st1" width="1" height="1"/>
	<rect x="11" y="30" class="st1" width="1" height="1"/>
	<rect x="12" y="30" class="st1" width="1" height="1"/>
	<rect x="13" y="30" class="st1" width="1" height="1"/>
	<rect x="14" y="30" class="st1" width="1" height="1"/>
	<rect x="15" y="30" class="st1" width="1" height="1"/>
	<rect x="16" y="30" class="st1" width="1" height="1"/>
	<rect x="17" y="30" class="st1" width="1" height="1"/>
	<rect x="18" y="30" class="st1" width="1" height="1"/>
	<rect x="19" y="30" class="st1" width="1" height="1"/>
	<rect x="20" y="30" class="st1" width="1" height="1"/>
	<rect x="21" y="30" class="st2" width="1" height="1"/>
	<rect x="22" y="30" class="st1" width="1" height="1"/>
	<rect x="23" y="30" class="st0" width="1" height="1"/>
	<rect x="24" y="30" class="st0" width="1" height="1"/>
	<rect x="25" y="30" class="st5" width="1" height="1"/>
	<rect x="26" y="30" class="st5" width="1" height="1"/>
	<rect x="27" y="30" class="st2" width="1" height="1"/>
	<rect x="28" y="30" class="st2" width="1" height="1"/>
	<rect x="29" y="30" class="st1" width="1" height="1"/>
	<rect x="30" y="30" class="st0" width="1" height="1"/>
	<rect x="2" y="31" class="st0" width="1" height="1"/>
	<rect x="3" y="31" class="st7" width="1" height="1"/>
	<rect x="4" y="31" class="st9" width="1" height="1"/>
	<rect x="5" y="31" class="st9" width="1" height="1"/>
	<rect x="6" y="31" class="st9" width="1" height="1"/>
	<rect x="7" y="31" class="st9" width="1" height="1"/>
	<rect x="8" y="31" class="st1" width="1" height="1"/>
	<rect x="9" y="31" class="st2" width="1" height="1"/>
	<rect x="10" y="31" class="st2" width="1" height="1"/>
	<rect x="11" y="31" class="st2" width="1" height="1"/>
	<rect x="12" y="31" class="st2" width="1" height="1"/>
	<rect x="13" y="31" class="st2" width="1" height="1"/>
	<rect x="14" y="31" class="st2" width="1" height="1"/>
	<rect x="15" y="31" class="st2" width="1" height="1"/>
	<rect x="16" y="31" class="st2" width="1" height="1"/>
	<rect x="17" y="31" class="st2" width="1" height="1"/>
	<rect x="18" y="31" class="st2" width="1" height="1"/>
	<rect x="19" y="31" class="st2" width="1" height="1"/>
	<rect x="20" y="31" class="st2" width="1" height="1"/>
	<rect x="21" y="31" class="st2" width="1" height="1"/>
	<rect x="22" y="31" class="st1" width="1" height="1"/>
	<rect x="23" y="31" class="st0" width="1" height="1"/>
	<rect x="24" y="31" class="st0" width="1" height="1"/>
	<rect x="25" y="31" class="st5" width="1" height="1"/>
	<rect x="26" y="31" class="st5" width="1" height="1"/>
	<rect x="27" y="31" class="st2" width="1" height="1"/>
	<rect x="28" y="31" class="st2" width="1" height="1"/>
	<rect x="29" y="31" class="st1" width="1" height="1"/>
	<rect x="30" y="31" class="st0" width="1" height="1"/>
	<rect x="2" y="32" class="st0" width="1" height="1"/>
	<rect x="3" y="32" class="st7" width="1" height="1"/>
	<rect x="4" y="32" class="st9" width="1" height="1"/>
	<rect x="5" y="32" class="st0" width="1" height="1"/>
	<rect x="6" y="32" class="st0" width="1" height="1"/>
	<rect x="7" y="32" class="st0" width="1" height="1"/>
	<rect x="8" y="32" class="st1" width="1" height="1"/>
	<rect x="9" y="32" class="st2" width="1" height="1"/>
	<rect x="10" y="32" class="st2" width="1" height="1"/>
	<rect x="11" y="32" class="st2" width="1" height="1"/>
	<rect x="12" y="32" class="st2" width="1" height="1"/>
	<rect x="13" y="32" class="st2" width="1" height="1"/>
	<rect x="14" y="32" class="st2" width="1" height="1"/>
	<rect x="15" y="32" class="st2" width="1" height="1"/>
	<rect x="16" y="32" class="st2" width="1" height="1"/>
	<rect x="17" y="32" class="st5" width="1" height="1"/>
	<rect x="18" y="32" class="st2" width="1" height="1"/>
	<rect x="19" y="32" class="st2" width="1" height="1"/>
	<rect x="20" y="32" class="st2" width="1" height="1"/>
	<rect x="21" y="32" class="st2" width="1" height="1"/>
	<rect x="22" y="32" class="st1" width="1" height="1"/>
	<rect x="23" y="32" class="st0" width="1" height="1"/>
	<rect x="24" y="32" class="st0" width="1" height="1"/>
	<rect x="25" y="32" class="st5" width="1" height="1"/>
	<rect x="26" y="32" class="st5" width="1" height="1"/>
	<rect x="27" y="32" class="st2" width="1" height="1"/>
	<rect x="28" y="32" class="st2" width="1" height="1"/>
	<rect x="29" y="32" class="st1" width="1" height="1"/>
	<rect x="30" y="32" class="st0" width="1" height="1"/>
	<rect x="1" y="33" class="st0" width="1" height="1"/>
	<rect x="2" y="33" class="st9" width="1" height="1"/>
	<rect x="3" y="33" class="st7" width="1" height="1"/>
	<rect x="4" y="33" class="st9" width="1" height="1"/>
	<rect x="5" y="33" class="st10" width="1" height="1"/>
	<rect x="6" y="33" class="st0" width="1" height="1"/>
	<rect x="8" y="33" class="st0" width="1" height="1"/>
	<rect x="9" y="33" class="st0" width="1" height="1"/>
	<rect x="10" y="33" class="st2" width="1" height="1"/>
	<rect x="11" y="33" class="st2" width="1" height="1"/>
	<rect x="12" y="33" class="st2" width="1" height="1"/>
	<rect x="13" y="33" class="st2" width="1" height="1"/>
	<rect x="14" y="33" class="st2" width="1" height="1"/>
	<rect x="15" y="33" class="st2" width="1" height="1"/>
	<rect x="16" y="33" class="st2" width="1" height="1"/>
	<rect x="17" y="33" class="st2" width="1" height="1"/>
	<rect x="18" y="33" class="st2" width="1" height="1"/>
	<rect x="19" y="33" class="st2" width="1" height="1"/>
	<rect x="20" y="33" class="st2" width="1" height="1"/>
	<rect x="21" y="33" class="st2" width="1" height="1"/>
	<rect x="22" y="33" class="st1" width="1" height="1"/>
	<rect x="23" y="33" class="st0" width="1" height="1"/>
	<rect x="24" y="33" class="st0" width="1" height="1"/>
	<rect x="25" y="33" class="st5" width="1" height="1"/>
	<rect x="26" y="33" class="st5" width="1" height="1"/>
	<rect x="27" y="33" class="st5" width="1" height="1"/>
	<rect x="28" y="33" class="st2" width="1" height="1"/>
	<rect x="29" y="33" class="st1" width="1" height="1"/>
	<rect x="30" y="33" class="st0" width="1" height="1"/>
	<rect x="2" y="34" class="st0" width="1" height="1"/>
	<rect x="3" y="34" class="st9" width="1" height="1"/>
	<rect x="4" y="34" class="st10" width="1" height="1"/>
	<rect x="5" y="34" class="st0" width="1" height="1"/>
	<rect x="10" y="34" class="st0" width="1" height="1"/>
	<rect x="11" y="34" class="st0" width="1" height="1"/>
	<rect x="12" y="34" class="st2" width="1" height="1"/>
	<rect x="13" y="34" class="st2" width="1" height="1"/>
	<rect x="14" y="34" class="st2" width="1" height="1"/>
	<rect x="15" y="34" class="st2" width="1" height="1"/>
	<rect x="16" y="34" class="st2" width="1" height="1"/>
	<rect x="17" y="34" class="st2" width="1" height="1"/>
	<rect x="18" y="34" class="st2" width="1" height="1"/>
	<rect x="19" y="34" class="st2" width="1" height="1"/>
	<rect x="20" y="34" class="st2" width="1" height="1"/>
	<rect x="21" y="34" class="st2" width="1" height="1"/>
	<rect x="22" y="34" class="st1" width="1" height="1"/>
	<rect x="23" y="34" class="st0" width="1" height="1"/>
	<rect x="24" y="34" class="st0" width="1" height="1"/>
	<rect x="25" y="34" class="st5" width="1" height="1"/>
	<rect x="26" y="34" class="st5" width="1" height="1"/>
	<rect x="27" y="34" class="st2" width="1" height="1"/>
	<rect x="28" y="34" class="st2" width="1" height="1"/>
	<rect x="29" y="34" class="st1" width="1" height="1"/>
	<rect x="30" y="34" class="st0" width="1" height="1"/>
	<rect x="2" y="35" class="st0" width="1" height="1"/>
	<rect x="3" y="35" class="st11" width="1" height="1"/>
	<rect x="4" y="35" class="st12" width="1" height="1"/>
	<rect x="5" y="35" class="st0" width="1" height="1"/>
	<rect x="12" y="35" class="st0" width="1" height="1"/>
	<rect x="13" y="35" class="st0" width="1" height="1"/>
	<rect x="14" y="35" class="st2" width="1" height="1"/>
	<rect x="15" y="35" class="st2" width="1" height="1"/>
	<rect x="16" y="35" class="st2" width="1" height="1"/>
	<rect x="17" y="35" class="st2" width="1" height="1"/>
	<rect x="18" y="35" class="st5" width="1" height="1"/>
	<rect x="19" y="35" class="st2" width="1" height="1"/>
	<rect x="20" y="35" class="st2" width="1" height="1"/>
	<rect x="21" y="35" class="st2" width="1" height="1"/>
	<rect x="22" y="35" class="st2" width="1" height="1"/>
	<rect x="23" y="35" class="st1" width="1" height="1"/>
	<rect x="24" y="35" class="st0" width="1" height="1"/>
	<rect x="25" y="35" class="st5" width="1" height="1"/>
	<rect x="26" y="35" class="st5" width="1" height="1"/>
	<rect x="27" y="35" class="st2" width="1" height="1"/>
	<rect x="28" y="35" class="st2" width="1" height="1"/>
	<rect x="29" y="35" class="st1" width="1" height="1"/>
	<rect x="30" y="35" class="st0" width="1" height="1"/>
	<rect x="3" y="36" class="st0" width="1" height="1"/>
	<rect x="4" y="36" class="st7" width="1" height="1"/>
	<rect x="5" y="36" class="st10" width="1" height="1"/>
	<rect x="6" y="36" class="st0" width="1" height="1"/>
	<rect x="10" y="36" class="st0" width="1" height="1"/>
	<rect x="11" y="36" class="st0" width="1" height="1"/>
	<rect x="14" y="36" class="st0" width="1" height="1"/>
	<rect x="15" y="36" class="st0" width="1" height="1"/>
	<rect x="16" y="36" class="st2" width="1" height="1"/>
	<rect x="17" y="36" class="st2" width="1" height="1"/>
	<rect x="18" y="36" class="st2" width="1" height="1"/>
	<rect x="19" y="36" class="st2" width="1" height="1"/>
	<rect x="20" y="36" class="st2" width="1" height="1"/>
	<rect x="21" y="36" class="st2" width="1" height="1"/>
	<rect x="22" y="36" class="st2" width="1" height="1"/>
	<rect x="23" y="36" class="st1" width="1" height="1"/>
	<rect x="24" y="36" class="st0" width="1" height="1"/>
	<rect x="25" y="36" class="st5" width="1" height="1"/>
	<rect x="26" y="36" class="st5" width="1" height="1"/>
	<rect x="27" y="36" class="st2" width="1" height="1"/>
	<rect x="28" y="36" class="st2" width="1" height="1"/>
	<rect x="29" y="36" class="st1" width="1" height="1"/>
	<rect x="30" y="36" class="st0" width="1" height="1"/>
	<rect x="4" y="37" class="st0" width="1" height="1"/>
	<rect x="5" y="37" class="st7" width="1" height="1"/>
	<rect x="6" y="37" class="st10" width="1" height="1"/>
	<rect x="7" y="37" class="st0" width="1" height="1"/>
	<rect x="8" y="37" class="st0" width="1" height="1"/>
	<rect x="9" y="37" class="st0" width="1" height="1"/>
	<rect x="10" y="37" class="st7" width="1" height="1"/>
	<rect x="11" y="37" class="st7" width="1" height="1"/>
	<rect x="12" y="37" class="st0" width="1" height="1"/>
	<rect x="13" y="37" class="st0" width="1" height="1"/>
	<rect x="14" y="37" class="st0" width="1" height="1"/>
	<rect x="15" y="37" class="st0" width="1" height="1"/>
	<rect x="16" y="37" class="st0" width="1" height="1"/>
	<rect x="17" y="37" class="st0" width="1" height="1"/>
	<rect x="18" y="37" class="st2" width="1" height="1"/>
	<rect x="19" y="37" class="st5" width="1" height="1"/>
	<rect x="20" y="37" class="st2" width="1" height="1"/>
	<rect x="21" y="37" class="st2" width="1" height="1"/>
	<rect x="22" y="37" class="st2" width="1" height="1"/>
	<rect x="23" y="37" class="st1" width="1" height="1"/>
	<rect x="24" y="37" class="st0" width="1" height="1"/>
	<rect x="25" y="37" class="st5" width="1" height="1"/>
	<rect x="26" y="37" class="st5" width="1" height="1"/>
	<rect x="27" y="37" class="st5" width="1" height="1"/>
	<rect x="28" y="37" class="st2" width="1" height="1"/>
	<rect x="29" y="37" class="st1" width="1" height="1"/>
	<rect x="30" y="37" class="st0" width="1" height="1"/>
	<rect x="5" y="38" class="st0" width="1" height="1"/>
	<rect x="6" y="38" class="st7" width="1" height="1"/>
	<rect x="7" y="38" class="st10" width="1" height="1"/>
	<rect x="8" y="38" class="st11" width="1" height="1"/>
	<rect x="9" y="38" class="st7" width="1" height="1"/>
	<rect x="10" y="38" class="st2" width="1" height="1"/>
	<rect x="11" y="38" class="st5" width="1" height="1"/>
	<rect x="12" y="38" class="st9" width="1" height="1"/>
	<rect x="13" y="38" class="st1" width="1" height="1"/>
	<rect x="14" y="38" class="st1" width="1" height="1"/>
	<rect x="15" y="38" class="st1" width="1" height="1"/>
	<rect x="16" y="38" class="st1" width="1" height="1"/>
	<rect x="17" y="38" class="st1" width="1" height="1"/>
	<rect x="18" y="38" class="st0" width="1" height="1"/>
	<rect x="19" y="38" class="st0" width="1" height="1"/>
	<rect x="20" y="38" class="st2" width="1" height="1"/>
	<rect x="21" y="38" class="st2" width="1" height="1"/>
	<rect x="22" y="38" class="st2" width="1" height="1"/>
	<rect x="23" y="38" class="st1" width="1" height="1"/>
	<rect x="24" y="38" class="st0" width="1" height="1"/>
	<rect x="25" y="38" class="st5" width="1" height="1"/>
	<rect x="26" y="38" class="st5" width="1" height="1"/>
	<rect x="27" y="38" class="st2" width="1" height="1"/>
	<rect x="28" y="38" class="st2" width="1" height="1"/>
	<rect x="29" y="38" class="st2" width="1" height="1"/>
	<rect x="30" y="38" class="st0" width="1" height="1"/>
	<rect x="5" y="39" class="st0" width="1" height="1"/>
	<rect x="6" y="39" class="st0" width="1" height="1"/>
	<rect x="7" y="39" class="st7" width="1" height="1"/>
	<rect x="8" y="39" class="st9" width="1" height="1"/>
	<rect x="9" y="39" class="st7" width="1" height="1"/>
	<rect x="10" y="39" class="st5" width="1" height="1"/>
	<rect x="11" y="39" class="st2" width="1" height="1"/>
	<rect x="12" y="39" class="st9" width="1" height="1"/>
	<rect x="13" y="39" class="st0" width="1" height="1"/>
	<rect x="14" y="39" class="st0" width="1" height="1"/>
	<rect x="15" y="39" class="st0" width="1" height="1"/>
	<rect x="16" y="39" class="st0" width="1" height="1"/>
	<rect x="17" y="39" class="st0" width="1" height="1"/>
	<rect x="18" y="39" class="st0" width="1" height="1"/>
	<rect x="19" y="39" class="st1" width="1" height="1"/>
	<rect x="20" y="39" class="st0" width="1" height="1"/>
	<rect x="21" y="39" class="st2" width="1" height="1"/>
	<rect x="22" y="39" class="st2" width="1" height="1"/>
	<rect x="23" y="39" class="st1" width="1" height="1"/>
	<rect x="24" y="39" class="st0" width="1" height="1"/>
	<rect x="25" y="39" class="st5" width="1" height="1"/>
	<rect x="26" y="39" class="st5" width="1" height="1"/>
	<rect x="27" y="39" class="st2" width="1" height="1"/>
	<rect x="28" y="39" class="st1" width="1" height="1"/>
	<rect x="29" y="39" class="st2" width="1" height="1"/>
	<rect x="30" y="39" class="st0" width="1" height="1"/>
	<rect x="5" y="40" class="st0" width="1" height="1"/>
	<rect x="6" y="40" class="st1" width="1" height="1"/>
	<rect x="7" y="40" class="st0" width="1" height="1"/>
	<rect x="8" y="40" class="st0" width="1" height="1"/>
	<rect x="9" y="40" class="st0" width="1" height="1"/>
	<rect x="10" y="40" class="st9" width="1" height="1"/>
	<rect x="11" y="40" class="st9" width="1" height="1"/>
	<rect x="12" y="40" class="st13" width="1" height="1"/>
	<rect x="13" y="40" class="st0" width="1" height="1"/>
	<rect x="14" y="40" class="st0" width="1" height="1"/>
	<rect x="15" y="40" class="st0" width="1" height="1"/>
	<rect x="16" y="40" class="st13" width="1" height="1"/>
	<rect x="17" y="40" class="st13" width="1" height="1"/>
	<rect x="18" y="40" class="st0" width="1" height="1"/>
	<rect x="19" y="40" class="st0" width="1" height="1"/>
	<rect x="20" y="40" class="st1" width="1" height="1"/>
	<rect x="21" y="40" class="st0" width="1" height="1"/>
	<rect x="22" y="40" class="st2" width="1" height="1"/>
	<rect x="23" y="40" class="st2" width="1" height="1"/>
	<rect x="24" y="40" class="st1" width="1" height="1"/>
	<rect x="25" y="40" class="st5" width="1" height="1"/>
	<rect x="26" y="40" class="st2" width="1" height="1"/>
	<rect x="27" y="40" class="st5" width="1" height="1"/>
	<rect x="28" y="40" class="st2" width="1" height="1"/>
	<rect x="29" y="40" class="st0" width="1" height="1"/>
	<rect x="5" y="41" class="st0" width="1" height="1"/>
	<rect x="6" y="41" class="st1" width="1" height="1"/>
	<rect x="7" y="41" class="st1" width="1" height="1"/>
	<rect x="8" y="41" class="st0" width="1" height="1"/>
	<rect x="9" y="41" class="st0" width="1" height="1"/>
	<rect x="10" y="41" class="st13" width="1" height="1"/>
	<rect x="11" y="41" class="st7" width="1" height="1"/>
	<rect x="12" y="41" class="st0" width="1" height="1"/>
	<rect x="13" y="41" class="st13" width="1" height="1"/>
	<rect x="14" y="41" class="st13" width="1" height="1"/>
	<rect x="15" y="41" class="st13" width="1" height="1"/>
	<rect x="16" y="41" class="st0" width="1" height="1"/>
	<rect x="17" y="41" class="st0" width="1" height="1"/>
	<rect x="18" y="41" class="st13" width="1" height="1"/>
	<rect x="19" y="41" class="st0" width="1" height="1"/>
	<rect x="20" y="41" class="st0" width="1" height="1"/>
	<rect x="21" y="41" class="st1" width="1" height="1"/>
	<rect x="22" y="41" class="st0" width="1" height="1"/>
	<rect x="23" y="41" class="st2" width="1" height="1"/>
	<rect x="24" y="41" class="st1" width="1" height="1"/>
	<rect x="25" y="41" class="st2" width="1" height="1"/>
	<rect x="26" y="41" class="st5" width="1" height="1"/>
	<rect x="27" y="41" class="st2" width="1" height="1"/>
	<rect x="28" y="41" class="st1" width="1" height="1"/>
	<rect x="29" y="41" class="st0" width="1" height="1"/>
	<rect x="5" y="42" class="st0" width="1" height="1"/>
	<rect x="6" y="42" class="st1" width="1" height="1"/>
	<rect x="7" y="42" class="st11" width="1" height="1"/>
	<rect x="8" y="42" class="st0" width="1" height="1"/>
	<rect x="9" y="42" class="st13" width="1" height="1"/>
	<rect x="10" y="42" class="st0" width="1" height="1"/>
	<rect x="11" y="42" class="st0" width="1" height="1"/>
	<rect x="12" y="42" class="st12" width="1" height="1"/>
	<rect x="13" y="42" class="st14" width="1" height="1"/>
	<rect x="14" y="42" class="st14" width="1" height="1"/>
	<rect x="15" y="42" class="st14" width="1" height="1"/>
	<rect x="16" y="42" class="st12" width="1" height="1"/>
	<rect x="17" y="42" class="st0" width="1" height="1"/>
	<rect x="18" y="42" class="st0" width="1" height="1"/>
	<rect x="19" y="42" class="st12" width="1" height="1"/>
	<rect x="20" y="42" class="st0" width="1" height="1"/>
	<rect x="21" y="42" class="st11" width="1" height="1"/>
	<rect x="22" y="42" class="st1" width="1" height="1"/>
	<rect x="23" y="42" class="st0" width="1" height="1"/>
	<rect x="24" y="42" class="st2" width="1" height="1"/>
	<rect x="25" y="42" class="st1" width="1" height="1"/>
	<rect x="26" y="42" class="st2" width="1" height="1"/>
	<rect x="27" y="42" class="st1" width="1" height="1"/>
	<rect x="28" y="42" class="st2" width="1" height="1"/>
	<rect x="29" y="42" class="st0" width="1" height="1"/>
	<rect x="5" y="43" class="st0" width="1" height="1"/>
	<rect x="6" y="43" class="st1" width="1" height="1"/>
	<rect x="7" y="43" class="st11" width="1" height="1"/>
	<rect x="8" y="43" class="st0" width="1" height="1"/>
	<rect x="9" y="43" class="st0" width="1" height="1"/>
	<rect x="10" y="43" class="st12" width="1" height="1"/>
	<rect x="11" y="43" class="st0" width="1" height="1"/>
	<rect x="12" y="43" class="st0" width="1" height="1"/>
	<rect x="13" y="43" class="st12" width="1" height="1"/>
	<rect x="14" y="43" class="st12" width="1" height="1"/>
	<rect x="15" y="43" class="st12" width="1" height="1"/>
	<rect x="16" y="43" class="st0" width="1" height="1"/>
	<rect x="17" y="43" class="st0" width="1" height="1"/>
	<rect x="18" y="43" class="st12" width="1" height="1"/>
	<rect x="19" y="43" class="st0" width="1" height="1"/>
	<rect x="20" y="43" class="st0" width="1" height="1"/>
	<rect x="21" y="43" class="st11" width="1" height="1"/>
	<rect x="22" y="43" class="st1" width="1" height="1"/>
	<rect x="23" y="43" class="st0" width="1" height="1"/>
	<rect x="24" y="43" class="st0" width="1" height="1"/>
	<rect x="25" y="43" class="st2" width="1" height="1"/>
	<rect x="26" y="43" class="st1" width="1" height="1"/>
	<rect x="27" y="43" class="st2" width="1" height="1"/>
	<rect x="28" y="43" class="st0" width="1" height="1"/>
	<rect x="5" y="44" class="st0" width="1" height="1"/>
	<rect x="6" y="44" class="st1" width="1" height="1"/>
	<rect x="7" y="44" class="st1" width="1" height="1"/>
	<rect x="8" y="44" class="st11" width="1" height="1"/>
	<rect x="9" y="44" class="st0" width="1" height="1"/>
	<rect x="10" y="44" class="st0" width="1" height="1"/>
	<rect x="11" y="44" class="st12" width="1" height="1"/>
	<rect x="12" y="44" class="st12" width="1" height="1"/>
	<rect x="13" y="44" class="st0" width="1" height="1"/>
	<rect x="14" y="44" class="st0" width="1" height="1"/>
	<rect x="15" y="44" class="st0" width="1" height="1"/>
	<rect x="16" y="44" class="st12" width="1" height="1"/>
	<rect x="17" y="44" class="st12" width="1" height="1"/>
	<rect x="18" y="44" class="st0" width="1" height="1"/>
	<rect x="19" y="44" class="st0" width="1" height="1"/>
	<rect x="20" y="44" class="st11" width="1" height="1"/>
	<rect x="21" y="44" class="st1" width="1" height="1"/>
	<rect x="22" y="44" class="st1" width="1" height="1"/>
	<rect x="23" y="44" class="st0" width="1" height="1"/>
	<rect x="25" y="44" class="st0" width="1" height="1"/>
	<rect x="26" y="44" class="st0" width="1" height="1"/>
	<rect x="27" y="44" class="st0" width="1" height="1"/>
	<rect x="5" y="45" class="st0" width="1" height="1"/>
	<rect x="6" y="45" class="st1" width="1" height="1"/>
	<rect x="7" y="45" class="st1" width="1" height="1"/>
	<rect x="8" y="45" class="st1" width="1" height="1"/>
	<rect x="9" y="45" class="st11" width="1" height="1"/>
	<rect x="10" y="45" class="st0" width="1" height="1"/>
	<rect x="11" y="45" class="st0" width="1" height="1"/>
	<rect x="12" y="45" class="st0" width="1" height="1"/>
	<rect x="13" y="45" class="st0" width="1" height="1"/>
	<rect x="14" y="45" class="st0" width="1" height="1"/>
	<rect x="15" y="45" class="st0" width="1" height="1"/>
	<rect x="16" y="45" class="st0" width="1" height="1"/>
	<rect x="17" y="45" class="st0" width="1" height="1"/>
	<rect x="18" y="45" class="st11" width="1" height="1"/>
	<rect x="19" y="45" class="st11" width="1" height="1"/>
	<rect x="20" y="45" class="st1" width="1" height="1"/>
	<rect x="21" y="45" class="st1" width="1" height="1"/>
	<rect x="22" y="45" class="st1" width="1" height="1"/>
	<rect x="23" y="45" class="st0" width="1" height="1"/>
	<rect x="5" y="46" class="st0" width="1" height="1"/>
	<rect x="6" y="46" class="st1" width="1" height="1"/>
	<rect x="7" y="46" class="st1" width="1" height="1"/>
	<rect x="8" y="46" class="st1" width="1" height="1"/>
	<rect x="9" y="46" class="st1" width="1" height="1"/>
	<rect x="10" y="46" class="st1" width="1" height="1"/>
	<rect x="11" y="46" class="st11" width="1" height="1"/>
	<rect x="12" y="46" class="st11" width="1" height="1"/>
	<rect x="13" y="46" class="st11" width="1" height="1"/>
	<rect x="14" y="46" class="st11" width="1" height="1"/>
	<rect x="15" y="46" class="st11" width="1" height="1"/>
	<rect x="16" y="46" class="st11" width="1" height="1"/>
	<rect x="17" y="46" class="st11" width="1" height="1"/>
	<rect x="18" y="46" class="st1" width="1" height="1"/>
	<rect x="19" y="46" class="st1" width="1" height="1"/>
	<rect x="20" y="46" class="st1" width="1" height="1"/>
	<rect x="21" y="46" class="st1" width="1" height="1"/>
	<rect x="22" y="46" class="st1" width="1" height="1"/>
	<rect x="23" y="46" class="st0" width="1" height="1"/>
	<rect x="5" y="47" class="st0" width="1" height="1"/>
	<rect x="6" y="47" class="st1" width="1" height="1"/>
	<rect x="7" y="47" class="st1" width="1" height="1"/>
	<rect x="8" y="47" class="st1" width="1" height="1"/>
	<rect x="9" y="47" class="st1" width="1" height="1"/>
	<rect x="10" y="47" class="st1" width="1" height="1"/>
	<rect x="11" y="47" class="st1" width="1" height="1"/>
	<rect x="12" y="47" class="st1" width="1" height="1"/>
	<rect x="13" y="47" class="st1" width="1" height="1"/>
	<rect x="14" y="47" class="st1" width="1" height="1"/>
	<rect x="15" y="47" class="st1" width="1" height="1"/>
	<rect x="16" y="47" class="st1" width="1" height="1"/>
	<rect x="17" y="47" class="st1" width="1" height="1"/>
	<rect x="18" y="47" class="st1" width="1" height="1"/>
	<rect x="19" y="47" class="st1" width="1" height="1"/>
	<rect x="20" y="47" class="st1" width="1" height="1"/>
	<rect x="21" y="47" class="st1" width="1" height="1"/>
	<rect x="22" y="47" class="st1" width="1" height="1"/>
	<rect x="23" y="47" class="st0" width="1" height="1"/>
	<rect x="5" y="48" class="st0" width="1" height="1"/>
	<rect x="6" y="48" class="st3" width="1" height="1"/>
	<rect x="7" y="48" class="st3" width="1" height="1"/>
	<rect x="8" y="48" class="st3" width="1" height="1"/>
	<rect x="9" y="48" class="st3" width="1" height="1"/>
	<rect x="10" y="48" class="st3" width="1" height="1"/>
	<rect x="11" y="48" class="st3" width="1" height="1"/>
	<rect x="12" y="48" class="st3" width="1" height="1"/>
	<rect x="13" y="48" class="st3" width="1" height="1"/>
	<rect x="14" y="48" class="st3" width="1" height="1"/>
	<rect x="15" y="48" class="st3" width="1" height="1"/>
	<rect x="16" y="48" class="st3" width="1" height="1"/>
	<rect x="17" y="48" class="st3" width="1" height="1"/>
	<rect x="18" y="48" class="st3" width="1" height="1"/>
	<rect x="19" y="48" class="st3" width="1" height="1"/>
	<rect x="20" y="48" class="st3" width="1" height="1"/>
	<rect x="21" y="48" class="st3" width="1" height="1"/>
	<rect x="22" y="48" class="st3" width="1" height="1"/>
	<rect x="23" y="48" class="st0" width="1" height="1"/>
	<rect x="5" y="49" class="st0" width="1" height="1"/>
	<rect x="6" y="49" class="st2" width="1" height="1"/>
	<rect x="7" y="49" class="st2" width="1" height="1"/>
	<rect x="8" y="49" class="st2" width="1" height="1"/>
	<rect x="9" y="49" class="st0" width="1" height="1"/>
	<rect x="10" y="49" class="st2" width="1" height="1"/>
	<rect x="11" y="49" class="st2" width="1" height="1"/>
	<rect x="12" y="49" class="st2" width="1" height="1"/>
	<rect x="13" y="49" class="st2" width="1" height="1"/>
	<rect x="14" y="49" class="st2" width="1" height="1"/>
	<rect x="15" y="49" class="st2" width="1" height="1"/>
	<rect x="16" y="49" class="st2" width="1" height="1"/>
	<rect x="17" y="49" class="st2" width="1" height="1"/>
	<rect x="18" y="49" class="st2" width="1" height="1"/>
	<rect x="19" y="49" class="st2" width="1" height="1"/>
	<rect x="20" y="49" class="st2" width="1" height="1"/>
	<rect x="21" y="49" class="st2" width="1" height="1"/>
	<rect x="22" y="49" class="st2" width="1" height="1"/>
	<rect x="23" y="49" class="st0" width="1" height="1"/>
	<rect x="5" y="50" class="st0" width="1" height="1"/>
	<rect x="6" y="50" class="st2" width="1" height="1"/>
	<rect x="7" y="50" class="st2" width="1" height="1"/>
	<rect x="8" y="50" class="st0" width="1" height="1"/>
	<rect x="9" y="50" class="st12" width="1" height="1"/>
	<rect x="10" y="50" class="st0" width="1" height="1"/>
	<rect x="11" y="50" class="st2" width="1" height="1"/>
	<rect x="12" y="50" class="st2" width="1" height="1"/>
	<rect x="13" y="50" class="st5" width="1" height="1"/>
	<rect x="14" y="50" class="st5" width="1" height="1"/>
	<rect x="15" y="50" class="st5" width="1" height="1"/>
	<rect x="16" y="50" class="st2" width="1" height="1"/>
	<rect x="17" y="50" class="st2" width="1" height="1"/>
	<rect x="18" y="50" class="st2" width="1" height="1"/>
	<rect x="19" y="50" class="st2" width="1" height="1"/>
	<rect x="20" y="50" class="st2" width="1" height="1"/>
	<rect x="21" y="50" class="st2" width="1" height="1"/>
	<rect x="22" y="50" class="st2" width="1" height="1"/>
	<rect x="23" y="50" class="st0" width="1" height="1"/>
	<rect x="5" y="51" class="st0" width="1" height="1"/>
	<rect x="6" y="51" class="st0" width="1" height="1"/>
	<rect x="7" y="51" class="st0" width="1" height="1"/>
	<rect x="8" y="51" class="st0" width="1" height="1"/>
	<rect x="9" y="51" class="st11" width="1" height="1"/>
	<rect x="10" y="51" class="st0" width="1" height="1"/>
	<rect x="11" y="51" class="st2" width="1" height="1"/>
	<rect x="12" y="51" class="st2" width="1" height="1"/>
	<rect x="13" y="51" class="st2" width="1" height="1"/>
	<rect x="14" y="51" class="st2" width="1" height="1"/>
	<rect x="15" y="51" class="st2" width="1" height="1"/>
	<rect x="16" y="51" class="st2" width="1" height="1"/>
	<rect x="17" y="51" class="st2" width="1" height="1"/>
	<rect x="18" y="51" class="st2" width="1" height="1"/>
	<rect x="19" y="51" class="st2" width="1" height="1"/>
	<rect x="20" y="51" class="st2" width="1" height="1"/>
	<rect x="21" y="51" class="st2" width="1" height="1"/>
	<rect x="22" y="51" class="st2" width="1" height="1"/>
	<rect x="23" y="51" class="st0" width="1" height="1"/>
	<rect x="4" y="52" class="st0" width="1" height="1"/>
	<rect x="5" y="52" class="st2" width="1" height="1"/>
	<rect x="6" y="52" class="st3" width="1" height="1"/>
	<rect x="7" y="52" class="st1" width="1" height="1"/>
	<rect x="8" y="52" class="st11" width="1" height="1"/>
	<rect x="9" y="52" class="st11" width="1" height="1"/>
	<rect x="10" y="52" class="st0" width="1" height="1"/>
	<rect x="11" y="52" class="st0" width="1" height="1"/>
	<rect x="12" y="52" class="st0" width="1" height="1"/>
	<rect x="13" y="52" class="st0" width="1" height="1"/>
	<rect x="14" y="52" class="st0" width="1" height="1"/>
	<rect x="15" y="52" class="st0" width="1" height="1"/>
	<rect x="16" y="52" class="st0" width="1" height="1"/>
	<rect x="17" y="52" class="st0" width="1" height="1"/>
	<rect x="18" y="52" class="st0" width="1" height="1"/>
	<rect x="19" y="52" class="st0" width="1" height="1"/>
	<rect x="20" y="52" class="st0" width="1" height="1"/>
	<rect x="21" y="52" class="st0" width="1" height="1"/>
	<rect x="22" y="52" class="st0" width="1" height="1"/>
	<rect x="23" y="52" class="st0" width="1" height="1"/>
	<rect x="5" y="53" class="st0" width="1" height="1"/>
	<rect x="6" y="53" class="st0" width="1" height="1"/>
	<rect x="7" y="53" class="st0" width="1" height="1"/>
	<rect x="8" y="53" class="st0" width="1" height="1"/>
	<rect x="9" y="53" class="st0" width="1" height="1"/>
</g>
</svg>
