<?xml version="1.0" encoding="UTF-8" ?>
<svg version="1.1" width="32" height="32" xmlns="http://www.w3.org/2000/svg" shape-rendering="crispEdges">
<rect x="13" y="10" width="1" height="1" fill="#222034" />
<rect x="14" y="10" width="1" height="1" fill="#222034" />
<rect x="15" y="10" width="1" height="1" fill="#222034" />
<rect x="12" y="11" width="1" height="1" fill="#222034" />
<rect x="13" y="11" width="1" height="1" fill="#F7FF92" />
<rect x="14" y="11" width="1" height="1" fill="#F7FF92" />
<rect x="15" y="11" width="1" height="1" fill="#F7FF92" />
<rect x="16" y="11" width="1" height="1" fill="#222034" />
<rect x="17" y="11" width="1" height="1" fill="#222034" />
<rect x="18" y="11" width="1" height="1" fill="#222034" />
<rect x="19" y="11" width="1" height="1" fill="#222034" />
<rect x="11" y="12" width="1" height="1" fill="#222034" />
<rect x="12" y="12" width="1" height="1" fill="#F7FF92" />
<rect x="13" y="12" width="1" height="1" fill="#F7FF92" />
<rect x="14" y="12" width="1" height="1" fill="#F7FF92" />
<rect x="15" y="12" width="1" height="1" fill="#FBF236" />
<rect x="16" y="12" width="1" height="1" fill="#F7FF92" />
<rect x="17" y="12" width="1" height="1" fill="#F0B829" />
<rect x="18" y="12" width="1" height="1" fill="#F0B829" />
<rect x="19" y="12" width="1" height="1" fill="#F0B829" />
<rect x="20" y="12" width="1" height="1" fill="#222034" />
<rect x="11" y="13" width="1" height="1" fill="#222034" />
<rect x="12" y="13" width="1" height="1" fill="#FBF236" />
<rect x="13" y="13" width="1" height="1" fill="#FBF236" />
<rect x="14" y="13" width="1" height="1" fill="#222034" />
<rect x="15" y="13" width="1" height="1" fill="#FBF236" />
<rect x="16" y="13" width="1" height="1" fill="#F7FF92" />
<rect x="17" y="13" width="1" height="1" fill="#F0B829" />
<rect x="18" y="13" width="1" height="1" fill="#F0B829" />
<rect x="19" y="13" width="1" height="1" fill="#F0B829" />
<rect x="20" y="13" width="1" height="1" fill="#222034" />
<rect x="11" y="14" width="1" height="1" fill="#222034" />
<rect x="12" y="14" width="1" height="1" fill="#DF7126" />
<rect x="13" y="14" width="1" height="1" fill="#DF7126" />
<rect x="14" y="14" width="1" height="1" fill="#FBF236" />
<rect x="15" y="14" width="1" height="1" fill="#FBF236" />
<rect x="16" y="14" width="1" height="1" fill="#F0B829" />
<rect x="17" y="14" width="1" height="1" fill="#FBF236" />
<rect x="18" y="14" width="1" height="1" fill="#FBF236" />
<rect x="19" y="14" width="1" height="1" fill="#FBF236" />
<rect x="20" y="14" width="1" height="1" fill="#222034" />
<rect x="10" y="15" width="1" height="1" fill="#222034" />
<rect x="11" y="15" width="1" height="1" fill="#DF7126" />
<rect x="12" y="15" width="1" height="1" fill="#DF7126" />
<rect x="13" y="15" width="1" height="1" fill="#222034" />
<rect x="14" y="15" width="1" height="1" fill="#F0B829" />
<rect x="15" y="15" width="1" height="1" fill="#F0B829" />
<rect x="16" y="15" width="1" height="1" fill="#FBF236" />
<rect x="17" y="15" width="1" height="1" fill="#FBF236" />
<rect x="18" y="15" width="1" height="1" fill="#FBF236" />
<rect x="19" y="15" width="1" height="1" fill="#FBF236" />
<rect x="20" y="15" width="1" height="1" fill="#222034" />
<rect x="11" y="16" width="1" height="1" fill="#222034" />
<rect x="12" y="16" width="1" height="1" fill="#222034" />
<rect x="13" y="16" width="1" height="1" fill="#F0B829" />
<rect x="14" y="16" width="1" height="1" fill="#F0B829" />
<rect x="15" y="16" width="1" height="1" fill="#FBF236" />
<rect x="16" y="16" width="1" height="1" fill="#FBF236" />
<rect x="17" y="16" width="1" height="1" fill="#FBF236" />
<rect x="18" y="16" width="1" height="1" fill="#FBF236" />
<rect x="19" y="16" width="1" height="1" fill="#222034" />
<rect x="12" y="17" width="1" height="1" fill="#222034" />
<rect x="13" y="17" width="1" height="1" fill="#8F563B" />
<rect x="14" y="17" width="1" height="1" fill="#F0B829" />
<rect x="15" y="17" width="1" height="1" fill="#FBF236" />
<rect x="16" y="17" width="1" height="1" fill="#FBF236" />
<rect x="17" y="17" width="1" height="1" fill="#FBF236" />
<rect x="18" y="17" width="1" height="1" fill="#FBF236" />
<rect x="19" y="17" width="1" height="1" fill="#222034" />
<rect x="12" y="18" width="1" height="1" fill="#222034" />
<rect x="13" y="18" width="1" height="1" fill="#8F563B" />
<rect x="14" y="18" width="1" height="1" fill="#8F563B" />
<rect x="15" y="18" width="1" height="1" fill="#F0B829" />
<rect x="16" y="18" width="1" height="1" fill="#FBF236" />
<rect x="17" y="18" width="1" height="1" fill="#222034" />
<rect x="18" y="18" width="1" height="1" fill="#222034" />
<rect x="19" y="18" width="1" height="1" fill="#222034" />
<rect x="13" y="19" width="1" height="1" fill="#222034" />
<rect x="14" y="19" width="1" height="1" fill="#222034" />
<rect x="15" y="19" width="1" height="1" fill="#222034" />
<rect x="16" y="19" width="1" height="1" fill="#222034" />
</svg>