<?xml version="1.0" encoding="utf-8"?>
<!-- Generator: Adobe Illustrator 26.0.2, SVG Export Plug-In . SVG Version: 6.00 Build 0)  -->
<svg version="1.1" id="Layer_1" shape-rendering="crispEdges"
	 xmlns="http://www.w3.org/2000/svg" xmlns:xlink="http://www.w3.org/1999/xlink" x="0px" y="0px" viewBox="0 0 32 32"
	 style="enable-background:new 0 0 32 32;" xml:space="preserve">
<style type="text/css">
	.st0{fill:#222034;}
	.st1{fill:#847E87;}
	.st2{fill:#FFFFFF;}
	.st3{fill:#CBDBFC;}
	.st4{fill:#306082;}
	.st5{fill:#639BFF;}
	.st6{fill:#9BADB7;}
	.st7{fill:#5B6EE1;}
</style>
<g id="Teapot">
	<rect x="13" y="5" class="st0" width="1" height="1"/>
	<rect x="14" y="5" class="st0" width="1" height="1"/>
	<rect x="15" y="5" class="st0" width="1" height="1"/>
	<rect x="16" y="5" class="st0" width="1" height="1"/>
	<rect x="17" y="5" class="st0" width="1" height="1"/>
	<rect x="11" y="6" class="st0" width="1" height="1"/>
	<rect x="12" y="6" class="st0" width="1" height="1"/>
	<rect x="13" y="6" class="st1" width="1" height="1"/>
	<rect x="14" y="6" class="st1" width="1" height="1"/>
	<rect x="15" y="6" class="st1" width="1" height="1"/>
	<rect x="16" y="6" class="st1" width="1" height="1"/>
	<rect x="17" y="6" class="st1" width="1" height="1"/>
	<rect x="18" y="6" class="st0" width="1" height="1"/>
	<rect x="19" y="6" class="st0" width="1" height="1"/>
	<rect x="10" y="7" class="st0" width="1" height="1"/>
	<rect x="11" y="7" class="st2" width="1" height="1"/>
	<rect x="12" y="7" class="st1" width="1" height="1"/>
	<rect x="13" y="7" class="st3" width="1" height="1"/>
	<rect x="14" y="7" class="st3" width="1" height="1"/>
	<rect x="15" y="7" class="st4" width="1" height="1"/>
	<rect x="16" y="7" class="st3" width="1" height="1"/>
	<rect x="17" y="7" class="st3" width="1" height="1"/>
	<rect x="18" y="7" class="st1" width="1" height="1"/>
	<rect x="19" y="7" class="st2" width="1" height="1"/>
	<rect x="20" y="7" class="st0" width="1" height="1"/>
	<rect x="9" y="8" class="st0" width="1" height="1"/>
	<rect x="10" y="8" class="st2" width="1" height="1"/>
	<rect x="11" y="8" class="st1" width="1" height="1"/>
	<rect x="12" y="8" class="st3" width="1" height="1"/>
	<rect x="13" y="8" class="st3" width="1" height="1"/>
	<rect x="14" y="8" class="st4" width="1" height="1"/>
	<rect x="15" y="8" class="st2" width="1" height="1"/>
	<rect x="16" y="8" class="st4" width="1" height="1"/>
	<rect x="17" y="8" class="st3" width="1" height="1"/>
	<rect x="18" y="8" class="st3" width="1" height="1"/>
	<rect x="19" y="8" class="st1" width="1" height="1"/>
	<rect x="20" y="8" class="st2" width="1" height="1"/>
	<rect x="21" y="8" class="st0" width="1" height="1"/>
	<rect x="5" y="9" class="st0" width="1" height="1"/>
	<rect x="6" y="9" class="st0" width="1" height="1"/>
	<rect x="7" y="9" class="st0" width="1" height="1"/>
	<rect x="8" y="9" class="st0" width="1" height="1"/>
	<rect x="9" y="9" class="st0" width="1" height="1"/>
	<rect x="10" y="9" class="st2" width="1" height="1"/>
	<rect x="11" y="9" class="st1" width="1" height="1"/>
	<rect x="12" y="9" class="st3" width="1" height="1"/>
	<rect x="13" y="9" class="st3" width="1" height="1"/>
	<rect x="14" y="9" class="st3" width="1" height="1"/>
	<rect x="15" y="9" class="st3" width="1" height="1"/>
	<rect x="16" y="9" class="st3" width="1" height="1"/>
	<rect x="17" y="9" class="st3" width="1" height="1"/>
	<rect x="18" y="9" class="st3" width="1" height="1"/>
	<rect x="19" y="9" class="st1" width="1" height="1"/>
	<rect x="20" y="9" class="st2" width="1" height="1"/>
	<rect x="21" y="9" class="st0" width="1" height="1"/>
	<rect x="25" y="9" class="st0" width="1" height="1"/>
	<rect x="26" y="9" class="st0" width="1" height="1"/>
	<rect x="4" y="10" class="st0" width="1" height="1"/>
	<rect x="5" y="10" class="st3" width="1" height="1"/>
	<rect x="6" y="10" class="st3" width="1" height="1"/>
	<rect x="7" y="10" class="st3" width="1" height="1"/>
	<rect x="8" y="10" class="st3" width="1" height="1"/>
	<rect x="9" y="10" class="st3" width="1" height="1"/>
	<rect x="10" y="10" class="st2" width="1" height="1"/>
	<rect x="11" y="10" class="st1" width="1" height="1"/>
	<rect x="12" y="10" class="st2" width="1" height="1"/>
	<rect x="13" y="10" class="st3" width="1" height="1"/>
	<rect x="14" y="10" class="st3" width="1" height="1"/>
	<rect x="15" y="10" class="st3" width="1" height="1"/>
	<rect x="16" y="10" class="st3" width="1" height="1"/>
	<rect x="17" y="10" class="st3" width="1" height="1"/>
	<rect x="18" y="10" class="st2" width="1" height="1"/>
	<rect x="19" y="10" class="st1" width="1" height="1"/>
	<rect x="20" y="10" class="st2" width="1" height="1"/>
	<rect x="21" y="10" class="st3" width="1" height="1"/>
	<rect x="22" y="10" class="st0" width="1" height="1"/>
	<rect x="24" y="10" class="st0" width="1" height="1"/>
	<rect x="25" y="10" class="st2" width="1" height="1"/>
	<rect x="26" y="10" class="st3" width="1" height="1"/>
	<rect x="27" y="10" class="st0" width="1" height="1"/>
	<rect x="3" y="11" class="st0" width="1" height="1"/>
	<rect x="4" y="11" class="st2" width="1" height="1"/>
	<rect x="5" y="11" class="st2" width="1" height="1"/>
	<rect x="6" y="11" class="st2" width="1" height="1"/>
	<rect x="7" y="11" class="st2" width="1" height="1"/>
	<rect x="8" y="11" class="st2" width="1" height="1"/>
	<rect x="9" y="11" class="st3" width="1" height="1"/>
	<rect x="10" y="11" class="st3" width="1" height="1"/>
	<rect x="11" y="11" class="st2" width="1" height="1"/>
	<rect x="12" y="11" class="st1" width="1" height="1"/>
	<rect x="13" y="11" class="st2" width="1" height="1"/>
	<rect x="14" y="11" class="st2" width="1" height="1"/>
	<rect x="15" y="11" class="st2" width="1" height="1"/>
	<rect x="16" y="11" class="st2" width="1" height="1"/>
	<rect x="17" y="11" class="st2" width="1" height="1"/>
	<rect x="18" y="11" class="st1" width="1" height="1"/>
	<rect x="19" y="11" class="st2" width="1" height="1"/>
	<rect x="20" y="11" class="st3" width="1" height="1"/>
	<rect x="21" y="11" class="st3" width="1" height="1"/>
	<rect x="22" y="11" class="st0" width="1" height="1"/>
	<rect x="23" y="11" class="st0" width="1" height="1"/>
	<rect x="24" y="11" class="st2" width="1" height="1"/>
	<rect x="25" y="11" class="st4" width="1" height="1"/>
	<rect x="26" y="11" class="st4" width="1" height="1"/>
	<rect x="27" y="11" class="st3" width="1" height="1"/>
	<rect x="28" y="11" class="st0" width="1" height="1"/>
	<rect x="3" y="12" class="st0" width="1" height="1"/>
	<rect x="4" y="12" class="st3" width="1" height="1"/>
	<rect x="5" y="12" class="st0" width="1" height="1"/>
	<rect x="6" y="12" class="st0" width="1" height="1"/>
	<rect x="7" y="12" class="st0" width="1" height="1"/>
	<rect x="8" y="12" class="st0" width="1" height="1"/>
	<rect x="9" y="12" class="st3" width="1" height="1"/>
	<rect x="10" y="12" class="st5" width="1" height="1"/>
	<rect x="11" y="12" class="st3" width="1" height="1"/>
	<rect x="12" y="12" class="st2" width="1" height="1"/>
	<rect x="13" y="12" class="st1" width="1" height="1"/>
	<rect x="14" y="12" class="st1" width="1" height="1"/>
	<rect x="15" y="12" class="st1" width="1" height="1"/>
	<rect x="16" y="12" class="st1" width="1" height="1"/>
	<rect x="17" y="12" class="st1" width="1" height="1"/>
	<rect x="18" y="12" class="st2" width="1" height="1"/>
	<rect x="19" y="12" class="st3" width="1" height="1"/>
	<rect x="20" y="12" class="st3" width="1" height="1"/>
	<rect x="21" y="12" class="st3" width="1" height="1"/>
	<rect x="22" y="12" class="st3" width="1" height="1"/>
	<rect x="23" y="12" class="st2" width="1" height="1"/>
	<rect x="24" y="12" class="st3" width="1" height="1"/>
	<rect x="25" y="12" class="st3" width="1" height="1"/>
	<rect x="26" y="12" class="st3" width="1" height="1"/>
	<rect x="27" y="12" class="st0" width="1" height="1"/>
	<rect x="3" y="13" class="st0" width="1" height="1"/>
	<rect x="4" y="13" class="st3" width="1" height="1"/>
	<rect x="5" y="13" class="st0" width="1" height="1"/>
	<rect x="8" y="13" class="st0" width="1" height="1"/>
	<rect x="9" y="13" class="st6" width="1" height="1"/>
	<rect x="10" y="13" class="st3" width="1" height="1"/>
	<rect x="11" y="13" class="st5" width="1" height="1"/>
	<rect x="12" y="13" class="st3" width="1" height="1"/>
	<rect x="13" y="13" class="st2" width="1" height="1"/>
	<rect x="14" y="13" class="st2" width="1" height="1"/>
	<rect x="15" y="13" class="st2" width="1" height="1"/>
	<rect x="16" y="13" class="st2" width="1" height="1"/>
	<rect x="17" y="13" class="st2" width="1" height="1"/>
	<rect x="18" y="13" class="st3" width="1" height="1"/>
	<rect x="19" y="13" class="st3" width="1" height="1"/>
	<rect x="20" y="13" class="st5" width="1" height="1"/>
	<rect x="21" y="13" class="st3" width="1" height="1"/>
	<rect x="22" y="13" class="st3" width="1" height="1"/>
	<rect x="23" y="13" class="st2" width="1" height="1"/>
	<rect x="24" y="13" class="st3" width="1" height="1"/>
	<rect x="25" y="13" class="st3" width="1" height="1"/>
	<rect x="26" y="13" class="st0" width="1" height="1"/>
	<rect x="4" y="14" class="st0" width="1" height="1"/>
	<rect x="5" y="14" class="st3" width="1" height="1"/>
	<rect x="6" y="14" class="st0" width="1" height="1"/>
	<rect x="7" y="14" class="st0" width="1" height="1"/>
	<rect x="8" y="14" class="st0" width="1" height="1"/>
	<rect x="9" y="14" class="st6" width="1" height="1"/>
	<rect x="10" y="14" class="st7" width="1" height="1"/>
	<rect x="11" y="14" class="st3" width="1" height="1"/>
	<rect x="12" y="14" class="st3" width="1" height="1"/>
	<rect x="13" y="14" class="st3" width="1" height="1"/>
	<rect x="14" y="14" class="st3" width="1" height="1"/>
	<rect x="15" y="14" class="st3" width="1" height="1"/>
	<rect x="16" y="14" class="st3" width="1" height="1"/>
	<rect x="17" y="14" class="st3" width="1" height="1"/>
	<rect x="18" y="14" class="st3" width="1" height="1"/>
	<rect x="19" y="14" class="st5" width="1" height="1"/>
	<rect x="20" y="14" class="st3" width="1" height="1"/>
	<rect x="21" y="14" class="st6" width="1" height="1"/>
	<rect x="22" y="14" class="st4" width="1" height="1"/>
	<rect x="23" y="14" class="st3" width="1" height="1"/>
	<rect x="24" y="14" class="st3" width="1" height="1"/>
	<rect x="25" y="14" class="st0" width="1" height="1"/>
	<rect x="4" y="15" class="st0" width="1" height="1"/>
	<rect x="5" y="15" class="st0" width="1" height="1"/>
	<rect x="6" y="15" class="st3" width="1" height="1"/>
	<rect x="7" y="15" class="st3" width="1" height="1"/>
	<rect x="8" y="15" class="st4" width="1" height="1"/>
	<rect x="9" y="15" class="st6" width="1" height="1"/>
	<rect x="10" y="15" class="st6" width="1" height="1"/>
	<rect x="11" y="15" class="st6" width="1" height="1"/>
	<rect x="12" y="15" class="st3" width="1" height="1"/>
	<rect x="13" y="15" class="st3" width="1" height="1"/>
	<rect x="14" y="15" class="st3" width="1" height="1"/>
	<rect x="15" y="15" class="st5" width="1" height="1"/>
	<rect x="16" y="15" class="st3" width="1" height="1"/>
	<rect x="17" y="15" class="st3" width="1" height="1"/>
	<rect x="18" y="15" class="st3" width="1" height="1"/>
	<rect x="19" y="15" class="st3" width="1" height="1"/>
	<rect x="20" y="15" class="st5" width="1" height="1"/>
	<rect x="21" y="15" class="st6" width="1" height="1"/>
	<rect x="22" y="15" class="st4" width="1" height="1"/>
	<rect x="23" y="15" class="st3" width="1" height="1"/>
	<rect x="24" y="15" class="st0" width="1" height="1"/>
	<rect x="6" y="16" class="st0" width="1" height="1"/>
	<rect x="7" y="16" class="st0" width="1" height="1"/>
	<rect x="8" y="16" class="st3" width="1" height="1"/>
	<rect x="9" y="16" class="st4" width="1" height="1"/>
	<rect x="10" y="16" class="st6" width="1" height="1"/>
	<rect x="11" y="16" class="st6" width="1" height="1"/>
	<rect x="12" y="16" class="st6" width="1" height="1"/>
	<rect x="13" y="16" class="st3" width="1" height="1"/>
	<rect x="14" y="16" class="st5" width="1" height="1"/>
	<rect x="15" y="16" class="st3" width="1" height="1"/>
	<rect x="16" y="16" class="st5" width="1" height="1"/>
	<rect x="17" y="16" class="st3" width="1" height="1"/>
	<rect x="18" y="16" class="st3" width="1" height="1"/>
	<rect x="19" y="16" class="st6" width="1" height="1"/>
	<rect x="20" y="16" class="st6" width="1" height="1"/>
	<rect x="21" y="16" class="st4" width="1" height="1"/>
	<rect x="22" y="16" class="st0" width="1" height="1"/>
	<rect x="23" y="16" class="st0" width="1" height="1"/>
	<rect x="8" y="17" class="st0" width="1" height="1"/>
	<rect x="9" y="17" class="st0" width="1" height="1"/>
	<rect x="10" y="17" class="st0" width="1" height="1"/>
	<rect x="11" y="17" class="st6" width="1" height="1"/>
	<rect x="12" y="17" class="st7" width="1" height="1"/>
	<rect x="13" y="17" class="st7" width="1" height="1"/>
	<rect x="14" y="17" class="st6" width="1" height="1"/>
	<rect x="15" y="17" class="st7" width="1" height="1"/>
	<rect x="16" y="17" class="st6" width="1" height="1"/>
	<rect x="17" y="17" class="st6" width="1" height="1"/>
	<rect x="18" y="17" class="st7" width="1" height="1"/>
	<rect x="19" y="17" class="st7" width="1" height="1"/>
	<rect x="20" y="17" class="st6" width="1" height="1"/>
	<rect x="21" y="17" class="st0" width="1" height="1"/>
	<rect x="11" y="18" class="st0" width="1" height="1"/>
	<rect x="12" y="18" class="st0" width="1" height="1"/>
	<rect x="13" y="18" class="st7" width="1" height="1"/>
	<rect x="14" y="18" class="st6" width="1" height="1"/>
	<rect x="15" y="18" class="st6" width="1" height="1"/>
	<rect x="16" y="18" class="st6" width="1" height="1"/>
	<rect x="17" y="18" class="st6" width="1" height="1"/>
	<rect x="18" y="18" class="st7" width="1" height="1"/>
	<rect x="19" y="18" class="st0" width="1" height="1"/>
	<rect x="20" y="18" class="st0" width="1" height="1"/>
	<rect x="13" y="19" class="st0" width="1" height="1"/>
	<rect x="14" y="19" class="st0" width="1" height="1"/>
	<rect x="15" y="19" class="st0" width="1" height="1"/>
	<rect x="16" y="19" class="st0" width="1" height="1"/>
	<rect x="17" y="19" class="st0" width="1" height="1"/>
	<rect x="18" y="19" class="st0" width="1" height="1"/>
</g>
</svg>
