<?xml version="1.0" encoding="utf-8"?>
<!-- Generator: Adobe Illustrator 25.4.1, SVG Export Plug-In . SVG Version: 6.00 Build 0)  -->
<svg version="1.1" id="Layer_1" xmlns="http://www.w3.org/2000/svg" xmlns:xlink="http://www.w3.org/1999/xlink" x="0px" y="0px"
	 viewBox="0 0 1192.97 413.55" style="enable-background:new 0 0 1192.97 413.55;" xml:space="preserve">
<style type="text/css">
	.st0{fill-rule:evenodd;clip-rule:evenodd;fill:#FFFFFF;}
</style>
<path class="st0" d="M277.7,98.83c6.63,11.48,2.7,26.16-8.78,32.78c-11.48,6.63-26.15,2.69-32.78-8.79s-2.7-26.16,8.78-32.78
	C256.4,83.41,271.08,87.35,277.7,98.83z M299.4,87.19c13.4,23.2,5.45,52.87-17.75,66.26c-23.2,13.39-52.86,5.44-66.26-17.76
	c-13.4-23.2-5.45-52.87,17.75-66.26S286,63.99,299.4,87.19z M277.92,255.61c11.48-6.63,15.41-21.3,8.78-32.78
	s-21.3-15.41-32.78-8.79c-11.48,6.63-15.41,21.3-8.78,32.78C251.77,258.3,266.45,262.24,277.92,255.61z M290.02,277
	c23.2-13.39,31.15-43.06,17.75-66.26s-43.06-31.15-66.26-17.76s-31.15,43.06-17.75,66.26C237.16,282.45,266.82,290.4,290.02,277z
	 M286.2,345.96c6.63,11.48,2.7,26.16-8.78,32.78c-11.48,6.63-26.15,2.69-32.78-8.79s-2.7-26.16,8.78-32.78
	C264.9,330.55,279.58,334.48,286.2,345.96z M307.74,333.9c13.4,23.2,5.45,52.87-17.75,66.26s-52.86,5.44-66.26-17.76
	c-13.4-23.2-5.45-52.87,17.75-66.26S294.35,310.69,307.74,333.9z M175.92,313.61c11.48-6.63,15.41-21.3,8.78-32.78
	s-21.3-15.41-32.78-8.79s-15.41,21.3-8.78,32.78S164.45,320.24,175.92,313.61z M188.84,335.42c23.2-13.39,31.15-43.06,17.75-66.26
	S163.53,238,140.33,251.4c-23.2,13.39-31.15,43.06-17.75,66.26C135.98,340.86,165.64,348.81,188.84,335.42z M75.7,215.83
	c6.63,11.48,2.7,26.16-8.78,32.78s-26.15,2.69-32.78-8.79s-2.7-26.16,8.78-32.78C54.4,200.41,69.08,204.35,75.7,215.83z
	 M97.41,204.03c13.4,23.2,5.45,52.87-17.75,66.26s-52.86,5.44-66.26-17.76s-5.45-52.87,17.75-66.26S84.01,180.82,97.41,204.03z
	 M167.92,190.61c11.48-6.63,15.41-21.3,8.78-32.78s-21.3-15.41-32.78-8.79c-11.48,6.63-15.41,21.3-8.78,32.78
	S156.45,197.24,167.92,190.61z M180.47,211.87c23.2-13.39,31.15-43.06,17.75-66.26s-43.06-31.15-66.26-17.76
	s-31.15,43.06-17.75,66.26S157.27,225.26,180.47,211.87z M1116.74,172.22v121.97h31.58v-55.57c0-9.34,1.48-16.64,4.44-21.89
	c3.12-5.25,7.4-8.93,12.83-11.07c5.43-2.13,11.59-3.2,18.5-3.2h8.88v-33.2c-10.36,0-19.41,2.38-27.14,7.13
	c-7.57,4.59-13.57,10.82-18.01,18.69l-2.96-22.87L1116.74,172.22L1116.74,172.22z M1031.01,194.84c-7.73,0-14.55,2.21-20.48,6.64
	c-5.92,4.26-9.7,10.82-11.35,19.67h60.93c-0.49-8.03-3.45-14.43-8.88-19.18C1045.81,197.22,1039.06,194.84,1031.01,194.84z
	 M1030.76,297.14c-12.33,0-23.27-2.62-32.81-7.87s-17.02-12.62-22.45-22.13s-8.14-20.49-8.14-32.95c0-12.62,2.63-23.85,7.89-33.69
	c5.43-9.84,12.83-17.46,22.2-22.87c9.54-5.57,20.72-8.36,33.55-8.36c12.01,0,22.61,2.62,31.82,7.87s16.36,12.46,21.46,21.64
	c5.26,9.02,7.89,19.1,7.89,30.25c0,1.8-0.08,3.69-0.25,5.66c0,1.97-0.08,4.02-0.25,6.15h-93c0.66,9.51,3.95,16.97,9.87,22.38
	c6.08,5.41,13.4,8.11,21.96,8.11c6.41,0,11.76-1.39,16.03-4.18c4.44-2.95,7.73-6.72,9.87-11.31h32.07
	c-2.3,7.7-6.17,14.75-11.59,21.15c-5.26,6.23-11.84,11.15-19.74,14.75C1049.43,295.34,1040.63,297.14,1030.76,297.14z
	 M774.91,294.19c-12.83,0-23.11-3.11-30.84-9.34c-7.73-6.23-11.59-17.3-11.59-33.2v-53.11h-20.97v-26.31h20.97l3.7-32.7h27.88v32.7
	h33.06v26.31h-33.06v53.36c0,5.9,1.23,10,3.7,12.3c2.63,2.13,7.07,3.2,13.32,3.2h15.29v26.8h-21.46L774.91,294.19L774.91,294.19z
	 M651.01,263.7c-4.93,5.9-11.92,8.85-20.97,8.85c-5.92,0-10.69-1.31-14.31-3.93s-5.43-6.31-5.43-11.07c0-4.43,1.81-8.11,5.43-11.07
	c3.62-3.11,9.62-4.67,18.01-4.67h26.89C659.31,250.5,656.11,257.8,651.01,263.7z M596.98,292.22c6.74,3.28,15.38,4.92,25.9,4.92
	c10.2,0,18.5-2.13,24.92-6.39c6.58-4.26,11.68-9.67,15.29-16.23l2.96,19.67h26.89v-75c0-15.9-5.02-28.2-15.05-36.89
	c-10.03-8.69-23.76-13.03-41.2-13.03c-10.2,0-19.41,1.8-27.63,5.41c-8.22,3.44-14.97,8.44-20.23,15c-5.1,6.56-8.06,14.26-8.88,23.11
	h30.84c1.15-5.9,4.11-10.33,8.88-13.28c4.77-3.11,10.36-4.67,16.77-4.67c7.07,0,12.99,1.97,17.76,5.9s7.15,10.08,7.15,18.44v2.95
	h-31.08c-17.76,0-31.08,3.52-39.96,10.57S577,248.94,577,260.25c0,6.72,1.64,12.87,4.93,18.44S590.24,288.78,596.98,292.22z
	 M423.45,286.07c12.17,7.38,26.4,11.07,42.68,11.07c12.99,0,23.68-2.21,32.07-6.64c8.39-4.43,15.38-10.74,20.97-18.93l2.47,22.62
	h29.11v-94.67h-75.49v23.61h43.66c-1.64,13.77-6.5,24.92-14.55,33.44c-7.89,8.36-19.65,12.54-35.28,12.54
	c-15.95,0-28.62-5.16-37.99-15.49c-9.21-10.49-13.81-25.25-13.81-44.26s4.69-33.93,14.06-44.75c9.37-10.98,22.7-16.48,39.96-16.48
	c10.85,0,19.74,2.3,26.64,6.89c6.91,4.43,11.68,10.66,14.31,18.69h35.28c-3.95-17.05-12.58-30.41-25.9-40.08
	s-30.1-14.51-50.32-14.51c-17.76,0-33.14,3.85-46.13,11.56c-12.83,7.54-22.78,18.11-29.85,31.72
	c-6.91,13.44-10.36,29.02-10.36,46.72c0,17.54,3.37,32.95,10.11,46.23C401.83,268.45,411.28,278.7,423.45,286.07z M824.22,117.14
	v177.05h31.58v-62.95c0-11.15,2.88-19.84,8.63-26.07c5.92-6.23,13.32-9.34,22.2-9.34c9.05,0,15.62,2.79,19.74,8.36
	c4.28,5.57,6.41,13.61,6.41,24.1v65.9h31.33v-68.85c0-18.36-4.19-32.3-12.58-41.8c-8.22-9.51-19.9-14.26-35.03-14.26
	c-9.05,0-17.1,1.97-24.18,5.9c-6.91,3.77-12.42,9.02-16.53,15.74v-73.77h-31.57V117.14z M55.79,19.77
	c-3.32-5.76-1.35-13.12,4.41-16.44C65.95,0,73.31,1.97,76.64,7.73l25.56,44.28c0.33,0.06,0.67,0.13,1,0.22L162.02,68
	c6.42,1.72,10.23,8.32,8.51,14.74s-8.32,10.23-14.74,8.51l-53.11-14.23l-14.22,53.07c-1.72,6.42-8.32,10.23-14.74,8.51
	s-10.23-8.32-8.51-14.74l15.76-58.82c0.1-0.36,0.21-0.72,0.34-1.07L55.79,19.77z"/>
</svg>
