<?xml version="1.0" encoding="utf-8"?>
<!-- Generator: Adobe Illustrator 25.4.1, SVG Export Plug-In . SVG Version: 6.00 Build 0)  -->
<svg version="1.1" id="Layer_1" xmlns="http://www.w3.org/2000/svg" xmlns:xlink="http://www.w3.org/1999/xlink" x="0px" y="0px"
	 viewBox="0 0 500 500" style="enable-background:new 0 0 500 500;" xml:space="preserve">
<style type="text/css">
	.st0{fill-rule:evenodd;clip-rule:evenodd;fill:#4358D8;}
</style>
<path class="st0" d="M350.18,142.97c6.49,11.23,2.64,25.58-8.6,32.06c-11.24,6.48-25.61,2.63-32.1-8.59
	c-6.49-11.23-2.64-25.58,8.6-32.06C329.32,127.9,343.69,131.74,350.18,142.97z M371.43,131.59c13.12,22.69,5.34,51.7-17.38,64.8
	c-22.72,13.1-51.77,5.32-64.88-17.37c-13.12-22.69-5.34-51.7,17.38-64.8C329.26,101.13,358.31,108.9,371.43,131.59z M350.4,296.28
	c11.24-6.48,15.09-20.83,8.6-32.06c-6.49-11.23-20.86-15.07-32.1-8.59c-11.24,6.48-15.09,20.83-8.6,32.06
	C324.79,298.92,339.16,302.76,350.4,296.28z M362.25,317.21c22.72-13.1,30.5-42.11,17.38-64.8c-13.12-22.69-42.17-30.46-64.88-17.37
	c-22.72,13.1-30.5,42.11-17.38,64.8S339.53,330.3,362.25,317.21z M358.51,384.64c6.49,11.23,2.64,25.58-8.6,32.06
	c-11.24,6.48-25.61,2.63-32.1-8.59s-2.64-25.58,8.6-32.06C337.65,369.57,352.02,373.41,358.51,384.64z M379.6,372.84
	c13.12,22.69,5.34,51.7-17.38,64.8c-22.72,13.1-51.77,5.32-64.88-17.37c-13.12-22.69-5.34-51.7,17.38-64.8
	C337.43,342.38,366.48,350.15,379.6,372.84z M250.52,353c11.24-6.48,15.09-20.83,8.6-32.06c-6.49-11.23-20.86-15.07-32.1-8.59
	c-11.24,6.48-15.09,20.83-8.6,32.06C224.91,355.64,239.28,359.48,250.52,353z M263.17,374.33c22.72-13.1,30.5-42.11,17.38-64.8
	c-13.12-22.69-42.17-30.46-64.88-17.37s-30.5,42.11-17.38,64.8S240.45,387.43,263.17,374.33z M152.39,257.38
	c6.49,11.23,2.64,25.58-8.6,32.06c-11.24,6.48-25.61,2.63-32.1-8.59c-6.49-11.23-2.64-25.58,8.6-32.06
	C131.52,242.31,145.9,246.16,152.39,257.38z M173.64,245.84c13.12,22.69,5.34,51.7-17.38,64.8c-22.72,13.1-51.77,5.32-64.88-17.37
	s-5.34-51.7,17.38-64.8S160.52,223.15,173.64,245.84z M242.69,232.72c11.24-6.48,15.09-20.83,8.6-32.06
	c-6.49-11.23-20.86-15.07-32.1-8.59c-11.24,6.48-15.09,20.83-8.6,32.06C217.08,235.36,231.45,239.2,242.69,232.72z M254.97,253.51
	c22.72-13.1,30.5-42.11,17.38-64.8c-13.12-22.69-42.17-30.46-64.88-17.37c-22.72,13.1-30.5,42.11-17.38,64.8
	C203.2,258.84,232.25,266.61,254.97,253.51z M132.88,65.66c-3.25-5.63-1.32-12.83,4.31-16.08c5.64-3.25,12.85-1.32,16.1,4.31
	l25.03,43.3c0.33,0.06,0.65,0.13,0.98,0.22l57.6,15.42c6.29,1.68,10.02,8.14,8.34,14.42c-1.68,6.28-8.15,10.01-14.44,8.32
	l-52.01-13.92l-13.92,51.9c-1.68,6.28-8.15,10.01-14.44,8.32c-6.29-1.68-10.02-8.14-8.34-14.42l15.43-57.52
	c0.1-0.36,0.21-0.7,0.33-1.04L132.88,65.66z"/>
</svg>
