<?xml version="1.0" encoding="utf-8"?>
<!-- Generator: Adobe Illustrator 25.4.1, SVG Export Plug-In . SVG Version: 6.00 Build 0)  -->
<svg version="1.1" id="Layer_1" xmlns="http://www.w3.org/2000/svg" xmlns:xlink="http://www.w3.org/1999/xlink" x="0px" y="0px"
	 viewBox="0 0 1192.97 413.55" style="enable-background:new 0 0 1192.97 413.55;" xml:space="preserve">
<style type="text/css">
	.st0{fill-rule:evenodd;clip-rule:evenodd;fill:#FFFFFF;}
</style>
<path class="st0" d="M687.33,98.46c6.63,11.48,2.7,26.16-8.78,32.78c-11.48,6.63-26.15,2.69-32.78-8.79s-2.7-26.16,8.78-32.78
	C666.03,83.04,680.71,86.98,687.33,98.46z M709.03,86.82c13.4,23.2,5.45,52.87-17.75,66.26c-23.2,13.39-52.86,5.44-66.26-17.76
	s-5.45-52.87,17.75-66.26C665.97,55.67,695.63,63.62,709.03,86.82z M687.55,255.24c11.48-6.63,15.41-21.3,8.78-32.78
	s-21.3-15.41-32.78-8.79c-11.48,6.63-15.41,21.3-8.78,32.78C661.4,257.93,676.08,261.87,687.55,255.24z M699.65,276.63
	c23.2-13.39,31.15-43.06,17.75-66.26c-13.4-23.2-43.06-31.15-66.26-17.76s-31.15,43.06-17.75,66.26
	C646.79,282.08,676.45,290.03,699.65,276.63z M695.83,345.59c6.63,11.48,2.7,26.16-8.78,32.78c-11.48,6.63-26.15,2.69-32.78-8.79
	s-2.7-26.16,8.78-32.78S689.21,334.11,695.83,345.59z M717.37,333.53c13.4,23.2,5.45,52.87-17.75,66.26s-52.86,5.44-66.26-17.76
	c-13.4-23.2-5.45-52.87,17.75-66.26C674.31,302.38,703.98,310.32,717.37,333.53z M585.55,313.24c11.48-6.63,15.41-21.3,8.78-32.78
	s-21.3-15.41-32.78-8.79c-11.48,6.62-15.41,21.3-8.78,32.78S574.08,319.87,585.55,313.24z M598.47,335.05
	c23.2-13.39,31.15-43.06,17.75-66.26c-13.4-23.2-43.06-31.16-66.26-17.76c-23.2,13.39-31.15,43.06-17.75,66.26
	C545.61,340.49,575.27,348.44,598.47,335.05z M485.33,215.46c6.63,11.48,2.7,26.16-8.78,32.78c-11.48,6.62-26.15,2.69-32.78-8.79
	c-6.63-11.48-2.7-26.16,8.78-32.78C464.03,200.04,478.71,203.98,485.33,215.46z M507.04,203.66c13.4,23.2,5.45,52.87-17.75,66.26
	s-52.86,5.44-66.26-17.76s-5.45-52.87,17.75-66.26S493.64,180.45,507.04,203.66z M577.55,190.24c11.48-6.63,15.41-21.3,8.78-32.78
	s-21.3-15.41-32.78-8.79c-11.48,6.63-15.41,21.3-8.78,32.78S566.08,196.87,577.55,190.24z M590.1,211.5
	c23.2-13.39,31.15-43.06,17.75-66.26c-13.4-23.2-43.06-31.15-66.26-17.76s-31.15,43.06-17.75,66.26
	C537.24,216.94,566.9,224.89,590.1,211.5z M465.42,19.4c-3.32-5.76-1.35-13.12,4.41-16.44c5.75-3.33,13.11-1.36,16.44,4.4
	l25.56,44.28c0.33,0.06,0.67,0.13,1,0.22l58.82,15.77c6.42,1.72,10.23,8.32,8.51,14.74c-1.72,6.42-8.32,10.23-14.74,8.51
	l-53.11-14.23l-14.22,53.07c-1.72,6.42-8.32,10.23-14.74,8.51c-6.42-1.72-10.23-8.32-8.51-14.74l15.76-58.82
	c0.1-0.36,0.21-0.72,0.34-1.07L465.42,19.4z"/>
</svg>
