<?xml version="1.0" encoding="utf-8"?>
<!-- Generator: Adobe Illustrator 25.4.1, SVG Export Plug-In . SVG Version: 6.00 Build 0)  -->
<svg version="1.1" id="Layer_1" xmlns="http://www.w3.org/2000/svg" xmlns:xlink="http://www.w3.org/1999/xlink" x="0px" y="0px"
	 viewBox="0 0 500 500" style="enable-background:new 0 0 500 500;" xml:space="preserve">
<style type="text/css">
	.st0{clip-path:url(#SVGID_00000092438844301191768100000006062907410091285383_);fill:#4358D8;}
	
		.st1{clip-path:url(#SVGID_00000092438844301191768100000006062907410091285383_);fill-rule:evenodd;clip-rule:evenodd;fill:#FFFFFF;}
</style>
<g>
	<defs>
		<rect id="SVGID_1_" width="500" height="500"/>
	</defs>
	<clipPath id="SVGID_00000173845973174989722380000013221525276832984238_">
		<use xlink:href="#SVGID_1_"  style="overflow:visible;"/>
	</clipPath>
	
		<circle style="clip-path:url(#SVGID_00000173845973174989722380000013221525276832984238_);fill:#4358D8;" cx="250" cy="250" r="250"/>
	
		<path style="clip-path:url(#SVGID_00000173845973174989722380000013221525276832984238_);fill-rule:evenodd;clip-rule:evenodd;fill:#FFFFFF;" d="
		M335.71,155.98c5.67,9.81,2.31,22.35-7.51,28.01c-9.82,5.66-22.38,2.3-28.05-7.51s-2.31-22.35,7.51-28.01
		C317.48,142.81,330.04,146.17,335.71,155.98z M354.27,146.04c11.46,19.82,4.66,45.17-15.19,56.62
		c-19.85,11.44-45.23,4.65-56.69-15.17c-11.46-19.82-4.66-45.17,15.19-56.62C317.43,119.42,342.81,126.21,354.27,146.04z
		 M335.89,289.94c9.82-5.66,13.18-18.2,7.51-28.01c-5.67-9.81-18.23-13.17-28.05-7.51c-9.82,5.66-13.18,18.2-7.51,28.01
		C313.52,292.24,326.07,295.6,335.89,289.94z M346.24,308.21c19.85-11.44,26.65-36.79,15.19-56.62
		c-11.46-19.82-36.84-26.62-56.69-15.17c-19.85,11.44-26.65,36.79-15.19,56.62C301.01,312.87,326.4,319.66,346.24,308.21z
		 M342.98,367.13c5.67,9.81,2.31,22.35-7.51,28.01c-9.82,5.66-22.38,2.3-28.05-7.51c-5.67-9.81-2.31-22.35,7.51-28.01
		C324.75,353.96,337.31,357.32,342.98,367.13z M361.41,356.83c11.46,19.82,4.66,45.17-15.19,56.62s-45.23,4.65-56.69-15.17
		c-11.46-19.82-4.66-45.17,15.19-56.62S349.95,337,361.41,356.83z M248.62,339.49c9.82-5.66,13.18-18.2,7.51-28.01
		c-5.67-9.81-18.23-13.17-28.05-7.51c-9.82,5.66-13.18,18.2-7.51,28.01C226.25,341.79,238.8,345.15,248.62,339.49z M259.68,358.13
		c19.85-11.44,26.65-36.79,15.19-56.62c-11.46-19.82-36.84-26.62-56.69-15.17c-19.85,11.44-26.65,36.79-15.19,56.62
		C214.45,362.78,239.83,369.57,259.68,358.13z M162.88,255.94c5.67,9.81,2.31,22.35-7.51,28.01s-22.38,2.3-28.05-7.51
		c-5.67-9.81-2.31-22.35,7.51-28.01C144.65,242.78,157.21,246.14,162.88,255.94z M181.45,245.86c11.46,19.82,4.66,45.17-15.19,56.62
		s-45.23,4.65-56.69-15.17s-4.66-45.17,15.19-56.62S169.99,226.04,181.45,245.86z M241.78,234.4c9.82-5.66,13.18-18.2,7.51-28.01
		s-18.23-13.17-28.05-7.51c-9.82,5.66-13.18,18.2-7.51,28.01C219.4,236.7,231.96,240.06,241.78,234.4z M252.51,252.57
		c19.85-11.44,26.65-36.79,15.19-56.62c-11.46-19.82-36.84-26.62-56.69-15.17s-26.65,36.79-15.19,56.62S232.66,264.01,252.51,252.57
		z M145.84,88.43c-2.84-4.92-1.16-11.21,3.77-14.05c4.93-2.84,11.22-1.15,14.07,3.76l21.87,37.83c0.28,0.05,0.57,0.11,0.85,0.19
		l50.33,13.47c5.49,1.47,8.76,7.11,7.28,12.6c-1.47,5.49-7.12,8.74-12.61,7.27l-45.44-12.16l-12.16,45.35
		c-1.47,5.49-7.12,8.74-12.61,7.27c-5.49-1.47-8.76-7.11-7.28-12.6l13.48-50.26c0.08-0.31,0.18-0.62,0.29-0.91L145.84,88.43z"/>
</g>
</svg>
